G04 #@! TF.FileFunction,Copper,L1,Top,Signal*
%FSLAX46Y46*%
G04 Gerber Fmt 4.6, Leading zero omitted, Abs format (unit mm)*
G04 Created by KiCad (PCBNEW 4.0.0-rc1-stable) date 11/10/2015 9:35:47 AM*
%MOMM*%
G01*
G04 APERTURE LIST*
%ADD10C,0.100000*%
%ADD11O,1.524000X2.540000*%
%ADD12C,1.524000*%
%ADD13O,1.800860X1.501140*%
%ADD14R,1.800860X1.501140*%
%ADD15R,1.998980X1.000760*%
%ADD16R,1.501140X0.749300*%
%ADD17R,1.899920X1.399540*%
%ADD18R,1.399540X1.800860*%
%ADD19R,1.778000X0.762000*%
%ADD20O,1.798320X1.798320*%
%ADD21C,3.556000*%
%ADD22C,2.540000*%
%ADD23C,2.159000*%
%ADD24R,1.998980X4.500880*%
%ADD25R,1.300000X1.500000*%
%ADD26R,1.500000X1.300000*%
%ADD27R,1.600000X2.000000*%
%ADD28R,0.800000X0.350000*%
%ADD29R,0.350000X0.800000*%
%ADD30R,1.250000X1.250000*%
%ADD31R,1.800860X0.800100*%
%ADD32R,1.060000X0.650000*%
%ADD33R,3.497580X0.995680*%
%ADD34R,3.497580X0.998220*%
%ADD35R,3.398520X1.498600*%
%ADD36R,3.395980X1.498600*%
%ADD37R,1.550000X0.600000*%
%ADD38R,1.220000X0.910000*%
%ADD39R,1.699260X0.398780*%
%ADD40R,2.301240X1.300480*%
%ADD41R,2.202180X1.300480*%
%ADD42R,2.499360X1.800860*%
%ADD43R,2.029460X2.651760*%
%ADD44R,2.000000X1.600000*%
%ADD45R,1.500000X0.600000*%
%ADD46C,1.998980*%
%ADD47C,2.500000*%
%ADD48C,0.584200*%
%ADD49C,0.254000*%
G04 APERTURE END LIST*
D10*
D11*
X119380000Y-101600000D03*
X121920000Y-101600000D03*
X124460000Y-101600000D03*
X127000000Y-101600000D03*
X129540000Y-101600000D03*
X132080000Y-101600000D03*
X134620000Y-101600000D03*
X137160000Y-101600000D03*
X142240000Y-149860000D03*
X139700000Y-149860000D03*
X137160000Y-149860000D03*
X134620000Y-149860000D03*
X124460000Y-149860000D03*
X119380000Y-149860000D03*
X116840000Y-149860000D03*
X127000000Y-149860000D03*
X129540000Y-149860000D03*
X132080000Y-149860000D03*
X114300000Y-149860000D03*
X111760000Y-149860000D03*
X109220000Y-149860000D03*
X101600000Y-149860000D03*
X104140000Y-149860000D03*
X106680000Y-149860000D03*
X96520000Y-149860000D03*
X93980000Y-149860000D03*
X91440000Y-149860000D03*
X86360000Y-149860000D03*
X83820000Y-149860000D03*
X114300000Y-101600000D03*
X111760000Y-101600000D03*
X109220000Y-101600000D03*
X106680000Y-101600000D03*
X104140000Y-101600000D03*
X101600000Y-101600000D03*
X99060000Y-101600000D03*
X96520000Y-101600000D03*
X92456000Y-101600000D03*
X89916000Y-101600000D03*
X87376000Y-101600000D03*
X84836000Y-101600000D03*
X82296000Y-101600000D03*
X79756000Y-101600000D03*
X77216000Y-101600000D03*
X74676000Y-101600000D03*
X88900000Y-149860000D03*
D12*
X144780000Y-104140000D03*
X147320000Y-104140000D03*
X144780000Y-106680000D03*
X147320000Y-106680000D03*
X144780000Y-109220000D03*
X147320000Y-109220000D03*
X144780000Y-111760000D03*
X147320000Y-111760000D03*
X144780000Y-101600000D03*
X147320000Y-101600000D03*
X147320000Y-114300000D03*
X144780000Y-114300000D03*
X144780000Y-116840000D03*
X147320000Y-116840000D03*
X144780000Y-119380000D03*
X147320000Y-119380000D03*
X144780000Y-121920000D03*
X147320000Y-121920000D03*
X144780000Y-124460000D03*
X147320000Y-124460000D03*
X144780000Y-127000000D03*
X147320000Y-127000000D03*
X144780000Y-129540000D03*
X147320000Y-129540000D03*
X144780000Y-132080000D03*
X147320000Y-132080000D03*
X144780000Y-134620000D03*
X147320000Y-134620000D03*
X144780000Y-137160000D03*
X147320000Y-137160000D03*
X144780000Y-139700000D03*
X147320000Y-139700000D03*
X144780000Y-142240000D03*
X147320000Y-142240000D03*
X144780000Y-144780000D03*
X147320000Y-144780000D03*
X114300000Y-121920000D03*
X116840000Y-121920000D03*
X114300000Y-124460000D03*
X116840000Y-124460000D03*
X114300000Y-127000000D03*
X116840000Y-127000000D03*
D11*
X81280000Y-149860000D03*
X78740000Y-149860000D03*
X72136000Y-101600000D03*
X69596000Y-101600000D03*
D13*
X141810740Y-113030000D03*
X141810740Y-121031000D03*
X141810740Y-125028960D03*
X141810740Y-123029980D03*
X141810740Y-117030500D03*
X141810740Y-119029480D03*
X141810740Y-115028980D03*
X141810740Y-129029460D03*
X141810740Y-131030980D03*
X141810740Y-127030480D03*
X119809260Y-127030480D03*
X119809260Y-131030980D03*
X119809260Y-129029460D03*
X119809260Y-115028980D03*
X119809260Y-119029480D03*
X119809260Y-117030500D03*
X119809260Y-123029980D03*
X119809260Y-125028960D03*
X119809260Y-121031000D03*
D14*
X119809260Y-113030000D03*
D15*
X86995000Y-139753340D03*
X86995000Y-138254740D03*
X86995000Y-136753600D03*
X86995000Y-135255000D03*
X86995000Y-133753860D03*
X86995000Y-132255260D03*
X86995000Y-130754120D03*
X86995000Y-129255520D03*
X86995000Y-127754380D03*
X86995000Y-126255780D03*
X70993000Y-126255780D03*
X70993000Y-127754380D03*
X70993000Y-129255520D03*
X70993000Y-130754120D03*
X70993000Y-132255260D03*
X70993000Y-133753860D03*
X70993000Y-135255000D03*
X70993000Y-136753600D03*
X70993000Y-138254740D03*
X70993000Y-139753340D03*
D16*
X56299100Y-124940060D03*
X56299100Y-123840240D03*
X56098440Y-126039880D03*
X56299100Y-127139700D03*
X56299100Y-131538980D03*
X56697880Y-130439160D03*
X56299100Y-129339340D03*
X56098440Y-128239520D03*
D17*
X53449220Y-123139200D03*
X52349400Y-136387840D03*
D18*
X66598800Y-124688600D03*
X66598800Y-130489960D03*
D19*
X137033000Y-146685000D03*
X142367000Y-146685000D03*
X142367000Y-142875000D03*
X137033000Y-142875000D03*
D20*
X59182000Y-89408000D03*
X55684420Y-89408000D03*
X95758000Y-89916000D03*
X92260420Y-89916000D03*
X132021580Y-89408000D03*
X128524000Y-89408000D03*
D21*
X108204000Y-139700000D03*
D22*
X98679000Y-139700000D03*
D23*
X98679000Y-134620000D03*
X94234000Y-142240000D03*
X103124000Y-142240000D03*
D20*
X106045000Y-109220000D03*
X106045000Y-105722420D03*
D24*
X78945740Y-107950000D03*
X72946260Y-107950000D03*
D25*
X67564000Y-104996000D03*
X67564000Y-107696000D03*
D26*
X91915000Y-114300000D03*
X94615000Y-114300000D03*
X91915000Y-120650000D03*
X94615000Y-120650000D03*
X97630000Y-120650000D03*
X100330000Y-120650000D03*
X97790000Y-106680000D03*
X100490000Y-106680000D03*
X97630000Y-112395000D03*
X100330000Y-112395000D03*
D27*
X103759000Y-113062000D03*
X103759000Y-117062000D03*
D26*
X75405000Y-122555000D03*
X78105000Y-122555000D03*
X155401000Y-88138000D03*
X152701000Y-88138000D03*
D28*
X91726000Y-106975000D03*
X91726000Y-107625000D03*
X91726000Y-108275000D03*
X91726000Y-108925000D03*
D29*
X92751000Y-109950000D03*
X93401000Y-109950000D03*
X94051000Y-109950000D03*
X94701000Y-109950000D03*
D28*
X95726000Y-108925000D03*
X95726000Y-108275000D03*
X95726000Y-107625000D03*
X95726000Y-106975000D03*
D29*
X94701000Y-105950000D03*
X94051000Y-105950000D03*
X93401000Y-105950000D03*
X92751000Y-105950000D03*
D30*
X94351000Y-108575000D03*
X94351000Y-107325000D03*
X93101000Y-108575000D03*
X93101000Y-107325000D03*
D31*
X118259860Y-105222000D03*
X118259860Y-107122000D03*
X121262140Y-106172000D03*
D32*
X143426000Y-94046000D03*
X143426000Y-94996000D03*
X143426000Y-95946000D03*
X145626000Y-95946000D03*
X145626000Y-94046000D03*
X107104000Y-94046000D03*
X107104000Y-94996000D03*
X107104000Y-95946000D03*
X109304000Y-95946000D03*
X109304000Y-94046000D03*
X71036000Y-94300000D03*
X71036000Y-95250000D03*
X71036000Y-96200000D03*
X73236000Y-96200000D03*
X73236000Y-94300000D03*
D33*
X58420000Y-103139240D03*
D34*
X58420000Y-105140760D03*
D35*
X52671980Y-100794820D03*
D36*
X52671980Y-107487720D03*
D37*
X143604000Y-88011000D03*
X143604000Y-89281000D03*
X143604000Y-90551000D03*
X143604000Y-91821000D03*
X149004000Y-91821000D03*
X149004000Y-90551000D03*
X149004000Y-89281000D03*
X149004000Y-88011000D03*
X107282000Y-88265000D03*
X107282000Y-89535000D03*
X107282000Y-90805000D03*
X107282000Y-92075000D03*
X112682000Y-92075000D03*
X112682000Y-90805000D03*
X112682000Y-89535000D03*
X112682000Y-88265000D03*
X71214000Y-88265000D03*
X71214000Y-89535000D03*
X71214000Y-90805000D03*
X71214000Y-92075000D03*
X76614000Y-92075000D03*
X76614000Y-90805000D03*
X76614000Y-89535000D03*
X76614000Y-88265000D03*
D32*
X62484000Y-107000000D03*
X62484000Y-107950000D03*
X62484000Y-108900000D03*
X64684000Y-108900000D03*
X64684000Y-107000000D03*
D38*
X112903000Y-104553000D03*
X112903000Y-107823000D03*
D39*
X56240680Y-115064540D03*
X56240680Y-114414300D03*
X56240680Y-116365020D03*
D40*
X53340000Y-110964980D03*
D41*
X56339740Y-112664240D03*
D40*
X53340000Y-119164100D03*
D41*
X56339740Y-117464840D03*
D39*
X56240680Y-115714780D03*
D42*
X53139340Y-113665000D03*
X53139340Y-116464080D03*
D39*
X56240680Y-113764060D03*
D32*
X115232000Y-139258000D03*
X115232000Y-140208000D03*
X115232000Y-141158000D03*
X117432000Y-141158000D03*
X117432000Y-139258000D03*
X70317000Y-114432000D03*
X70317000Y-115382000D03*
X70317000Y-116332000D03*
X72517000Y-116332000D03*
X72517000Y-114432000D03*
D26*
X155401000Y-90424000D03*
X152701000Y-90424000D03*
X119968000Y-88392000D03*
X117268000Y-88392000D03*
X119968000Y-90678000D03*
X117268000Y-90678000D03*
X83646000Y-89027000D03*
X80946000Y-89027000D03*
X83646000Y-91186000D03*
X80946000Y-91186000D03*
X84295000Y-142875000D03*
X86995000Y-142875000D03*
X135302000Y-87630000D03*
X138002000Y-87630000D03*
X135556000Y-91694000D03*
X138256000Y-91694000D03*
X99234000Y-88900000D03*
X101934000Y-88900000D03*
X99234000Y-93218000D03*
X101934000Y-93218000D03*
X62658000Y-88138000D03*
X65358000Y-88138000D03*
X62658000Y-92456000D03*
X65358000Y-92456000D03*
D43*
X111633000Y-110383320D03*
X111633000Y-114554000D03*
D27*
X106426000Y-113062000D03*
X106426000Y-117062000D03*
X140970000Y-91916000D03*
X140970000Y-87916000D03*
X104648000Y-92551000D03*
X104648000Y-88551000D03*
X68072000Y-92170000D03*
X68072000Y-88170000D03*
D44*
X94710000Y-129540000D03*
X90710000Y-129540000D03*
X133160000Y-140335000D03*
X137160000Y-140335000D03*
D27*
X127000000Y-140780000D03*
X127000000Y-144780000D03*
X88646000Y-105728000D03*
X88646000Y-109728000D03*
X60325000Y-113475000D03*
X60325000Y-117475000D03*
X86106000Y-105728000D03*
X86106000Y-109728000D03*
X75057000Y-113602000D03*
X75057000Y-117602000D03*
X67437000Y-113602000D03*
X67437000Y-117602000D03*
D44*
X159480000Y-94742000D03*
X155480000Y-94742000D03*
X148368000Y-94742000D03*
X152368000Y-94742000D03*
X123412000Y-94742000D03*
X119412000Y-94742000D03*
X112300000Y-94742000D03*
X116300000Y-94742000D03*
X87344000Y-95758000D03*
X83344000Y-95758000D03*
X75978000Y-95758000D03*
X79978000Y-95758000D03*
D27*
X121920000Y-140780000D03*
X121920000Y-144780000D03*
D44*
X111665000Y-132715000D03*
X115665000Y-132715000D03*
D45*
X83500000Y-113665000D03*
X83500000Y-114935000D03*
X83500000Y-116205000D03*
X83500000Y-117475000D03*
X83500000Y-118745000D03*
X83500000Y-120015000D03*
X83500000Y-121285000D03*
X83500000Y-122555000D03*
X88900000Y-122555000D03*
X88900000Y-121285000D03*
X88900000Y-120015000D03*
X88900000Y-118745000D03*
X88900000Y-117475000D03*
X88900000Y-116205000D03*
X88900000Y-114935000D03*
X88900000Y-113665000D03*
D10*
G36*
X156170975Y-102868365D02*
X156540195Y-104114830D01*
X155101965Y-104540853D01*
X154732745Y-103294388D01*
X156170975Y-102868365D01*
X156170975Y-102868365D01*
G37*
G36*
X153582161Y-103635207D02*
X153951381Y-104881672D01*
X152513151Y-105307695D01*
X152143931Y-104061230D01*
X153582161Y-103635207D01*
X153582161Y-103635207D01*
G37*
G36*
X157264824Y-106819188D02*
X157568303Y-108083268D01*
X156109748Y-108433436D01*
X155806269Y-107169356D01*
X157264824Y-106819188D01*
X157264824Y-106819188D01*
G37*
G36*
X154639426Y-107449490D02*
X154942905Y-108713570D01*
X153484350Y-109063738D01*
X153180871Y-107799658D01*
X154639426Y-107449490D01*
X154639426Y-107449490D01*
G37*
G36*
X158150405Y-110821842D02*
X158387311Y-112100073D01*
X156912429Y-112373426D01*
X156675523Y-111095195D01*
X158150405Y-110821842D01*
X158150405Y-110821842D01*
G37*
G36*
X155495617Y-111313878D02*
X155732523Y-112592109D01*
X154257641Y-112865462D01*
X154020735Y-111587231D01*
X155495617Y-111313878D01*
X155495617Y-111313878D01*
G37*
G36*
X158825291Y-114865360D02*
X158994975Y-116154239D01*
X157507807Y-116350028D01*
X157338123Y-115061149D01*
X158825291Y-114865360D01*
X158825291Y-114865360D01*
G37*
G36*
X156148389Y-115217780D02*
X156318073Y-116506659D01*
X154830905Y-116702448D01*
X154661221Y-115413569D01*
X156148389Y-115217780D01*
X156148389Y-115217780D01*
G37*
G36*
X159287628Y-118938655D02*
X159389624Y-120234648D01*
X157894248Y-120352337D01*
X157792252Y-119056344D01*
X159287628Y-118938655D01*
X159287628Y-118938655D01*
G37*
G36*
X156595952Y-119150495D02*
X156697948Y-120446488D01*
X155202572Y-120564177D01*
X155100576Y-119268184D01*
X156595952Y-119150495D01*
X156595952Y-119150495D01*
G37*
G36*
X159536153Y-123030567D02*
X159570183Y-124330122D01*
X158070697Y-124369387D01*
X158036667Y-123069832D01*
X159536153Y-123030567D01*
X159536153Y-123030567D01*
G37*
G36*
X156837079Y-123101245D02*
X156871109Y-124400800D01*
X155371623Y-124440065D01*
X155337593Y-123140510D01*
X156837079Y-123101245D01*
X156837079Y-123101245D01*
G37*
G36*
X159570183Y-127129877D02*
X159536153Y-128429432D01*
X158036667Y-128390167D01*
X158070697Y-127090612D01*
X159570183Y-127129877D01*
X159570183Y-127129877D01*
G37*
G36*
X156871109Y-127059199D02*
X156837079Y-128358754D01*
X155337593Y-128319489D01*
X155371623Y-127019934D01*
X156871109Y-127059199D01*
X156871109Y-127059199D01*
G37*
G36*
X159389624Y-131225351D02*
X159287628Y-132521344D01*
X157792252Y-132403655D01*
X157894248Y-131107662D01*
X159389624Y-131225351D01*
X159389624Y-131225351D01*
G37*
G36*
X156697948Y-131013511D02*
X156595952Y-132309504D01*
X155100576Y-132191815D01*
X155202572Y-130895822D01*
X156697948Y-131013511D01*
X156697948Y-131013511D01*
G37*
G36*
X158994975Y-135305760D02*
X158825291Y-136594639D01*
X157338123Y-136398850D01*
X157507807Y-135109971D01*
X158994975Y-135305760D01*
X158994975Y-135305760D01*
G37*
G36*
X156318073Y-134953340D02*
X156148389Y-136242219D01*
X154661221Y-136046430D01*
X154830905Y-134757551D01*
X156318073Y-134953340D01*
X156318073Y-134953340D01*
G37*
G36*
X158387311Y-139359926D02*
X158150405Y-140638157D01*
X156675523Y-140364804D01*
X156912429Y-139086573D01*
X158387311Y-139359926D01*
X158387311Y-139359926D01*
G37*
G36*
X155732523Y-138867890D02*
X155495617Y-140146121D01*
X154020735Y-139872768D01*
X154257641Y-138594537D01*
X155732523Y-138867890D01*
X155732523Y-138867890D01*
G37*
G36*
X157568303Y-143376731D02*
X157264824Y-144640811D01*
X155806269Y-144290643D01*
X156109748Y-143026563D01*
X157568303Y-143376731D01*
X157568303Y-143376731D01*
G37*
G36*
X154942905Y-142746429D02*
X154639426Y-144010509D01*
X153180871Y-143660341D01*
X153484350Y-142396261D01*
X154942905Y-142746429D01*
X154942905Y-142746429D01*
G37*
G36*
X156540195Y-147345169D02*
X156170975Y-148591634D01*
X154732745Y-148165611D01*
X155101965Y-146919146D01*
X156540195Y-147345169D01*
X156540195Y-147345169D01*
G37*
G36*
X153951381Y-146578327D02*
X153582161Y-147824792D01*
X152143931Y-147398769D01*
X152513151Y-146152304D01*
X153951381Y-146578327D01*
X153951381Y-146578327D01*
G37*
G36*
X166711699Y-99798792D02*
X167052199Y-100948302D01*
X165902689Y-101288802D01*
X165562189Y-100139292D01*
X166711699Y-99798792D01*
X166711699Y-99798792D01*
G37*
G36*
X164700057Y-100394668D02*
X165040557Y-101544178D01*
X163891047Y-101884678D01*
X163550547Y-100735168D01*
X164700057Y-100394668D01*
X164700057Y-100394668D01*
G37*
G36*
X167951752Y-104305479D02*
X168231625Y-105471234D01*
X167065870Y-105751107D01*
X166785997Y-104585352D01*
X167951752Y-104305479D01*
X167951752Y-104305479D01*
G37*
G36*
X165911682Y-104795257D02*
X166191555Y-105961012D01*
X165025800Y-106240885D01*
X164745927Y-105075130D01*
X165911682Y-104795257D01*
X165911682Y-104795257D01*
G37*
G36*
X168954244Y-108870889D02*
X169172723Y-110049694D01*
X167993918Y-110268173D01*
X167775439Y-109089368D01*
X168954244Y-108870889D01*
X168954244Y-108870889D01*
G37*
G36*
X166891336Y-109253227D02*
X167109815Y-110432032D01*
X165931010Y-110650511D01*
X165712531Y-109471706D01*
X166891336Y-109253227D01*
X166891336Y-109253227D01*
G37*
G36*
X169716427Y-113482510D02*
X169872912Y-114671133D01*
X168684289Y-114827618D01*
X168527804Y-113638995D01*
X169716427Y-113482510D01*
X169716427Y-113482510D01*
G37*
G36*
X167636337Y-113756360D02*
X167792822Y-114944983D01*
X166604199Y-115101468D01*
X166447714Y-113912845D01*
X167636337Y-113756360D01*
X167636337Y-113756360D01*
G37*
G36*
X170236212Y-118127700D02*
X170330275Y-119322885D01*
X169135090Y-119416948D01*
X169041027Y-118221763D01*
X170236212Y-118127700D01*
X170236212Y-118127700D01*
G37*
G36*
X168144640Y-118292310D02*
X168238703Y-119487495D01*
X167043518Y-119581558D01*
X166949455Y-118386373D01*
X168144640Y-118292310D01*
X168144640Y-118292310D01*
G37*
G36*
X170512175Y-122793728D02*
X170543558Y-123992197D01*
X169345089Y-124023580D01*
X169313706Y-122825111D01*
X170512175Y-122793728D01*
X170512175Y-122793728D01*
G37*
G36*
X168414853Y-122848648D02*
X168446236Y-124047117D01*
X167247767Y-124078500D01*
X167216384Y-122880031D01*
X168414853Y-122848648D01*
X168414853Y-122848648D01*
G37*
G36*
X170543558Y-127467802D02*
X170512175Y-128666271D01*
X169313706Y-128634888D01*
X169345089Y-127436419D01*
X170543558Y-127467802D01*
X170543558Y-127467802D01*
G37*
G36*
X168446236Y-127412882D02*
X168414853Y-128611351D01*
X167216384Y-128579968D01*
X167247767Y-127381499D01*
X168446236Y-127412882D01*
X168446236Y-127412882D01*
G37*
G36*
X170330275Y-132137114D02*
X170236212Y-133332299D01*
X169041027Y-133238236D01*
X169135090Y-132043051D01*
X170330275Y-132137114D01*
X170330275Y-132137114D01*
G37*
G36*
X168238703Y-131972504D02*
X168144640Y-133167689D01*
X166949455Y-133073626D01*
X167043518Y-131878441D01*
X168238703Y-131972504D01*
X168238703Y-131972504D01*
G37*
G36*
X169872912Y-136788866D02*
X169716427Y-137977489D01*
X168527804Y-137821004D01*
X168684289Y-136632381D01*
X169872912Y-136788866D01*
X169872912Y-136788866D01*
G37*
G36*
X167792822Y-136515016D02*
X167636337Y-137703639D01*
X166447714Y-137547154D01*
X166604199Y-136358531D01*
X167792822Y-136515016D01*
X167792822Y-136515016D01*
G37*
G36*
X169172723Y-141410305D02*
X168954244Y-142589110D01*
X167775439Y-142370631D01*
X167993918Y-141191826D01*
X169172723Y-141410305D01*
X169172723Y-141410305D01*
G37*
G36*
X167109815Y-141027967D02*
X166891336Y-142206772D01*
X165712531Y-141988293D01*
X165931010Y-140809488D01*
X167109815Y-141027967D01*
X167109815Y-141027967D01*
G37*
G36*
X168231625Y-145988765D02*
X167951752Y-147154520D01*
X166785997Y-146874647D01*
X167065870Y-145708892D01*
X168231625Y-145988765D01*
X168231625Y-145988765D01*
G37*
G36*
X166191555Y-145498987D02*
X165911682Y-146664742D01*
X164745927Y-146384869D01*
X165025800Y-145219114D01*
X166191555Y-145498987D01*
X166191555Y-145498987D01*
G37*
G36*
X167052199Y-150511697D02*
X166711699Y-151661207D01*
X165562189Y-151320707D01*
X165902689Y-150171197D01*
X167052199Y-150511697D01*
X167052199Y-150511697D01*
G37*
G36*
X165040557Y-149915821D02*
X164700057Y-151065331D01*
X163550547Y-150724831D01*
X163891047Y-149575321D01*
X165040557Y-149915821D01*
X165040557Y-149915821D01*
G37*
D46*
X72364600Y-146786600D03*
D47*
X75064620Y-144086580D03*
X69664580Y-144086580D03*
X69664580Y-149486620D03*
X75064620Y-149486620D03*
D48*
X78282800Y-137160000D03*
X68072000Y-96393000D03*
X71247000Y-86487000D03*
X102997000Y-96901000D03*
X107188000Y-87360110D03*
X146685000Y-96901000D03*
X143604000Y-86901000D03*
X94736933Y-104343269D03*
X115570000Y-134508890D03*
X106426000Y-121539000D03*
X120142000Y-143510000D03*
X113665000Y-140208000D03*
X83566000Y-108966000D03*
X97028000Y-108712000D03*
X90297000Y-110744000D03*
X96393000Y-110617000D03*
X93101000Y-107325000D03*
X94234000Y-108458000D03*
X84328000Y-137160000D03*
X73406000Y-137160000D03*
X91948000Y-111252000D03*
X99568000Y-109474000D03*
X95250000Y-111252000D03*
X68072000Y-111252000D03*
X60960000Y-108966000D03*
X61214000Y-103886000D03*
X139700000Y-139065000D03*
X89154000Y-135255000D03*
X115951000Y-103378000D03*
X96520000Y-105029000D03*
X89027000Y-103632000D03*
X83439000Y-106680000D03*
X80772000Y-97536000D03*
X69596000Y-96266000D03*
X69596000Y-94361000D03*
X106000000Y-97520110D03*
X104902000Y-94869000D03*
X106000000Y-96266000D03*
X142322000Y-97520110D03*
X142322000Y-96266000D03*
X140589000Y-95758000D03*
X131191000Y-109982000D03*
X116205000Y-113030000D03*
X119195810Y-108712000D03*
X149098000Y-120904000D03*
X169926000Y-126492000D03*
X113030000Y-139319000D03*
X112389000Y-134493000D03*
X68703000Y-113602000D03*
X70317000Y-117643000D03*
X73279000Y-122478800D03*
X59893200Y-128244600D03*
X67995800Y-122097800D03*
X113665000Y-110617000D03*
X85852000Y-114808000D03*
X125206103Y-104510882D03*
X167894000Y-106553000D03*
X149733000Y-136906000D03*
X129794000Y-141351000D03*
X130683000Y-133985000D03*
X166751000Y-149479000D03*
X167894000Y-144907000D03*
X169418000Y-135763000D03*
X168783000Y-140335000D03*
X149225000Y-123190000D03*
X169799000Y-131064000D03*
X116942173Y-111889219D03*
X113792000Y-111760000D03*
X61976000Y-105410000D03*
X169926000Y-125095000D03*
X156083000Y-121793000D03*
X117348000Y-108077000D03*
X113538000Y-109220000D03*
X64684000Y-110342996D03*
X169799000Y-120396000D03*
X124299951Y-104521000D03*
X169418000Y-115697000D03*
X153035000Y-129667000D03*
X168783000Y-111125000D03*
X90678000Y-123698000D03*
X81661000Y-116205000D03*
X148971000Y-130810000D03*
X106426000Y-129921000D03*
X88900000Y-133731000D03*
X166751000Y-102108000D03*
X102108000Y-113030000D03*
X99187000Y-115697000D03*
X114867000Y-92075000D03*
X79121000Y-91186000D03*
X150471764Y-91821000D03*
X98298000Y-105156000D03*
X94615000Y-118745000D03*
X93980000Y-104548270D03*
X125857000Y-86233000D03*
X125857000Y-96266000D03*
X115697000Y-86233000D03*
X78486000Y-87757000D03*
X150749000Y-88138000D03*
X81280000Y-107696000D03*
X90424000Y-107696000D03*
X130810000Y-143510000D03*
X104521000Y-146177000D03*
X124206000Y-107315000D03*
X149225000Y-145796000D03*
X123061740Y-108204000D03*
X149606000Y-141986000D03*
X78359000Y-90043000D03*
X114427000Y-90297000D03*
X151003000Y-89408000D03*
X148336000Y-98298000D03*
X143256000Y-111125000D03*
X91694000Y-125349000D03*
X81661000Y-121285000D03*
X115062000Y-113157000D03*
X118110000Y-103759000D03*
X112395000Y-118999000D03*
X110363000Y-121031000D03*
X139573000Y-134620000D03*
X91567000Y-124460000D03*
X81788000Y-118745000D03*
X61036200Y-124993400D03*
X92456000Y-126238000D03*
D49*
X83500000Y-117475000D02*
X79908400Y-117475000D01*
X79908400Y-117475000D02*
X77041390Y-120342010D01*
X77041390Y-120342010D02*
X72164590Y-120342010D01*
X72164590Y-120342010D02*
X68605400Y-123901200D01*
X68605400Y-123901200D02*
X68605400Y-125914867D01*
X68605400Y-125914867D02*
X66326467Y-128193800D01*
X66326467Y-128193800D02*
X62966600Y-128193800D01*
X62966600Y-128193800D02*
X61821060Y-129339340D01*
X61821060Y-129339340D02*
X56299100Y-129339340D01*
X68072000Y-125806200D02*
X66738500Y-127139700D01*
X66738500Y-127139700D02*
X56299100Y-127139700D01*
X68072000Y-123698000D02*
X68072000Y-125806200D01*
X71882000Y-119888000D02*
X68072000Y-123698000D01*
X81788000Y-114942066D02*
X82669934Y-114942066D01*
X82669934Y-114942066D02*
X82677000Y-114935000D01*
X76842066Y-119888000D02*
X81788000Y-114942066D01*
X83500000Y-114935000D02*
X82677000Y-114935000D01*
X71882000Y-119888000D02*
X76842066Y-119888000D01*
X155636470Y-147755390D02*
X164295552Y-150320326D01*
X156687286Y-143833687D02*
X165468741Y-145941928D01*
X157531417Y-139862365D02*
X166411173Y-141508130D01*
X158166549Y-135852305D02*
X167120268Y-137031085D01*
X158590938Y-131814503D02*
X167594079Y-132523065D01*
X158803425Y-127760022D02*
X167831310Y-127996425D01*
X158803425Y-123699977D02*
X167831310Y-123463574D01*
X158590938Y-119645496D02*
X167594079Y-118936934D01*
X158166549Y-115607694D02*
X167120268Y-114428914D01*
X157531417Y-111597634D02*
X166411173Y-109951869D01*
X156687286Y-107626312D02*
X165468741Y-105518071D01*
X155636470Y-103704609D02*
X164295552Y-101139673D01*
X78282800Y-125780800D02*
X78282800Y-137160000D01*
X81508600Y-122555000D02*
X78282800Y-125780800D01*
X83500000Y-122555000D02*
X81508600Y-122555000D01*
X64846200Y-121564400D02*
X66598800Y-123317000D01*
X66598800Y-123317000D02*
X66598800Y-124688600D01*
X56227980Y-121564400D02*
X64846200Y-121564400D01*
X53449220Y-123139200D02*
X54653180Y-123139200D01*
X54653180Y-123139200D02*
X56227980Y-121564400D01*
X66598800Y-135114030D02*
X65324990Y-136387840D01*
X65324990Y-136387840D02*
X52349400Y-136387840D01*
X66598800Y-130489960D02*
X66598800Y-135114030D01*
X66598800Y-135114030D02*
X69739510Y-138254740D01*
X69739510Y-138254740D02*
X70993000Y-138254740D01*
X52349400Y-136387840D02*
X52349400Y-129413000D01*
X52349400Y-129413000D02*
X55722520Y-126039880D01*
X55722520Y-126039880D02*
X56098440Y-126039880D01*
X53449220Y-123139200D02*
X53449220Y-124092970D01*
X53449220Y-124092970D02*
X55396130Y-126039880D01*
X55396130Y-126039880D02*
X56098440Y-126039880D01*
X102997000Y-96901000D02*
X89954100Y-96901000D01*
X89954100Y-96901000D02*
X89789000Y-97066100D01*
X89789000Y-97066100D02*
X83598100Y-97066100D01*
X83598100Y-97066100D02*
X83344000Y-96812000D01*
X83344000Y-96812000D02*
X83344000Y-95758000D01*
X105001989Y-96901000D02*
X102997000Y-96901000D01*
X141467371Y-96901000D02*
X146685000Y-96901000D01*
X151263000Y-96901000D02*
X146685000Y-96901000D01*
X71247000Y-87678000D02*
X71247000Y-86487000D01*
X71214000Y-88265000D02*
X71214000Y-87711000D01*
X71214000Y-87711000D02*
X71247000Y-87678000D01*
X71036000Y-95250000D02*
X69215000Y-95250000D01*
X69215000Y-95250000D02*
X68072000Y-96393000D01*
X68072000Y-96393000D02*
X68072000Y-97282000D01*
X68072000Y-97282000D02*
X69088000Y-98298000D01*
X69088000Y-98298000D02*
X75940000Y-98298000D01*
X75940000Y-98298000D02*
X77216000Y-99574000D01*
X107188000Y-87617000D02*
X107188000Y-87360110D01*
X107282000Y-88265000D02*
X107282000Y-87711000D01*
X107282000Y-87711000D02*
X107188000Y-87617000D01*
X105001989Y-96901000D02*
X116276182Y-96901000D01*
X116276182Y-96901000D02*
X140775482Y-96901000D01*
X116300000Y-94742000D02*
X116300000Y-95796000D01*
X116300000Y-95796000D02*
X116276182Y-95819818D01*
X116276182Y-95819818D02*
X116276182Y-96901000D01*
X116300000Y-94742000D02*
X117554000Y-94742000D01*
X117554000Y-94742000D02*
X119412000Y-94742000D01*
X140775482Y-96901000D02*
X141467371Y-96901000D01*
X143426000Y-94996000D02*
X142367000Y-94996000D01*
X142367000Y-94996000D02*
X141467371Y-95895629D01*
X141467371Y-95895629D02*
X141467371Y-96901000D01*
X143604000Y-88011000D02*
X143604000Y-86901000D01*
X94736933Y-104343269D02*
X94701000Y-105950000D01*
X94701000Y-104353000D02*
X94727202Y-104353000D01*
X94727202Y-104353000D02*
X94736933Y-104343269D01*
X107104000Y-94996000D02*
X106320000Y-94996000D01*
X106320000Y-94996000D02*
X105001989Y-96314011D01*
X105001989Y-96314011D02*
X105001989Y-96901000D01*
X152368000Y-94742000D02*
X153622000Y-94742000D01*
X153622000Y-94742000D02*
X155480000Y-94742000D01*
X151263000Y-96901000D02*
X152368000Y-95796000D01*
X152368000Y-95796000D02*
X152368000Y-94742000D01*
X79978000Y-95758000D02*
X83344000Y-95758000D01*
X77216000Y-99574000D02*
X77216000Y-101600000D01*
X79978000Y-95758000D02*
X79978000Y-96812000D01*
X79978000Y-96812000D02*
X77216000Y-99574000D01*
X155489647Y-115960114D02*
X153924000Y-117856000D01*
X154178000Y-122301000D02*
X156104351Y-123770655D01*
X153924000Y-117856000D02*
X154178000Y-122301000D01*
X155489647Y-115960114D02*
X155438886Y-115960114D01*
X149733000Y-140589000D02*
X148844000Y-141478000D01*
X148844000Y-141478000D02*
X148844000Y-143891000D01*
X149733000Y-138684000D02*
X149733000Y-140589000D01*
X149987000Y-138430000D02*
X149733000Y-138684000D01*
X150495000Y-138430000D02*
X149987000Y-138430000D01*
X154876629Y-139370329D02*
X150495000Y-138430000D01*
X148844000Y-143891000D02*
X147320000Y-144780000D01*
X115570000Y-133864000D02*
X115570000Y-134508890D01*
X115570000Y-134620000D02*
X115570000Y-134508890D01*
X115665000Y-132715000D02*
X115665000Y-133769000D01*
X115665000Y-133769000D02*
X115570000Y-133864000D01*
X156104351Y-123770655D02*
X156104351Y-127689344D01*
X156104351Y-127689344D02*
X155899262Y-131602663D01*
X155899262Y-131602663D02*
X155489647Y-135499885D01*
X155489647Y-135499885D02*
X154876629Y-139370329D01*
X155489647Y-115960114D02*
X154876629Y-112089670D01*
X154876629Y-112089670D02*
X154061888Y-108256614D01*
X154061888Y-108256614D02*
X153047656Y-104471451D01*
X106426000Y-118316000D02*
X106426000Y-121539000D01*
X106426000Y-117062000D02*
X106426000Y-118316000D01*
X116840000Y-127000000D02*
X116840000Y-128077630D01*
X116840000Y-128077630D02*
X117770000Y-129007630D01*
X117770000Y-129007630D02*
X117770000Y-130810000D01*
X117770000Y-130810000D02*
X117990980Y-131030980D01*
X117990980Y-131030980D02*
X119809260Y-131030980D01*
X115665000Y-132715000D02*
X115865000Y-132715000D01*
X115865000Y-132715000D02*
X117770000Y-130810000D01*
X120142000Y-143510000D02*
X120142000Y-144056000D01*
X120142000Y-144056000D02*
X120866000Y-144780000D01*
X120866000Y-144780000D02*
X121920000Y-144780000D01*
X115232000Y-140208000D02*
X113665000Y-140208000D01*
X142367000Y-146685000D02*
X142875000Y-146685000D01*
X142875000Y-146685000D02*
X144780000Y-144780000D01*
X147320000Y-144780000D02*
X144780000Y-144780000D01*
X142367000Y-146685000D02*
X137033000Y-146685000D01*
X132461000Y-144780000D02*
X134366000Y-146685000D01*
X134366000Y-146685000D02*
X137033000Y-146685000D01*
X127000000Y-144780000D02*
X132461000Y-144780000D01*
X121920000Y-144780000D02*
X122974000Y-144780000D01*
X122974000Y-144780000D02*
X127000000Y-144780000D01*
X83566000Y-108966000D02*
X84328000Y-109728000D01*
X84328000Y-109728000D02*
X86106000Y-109728000D01*
X95726000Y-108275000D02*
X96591000Y-108275000D01*
X96591000Y-108275000D02*
X97028000Y-108712000D01*
X100330000Y-112395000D02*
X100330000Y-111152270D01*
X100330000Y-111152270D02*
X99032730Y-109855000D01*
X99032730Y-109855000D02*
X98171000Y-109855000D01*
X98171000Y-109855000D02*
X97028000Y-108712000D01*
X93020000Y-112070000D02*
X92751000Y-111801000D01*
X92751000Y-111801000D02*
X92751000Y-109950000D01*
X93401000Y-112070000D02*
X93020000Y-112070000D01*
X93528000Y-112197000D02*
X93401000Y-112070000D01*
X93401000Y-112070000D02*
X93401000Y-109950000D01*
X94051000Y-112197000D02*
X93528000Y-112197000D01*
X90297000Y-110744000D02*
X89662000Y-110744000D01*
X89662000Y-110744000D02*
X88646000Y-109728000D01*
X96393000Y-111025270D02*
X96393000Y-110617000D01*
X94051000Y-112197000D02*
X95221270Y-112197000D01*
X95221270Y-112197000D02*
X96393000Y-111025270D01*
X100330000Y-120650000D02*
X101334000Y-120650000D01*
X101334000Y-120650000D02*
X101568000Y-120416000D01*
X101568000Y-120416000D02*
X101568000Y-117062000D01*
X106426000Y-117062000D02*
X103759000Y-117062000D01*
X100330000Y-115824000D02*
X101568000Y-117062000D01*
X101568000Y-117062000D02*
X103759000Y-117062000D01*
X100330000Y-112395000D02*
X100330000Y-115824000D01*
X93101000Y-107325000D02*
X94351000Y-107325000D01*
X94351000Y-107325000D02*
X94351000Y-108575000D01*
X94351000Y-108575000D02*
X93101000Y-108575000D01*
X93101000Y-108575000D02*
X93101000Y-107325000D01*
X94351000Y-108575000D02*
X93101000Y-107325000D01*
X94351000Y-108575000D02*
X94234000Y-108458000D01*
X94051000Y-109950000D02*
X94051000Y-112197000D01*
X70993000Y-138254740D02*
X72311260Y-138254740D01*
X84734400Y-136753600D02*
X86995000Y-136753600D01*
X84328000Y-137160000D02*
X84734400Y-136753600D01*
X72311260Y-138254740D02*
X73406000Y-137160000D01*
X90710000Y-129540000D02*
X90710000Y-130778000D01*
X90710000Y-130778000D02*
X89916000Y-131572000D01*
X89916000Y-131572000D02*
X89916000Y-135636000D01*
X89916000Y-135636000D02*
X88798400Y-136753600D01*
X88798400Y-136753600D02*
X86995000Y-136753600D01*
X88646000Y-109728000D02*
X86106000Y-109728000D01*
X77216000Y-101600000D02*
X77216000Y-102616000D01*
X77216000Y-102616000D02*
X75946000Y-103886000D01*
X75946000Y-103886000D02*
X72390000Y-103886000D01*
X72390000Y-103886000D02*
X68580000Y-107696000D01*
X68580000Y-107696000D02*
X67564000Y-107696000D01*
X67564000Y-107696000D02*
X66040000Y-109220000D01*
X62992000Y-116332000D02*
X61722000Y-117602000D01*
X62992000Y-114046000D02*
X62992000Y-116332000D01*
X66040000Y-110998000D02*
X62992000Y-114046000D01*
X66040000Y-109220000D02*
X66040000Y-110998000D01*
X58420000Y-105140760D02*
X58420000Y-110583980D01*
X58420000Y-110583980D02*
X56339740Y-112664240D01*
X62484000Y-107950000D02*
X61229240Y-107950000D01*
X61229240Y-107950000D02*
X58420000Y-105140760D01*
X67437000Y-117602000D02*
X61722000Y-117602000D01*
X61722000Y-117602000D02*
X60452000Y-117602000D01*
X60452000Y-117602000D02*
X60325000Y-117475000D01*
X83500000Y-122555000D02*
X83185000Y-122555000D01*
X68580000Y-117602000D02*
X69850000Y-118872000D01*
X69850000Y-118872000D02*
X72733000Y-118872000D01*
X72733000Y-118872000D02*
X74003000Y-117602000D01*
X74003000Y-117602000D02*
X75057000Y-117602000D01*
X69088000Y-117094000D02*
X69088000Y-115827000D01*
X69088000Y-115827000D02*
X69533000Y-115382000D01*
X69533000Y-115382000D02*
X70317000Y-115382000D01*
X68580000Y-117602000D02*
X69088000Y-117094000D01*
X67437000Y-117602000D02*
X68580000Y-117602000D01*
X56339740Y-117464840D02*
X56339740Y-119555260D01*
X53340000Y-120068340D02*
X53340000Y-119164100D01*
X53921660Y-120650000D02*
X53340000Y-120068340D01*
X55245000Y-120650000D02*
X53921660Y-120650000D01*
X56339740Y-119555260D02*
X55245000Y-120650000D01*
X53139340Y-116464080D02*
X53139340Y-118963440D01*
X53139340Y-118963440D02*
X53340000Y-119164100D01*
X53975000Y-109220000D02*
X53340000Y-109855000D01*
X56339740Y-112664240D02*
X56339740Y-110314740D01*
X56339740Y-110314740D02*
X55245000Y-109220000D01*
X55245000Y-109220000D02*
X53975000Y-109220000D01*
X53340000Y-109855000D02*
X53340000Y-110964980D01*
X53139340Y-113665000D02*
X53139340Y-111165640D01*
X53139340Y-111165640D02*
X53340000Y-110964980D01*
X56240680Y-116365020D02*
X59215020Y-116365020D01*
X59215020Y-116365020D02*
X60325000Y-117475000D01*
X56240680Y-116365020D02*
X53238400Y-116365020D01*
X53238400Y-116365020D02*
X53139340Y-116464080D01*
X53139340Y-113665000D02*
X53139340Y-114819430D01*
X53139340Y-114819430D02*
X53139340Y-116464080D01*
X68580000Y-141461508D02*
X68580000Y-140168630D01*
X68580000Y-140168630D02*
X70493890Y-138254740D01*
X70493890Y-138254740D02*
X70993000Y-138254740D01*
X69689980Y-143984980D02*
X69689980Y-142571488D01*
X69689980Y-142571488D02*
X68580000Y-141461508D01*
X69689980Y-143984980D02*
X69689980Y-145398472D01*
X69689980Y-145398472D02*
X69689980Y-149385020D01*
X75090020Y-149385020D02*
X73676528Y-149385020D01*
X73676528Y-149385020D02*
X69689980Y-149385020D01*
X75090020Y-143984980D02*
X75090020Y-145398472D01*
X75090020Y-145398472D02*
X75090020Y-149385020D01*
X69392800Y-126619000D02*
X69392800Y-123977400D01*
X69392800Y-123977400D02*
X72313800Y-121056400D01*
X67132200Y-128879600D02*
X69392800Y-126619000D01*
X65506600Y-128879600D02*
X67132200Y-128879600D01*
X63947040Y-130439160D02*
X65506600Y-128879600D01*
X56697880Y-130439160D02*
X63947040Y-130439160D01*
X80365600Y-121056400D02*
X72313800Y-121056400D01*
X81407000Y-120015000D02*
X80365600Y-121056400D01*
X83500000Y-120015000D02*
X81407000Y-120015000D01*
X73236000Y-94300000D02*
X75574000Y-94300000D01*
X75574000Y-94300000D02*
X75978000Y-94704000D01*
X75978000Y-94704000D02*
X75978000Y-95758000D01*
X71214000Y-92075000D02*
X71689000Y-92075000D01*
X71689000Y-92075000D02*
X73236000Y-93622000D01*
X73236000Y-93622000D02*
X73236000Y-94300000D01*
X76575000Y-94107000D02*
X80625000Y-94107000D01*
X80625000Y-94107000D02*
X83546000Y-91186000D01*
X83546000Y-91186000D02*
X83646000Y-91186000D01*
X75978000Y-94704000D02*
X76575000Y-94107000D01*
X83646000Y-91186000D02*
X83826000Y-91186000D01*
X83826000Y-91186000D02*
X87344000Y-94704000D01*
X87344000Y-94704000D02*
X87344000Y-95758000D01*
X83646000Y-89027000D02*
X83646000Y-91186000D01*
X109304000Y-94046000D02*
X111604000Y-94046000D01*
X111604000Y-94046000D02*
X112300000Y-94742000D01*
X107282000Y-92075000D02*
X107912000Y-92075000D01*
X107912000Y-92075000D02*
X109304000Y-93467000D01*
X109304000Y-93467000D02*
X109304000Y-94046000D01*
X119968000Y-90678000D02*
X119968000Y-91582000D01*
X119968000Y-91582000D02*
X118459000Y-93091000D01*
X118459000Y-93091000D02*
X112897000Y-93091000D01*
X112897000Y-93091000D02*
X112300000Y-93688000D01*
X112300000Y-93688000D02*
X112300000Y-94742000D01*
X121158000Y-90678000D02*
X123412000Y-92932000D01*
X123412000Y-92932000D02*
X123412000Y-94742000D01*
X119968000Y-90678000D02*
X121158000Y-90678000D01*
X119968000Y-88392000D02*
X119968000Y-90678000D01*
X148368000Y-94742000D02*
X148590000Y-94742000D01*
X148590000Y-94742000D02*
X150622000Y-92710000D01*
X155301000Y-90424000D02*
X155401000Y-90424000D01*
X150622000Y-92710000D02*
X153015000Y-92710000D01*
X153015000Y-92710000D02*
X155301000Y-90424000D01*
X156718000Y-90424000D02*
X155401000Y-90424000D01*
X155401000Y-88138000D02*
X155401000Y-90424000D01*
X156718000Y-90424000D02*
X159480000Y-93186000D01*
X159480000Y-93186000D02*
X159480000Y-94742000D01*
X145626000Y-94046000D02*
X147672000Y-94046000D01*
X147672000Y-94046000D02*
X148368000Y-94742000D01*
X143604000Y-91821000D02*
X144633000Y-91821000D01*
X144633000Y-91821000D02*
X145626000Y-92814000D01*
X145626000Y-92814000D02*
X145626000Y-93467000D01*
X145626000Y-93467000D02*
X145626000Y-94046000D01*
X91915000Y-114300000D02*
X91915000Y-111285000D01*
X91915000Y-111285000D02*
X91948000Y-111252000D01*
X90424000Y-109728000D02*
X91948000Y-111252000D01*
X89700000Y-105728000D02*
X89916000Y-105944000D01*
X88646000Y-105728000D02*
X89700000Y-105728000D01*
X89804899Y-107398831D02*
X89804899Y-108346899D01*
X89916000Y-107287730D02*
X89804899Y-107398831D01*
X89916000Y-105944000D02*
X89916000Y-107287730D01*
X89804899Y-108346899D02*
X90424000Y-108966000D01*
X90424000Y-108966000D02*
X90424000Y-109728000D01*
X100490000Y-106680000D02*
X100490000Y-108552000D01*
X100490000Y-108552000D02*
X99568000Y-109474000D01*
X94701000Y-110703000D02*
X94701000Y-109950000D01*
X95250000Y-111252000D02*
X94701000Y-110703000D01*
X72946260Y-107950000D02*
X72946260Y-105107740D01*
X82360000Y-105728000D02*
X86106000Y-105728000D01*
X81280000Y-104648000D02*
X82360000Y-105728000D01*
X73406000Y-104648000D02*
X81280000Y-104648000D01*
X72946260Y-105107740D02*
X73406000Y-104648000D01*
X72946260Y-107950000D02*
X72136000Y-107188000D01*
X72136000Y-107188000D02*
X68072000Y-111252000D01*
X86106000Y-105728000D02*
X88646000Y-105728000D01*
X58420000Y-103139240D02*
X60467240Y-103139240D01*
X61026000Y-108900000D02*
X62484000Y-108900000D01*
X60960000Y-108966000D02*
X61026000Y-108900000D01*
X60467240Y-103139240D02*
X61214000Y-103886000D01*
X139700000Y-139065000D02*
X138430000Y-140335000D01*
X138430000Y-140335000D02*
X137160000Y-140335000D01*
X94710000Y-129540000D02*
X94710000Y-130334000D01*
X94710000Y-130334000D02*
X90932000Y-134112000D01*
X90932000Y-134112000D02*
X90424000Y-136398000D01*
X90424000Y-136398000D02*
X90424000Y-136398000D01*
X90424000Y-136398000D02*
X90424000Y-138176000D01*
X90424000Y-138176000D02*
X88846660Y-139753340D01*
X88846660Y-139753340D02*
X86995000Y-139753340D01*
X86995000Y-139753340D02*
X86995000Y-142875000D01*
X68072000Y-92170000D02*
X65644000Y-92170000D01*
X65644000Y-92170000D02*
X65358000Y-92456000D01*
X71214000Y-90805000D02*
X69237000Y-90805000D01*
X69237000Y-90805000D02*
X68072000Y-91970000D01*
X68072000Y-91970000D02*
X68072000Y-92170000D01*
X65358000Y-88138000D02*
X68040000Y-88138000D01*
X68040000Y-88138000D02*
X68072000Y-88170000D01*
X71214000Y-89535000D02*
X69237000Y-89535000D01*
X69237000Y-89535000D02*
X68072000Y-88370000D01*
X68072000Y-88370000D02*
X68072000Y-88170000D01*
X101934000Y-93218000D02*
X103981000Y-93218000D01*
X103981000Y-93218000D02*
X104648000Y-92551000D01*
X107282000Y-90805000D02*
X106194000Y-90805000D01*
X106194000Y-90805000D02*
X104648000Y-92351000D01*
X104648000Y-92351000D02*
X104648000Y-92551000D01*
X107282000Y-89535000D02*
X105632000Y-89535000D01*
X105632000Y-89535000D02*
X104648000Y-88551000D01*
X101934000Y-88900000D02*
X104299000Y-88900000D01*
X104299000Y-88900000D02*
X104648000Y-88551000D01*
X138256000Y-91694000D02*
X140748000Y-91694000D01*
X140748000Y-91694000D02*
X140970000Y-91916000D01*
X143604000Y-90551000D02*
X142135000Y-90551000D01*
X142135000Y-90551000D02*
X140970000Y-91716000D01*
X140970000Y-91716000D02*
X140970000Y-91916000D01*
X138002000Y-87630000D02*
X140684000Y-87630000D01*
X140684000Y-87630000D02*
X140970000Y-87916000D01*
X140970000Y-87916000D02*
X140970000Y-88116000D01*
X140970000Y-88116000D02*
X142135000Y-89281000D01*
X142135000Y-89281000D02*
X142575000Y-89281000D01*
X142575000Y-89281000D02*
X143604000Y-89281000D01*
X62658000Y-92456000D02*
X58732420Y-92456000D01*
X58732420Y-92456000D02*
X55684420Y-89408000D01*
X62658000Y-88138000D02*
X60452000Y-88138000D01*
X60452000Y-88138000D02*
X59182000Y-89408000D01*
X92260420Y-89916000D02*
X92260420Y-91187604D01*
X92260420Y-91187604D02*
X94290816Y-93218000D01*
X94290816Y-93218000D02*
X98230000Y-93218000D01*
X98230000Y-93218000D02*
X99234000Y-93218000D01*
X95758000Y-89916000D02*
X96774000Y-88900000D01*
X96774000Y-88900000D02*
X99234000Y-88900000D01*
X135556000Y-91694000D02*
X130810000Y-91694000D01*
X130810000Y-91694000D02*
X128524000Y-89408000D01*
X135302000Y-87630000D02*
X133799580Y-87630000D01*
X133799580Y-87630000D02*
X132021580Y-89408000D01*
X74295000Y-140970000D02*
X72390000Y-142875000D01*
X72390000Y-142875000D02*
X72390000Y-146685000D01*
X74295000Y-128304290D02*
X74295000Y-140970000D01*
X72246490Y-126255780D02*
X74295000Y-128304290D01*
X70993000Y-126255780D02*
X72246490Y-126255780D01*
X111887000Y-108684000D02*
X111752440Y-108684000D01*
X111752440Y-108684000D02*
X111633000Y-108803440D01*
X111633000Y-108803440D02*
X111633000Y-110383320D01*
X112903000Y-107823000D02*
X112748000Y-107823000D01*
X112748000Y-107823000D02*
X111887000Y-108684000D01*
X88248490Y-135255000D02*
X89154000Y-135255000D01*
X86995000Y-135255000D02*
X88248490Y-135255000D01*
X115951000Y-103378000D02*
X116812730Y-103378000D01*
X116812730Y-103378000D02*
X117812831Y-104378101D01*
X117812831Y-104378101D02*
X118070011Y-104378101D01*
X96520000Y-105029000D02*
X96520000Y-105442091D01*
X96520000Y-105442091D02*
X96647000Y-105569091D01*
X96647000Y-105569091D02*
X96647000Y-106708000D01*
X96647000Y-106708000D02*
X96380000Y-106975000D01*
X96380000Y-106975000D02*
X95726000Y-106975000D01*
X118259860Y-105222000D02*
X118259860Y-104567950D01*
X118259860Y-104567950D02*
X118070011Y-104378101D01*
X92710000Y-103632000D02*
X89027000Y-103632000D01*
X93218000Y-103124000D02*
X92710000Y-103632000D01*
X95631000Y-103124000D02*
X93218000Y-103124000D01*
X96266000Y-103759000D02*
X95631000Y-103124000D01*
X101600000Y-103759000D02*
X96266000Y-103759000D01*
X107855000Y-104553000D02*
X107061000Y-103759000D01*
X107061000Y-103759000D02*
X101600000Y-103759000D01*
X112903000Y-104553000D02*
X107855000Y-104553000D01*
X83439000Y-107696000D02*
X83439000Y-106680000D01*
X79883000Y-111252000D02*
X83439000Y-107696000D01*
X70993000Y-111252000D02*
X79883000Y-111252000D01*
X68995099Y-113249901D02*
X70993000Y-111252000D01*
X68703000Y-113602000D02*
X68995099Y-113309901D01*
X68995099Y-113309901D02*
X68995099Y-113249901D01*
X113141110Y-97520110D02*
X141493890Y-97520110D01*
X141493890Y-97520110D02*
X142322000Y-97520110D01*
X113767000Y-104553000D02*
X113767000Y-104546000D01*
X113767000Y-104546000D02*
X115697000Y-102616000D01*
X115697000Y-102616000D02*
X115697000Y-100076000D01*
X115697000Y-100076000D02*
X113141110Y-97520110D01*
X113141110Y-97520110D02*
X106000000Y-97520110D01*
X116336000Y-107122000D02*
X118259860Y-107122000D01*
X112903000Y-104553000D02*
X113767000Y-104553000D01*
X113767000Y-104553000D02*
X116336000Y-107122000D01*
X106000000Y-97520110D02*
X80787890Y-97520110D01*
X80787890Y-97520110D02*
X80772000Y-97536000D01*
X70186000Y-96266000D02*
X69596000Y-96266000D01*
X71036000Y-96200000D02*
X70252000Y-96200000D01*
X70252000Y-96200000D02*
X70186000Y-96266000D01*
X70191000Y-94361000D02*
X69596000Y-94361000D01*
X71036000Y-94300000D02*
X70252000Y-94300000D01*
X70252000Y-94300000D02*
X70191000Y-94361000D01*
X105497000Y-94869000D02*
X104902000Y-94869000D01*
X107104000Y-94046000D02*
X106320000Y-94046000D01*
X106320000Y-94046000D02*
X105497000Y-94869000D01*
X107104000Y-95946000D02*
X106320000Y-95946000D01*
X106320000Y-95946000D02*
X106000000Y-96266000D01*
X112748000Y-104553000D02*
X112716000Y-104521000D01*
X112903000Y-104553000D02*
X112748000Y-104553000D01*
X143426000Y-95946000D02*
X142642000Y-95946000D01*
X142642000Y-95946000D02*
X142322000Y-96266000D01*
X142301000Y-94046000D02*
X140589000Y-95758000D01*
X143426000Y-94046000D02*
X142301000Y-94046000D01*
X141986000Y-104394000D02*
X136779000Y-104394000D01*
X136779000Y-104394000D02*
X136398000Y-104775000D01*
X144780000Y-101600000D02*
X141986000Y-104394000D01*
X116205000Y-113030000D02*
X116205000Y-113657934D01*
X116205000Y-113657934D02*
X111665000Y-118197934D01*
X111665000Y-118197934D02*
X111665000Y-132715000D01*
X131191000Y-109982000D02*
X136398000Y-104775000D01*
X118259860Y-107122000D02*
X118259860Y-107776050D01*
X118259860Y-107776050D02*
X119195810Y-108712000D01*
X149098000Y-120904000D02*
X149390099Y-120611901D01*
X149390099Y-120611901D02*
X149390099Y-103416099D01*
X149390099Y-103416099D02*
X147574000Y-101600000D01*
X147574000Y-101600000D02*
X147320000Y-101600000D01*
X169928632Y-128051345D02*
X169926000Y-126492000D01*
X111665000Y-132715000D02*
X111665000Y-133769000D01*
X111665000Y-133769000D02*
X112389000Y-134493000D01*
X104775000Y-147574000D02*
X90678000Y-147574000D01*
X90678000Y-147574000D02*
X88900000Y-149352000D01*
X88900000Y-149352000D02*
X88900000Y-149860000D01*
X111760000Y-140589000D02*
X104775000Y-147574000D01*
X112395000Y-140589000D02*
X111760000Y-140589000D01*
X112395000Y-140589000D02*
X112964000Y-141158000D01*
X112964000Y-141158000D02*
X115232000Y-141158000D01*
X112395000Y-139827000D02*
X112395000Y-140589000D01*
X112964000Y-139258000D02*
X112395000Y-139827000D01*
X115232000Y-139258000D02*
X112964000Y-139258000D01*
X70317000Y-116332000D02*
X70317000Y-117643000D01*
X70317000Y-114432000D02*
X69533000Y-114432000D01*
X69533000Y-114432000D02*
X68703000Y-113602000D01*
X68703000Y-113602000D02*
X67437000Y-113602000D01*
X73279000Y-122478800D02*
X75328800Y-122478800D01*
X75328800Y-122478800D02*
X75405000Y-122555000D01*
X59893200Y-128244600D02*
X56103520Y-128244600D01*
X56103520Y-128244600D02*
X56098440Y-128239520D01*
X70713600Y-119380000D02*
X67995800Y-122097800D01*
X71374000Y-119380000D02*
X70713600Y-119380000D01*
X79248000Y-116840000D02*
X79248000Y-113665000D01*
X76708000Y-119380000D02*
X71374000Y-119380000D01*
X79248000Y-116840000D02*
X76708000Y-119380000D01*
X125206103Y-104510882D02*
X124914004Y-104802981D01*
X124914004Y-104802981D02*
X124914004Y-104821929D01*
X124914004Y-104821929D02*
X121785933Y-107950000D01*
X121785933Y-107950000D02*
X121031000Y-107950000D01*
X121031000Y-107950000D02*
X119141899Y-109839101D01*
X119141899Y-109839101D02*
X114442899Y-109839101D01*
X114442899Y-109839101D02*
X113665000Y-110617000D01*
X167508811Y-105028293D02*
X167894000Y-106553000D01*
X83500000Y-113665000D02*
X84709000Y-113665000D01*
X82550000Y-141130000D02*
X84295000Y-142875000D01*
X82550000Y-127508000D02*
X82550000Y-141130000D01*
X85852000Y-124206000D02*
X82550000Y-127508000D01*
X85852000Y-114808000D02*
X85852000Y-124206000D01*
X84709000Y-113665000D02*
X85852000Y-114808000D01*
X83500000Y-113665000D02*
X79248000Y-113665000D01*
X79248000Y-113665000D02*
X75120000Y-113665000D01*
X75120000Y-113665000D02*
X75057000Y-113602000D01*
X75057000Y-113602000D02*
X73552000Y-113602000D01*
X73552000Y-113602000D02*
X72722000Y-114432000D01*
X72722000Y-114432000D02*
X72517000Y-114432000D01*
X149225000Y-137414000D02*
X149733000Y-136906000D01*
X149225000Y-140081000D02*
X149225000Y-137414000D01*
X148336000Y-140970000D02*
X149225000Y-140081000D01*
X148082000Y-140970000D02*
X148336000Y-140970000D01*
X129794000Y-141351000D02*
X129794000Y-140589000D01*
X143383000Y-140970000D02*
X148082000Y-140970000D01*
X140843000Y-138430000D02*
X143383000Y-140970000D01*
X131953000Y-138430000D02*
X140843000Y-138430000D01*
X129794000Y-140589000D02*
X131953000Y-138430000D01*
X129794000Y-141351000D02*
X129223000Y-140780000D01*
X129223000Y-140780000D02*
X127000000Y-140780000D01*
X130683000Y-122273730D02*
X130683000Y-133985000D01*
X119809260Y-113030000D02*
X121439270Y-113030000D01*
X121439270Y-113030000D02*
X130683000Y-122273730D01*
X166751000Y-149479000D02*
X166307194Y-150916202D01*
X167508811Y-146431706D02*
X167894000Y-144907000D01*
X169200358Y-137304935D02*
X169418000Y-135763000D01*
X127000000Y-140780000D02*
X121920000Y-140780000D01*
X119222000Y-140843000D02*
X119285000Y-140780000D01*
X119285000Y-140780000D02*
X121920000Y-140780000D01*
X117432000Y-139258000D02*
X117637000Y-139258000D01*
X117637000Y-139258000D02*
X119222000Y-140843000D01*
X168474081Y-141890468D02*
X168783000Y-140335000D01*
X149225000Y-123190000D02*
X141970760Y-123190000D01*
X141970760Y-123190000D02*
X141810740Y-123029980D01*
X169685651Y-132687675D02*
X169799000Y-131064000D01*
X113792000Y-111760000D02*
X116812954Y-111760000D01*
X116812954Y-111760000D02*
X116942173Y-111889219D01*
X61976000Y-105913000D02*
X61976000Y-105410000D01*
X62484000Y-107000000D02*
X62484000Y-106421000D01*
X62484000Y-106421000D02*
X61976000Y-105913000D01*
X169928632Y-123408654D02*
X169926000Y-125095000D01*
X155899262Y-119857336D02*
X156083000Y-121793000D01*
X116205000Y-109220000D02*
X117332101Y-108092899D01*
X116205000Y-109220000D02*
X113538000Y-109220000D01*
X64684000Y-110342996D02*
X64684000Y-111338000D01*
X64684000Y-108900000D02*
X64684000Y-110342996D01*
X169685651Y-118772324D02*
X169799000Y-120396000D01*
X62547000Y-113475000D02*
X60325000Y-113475000D01*
X64684000Y-111338000D02*
X62547000Y-113475000D01*
X56240680Y-113764060D02*
X60035940Y-113764060D01*
X60035940Y-113764060D02*
X60325000Y-113475000D01*
X122085099Y-104228901D02*
X121262140Y-105051860D01*
X121262140Y-105051860D02*
X121262140Y-106172000D01*
X124299951Y-104521000D02*
X124007852Y-104228901D01*
X124007852Y-104228901D02*
X122085099Y-104228901D01*
X169200358Y-114155064D02*
X169418000Y-115697000D01*
X148209000Y-138430000D02*
X146050000Y-138430000D01*
X146050000Y-138430000D02*
X144780000Y-139700000D01*
X148590000Y-138049000D02*
X148209000Y-138430000D01*
X148590000Y-137406933D02*
X148590000Y-138049000D01*
X148971000Y-133317909D02*
X148971000Y-137025933D01*
X148971000Y-137025933D02*
X148590000Y-137406933D01*
X153035000Y-129667000D02*
X152621909Y-129667000D01*
X152621909Y-129667000D02*
X148971000Y-133317909D01*
X168783000Y-111125000D02*
X168474081Y-109569531D01*
X144780000Y-139700000D02*
X143637000Y-139700000D01*
X143637000Y-139700000D02*
X141605000Y-137668000D01*
X141605000Y-137668000D02*
X110475867Y-137668000D01*
X110475867Y-137668000D02*
X100188867Y-127381000D01*
X100188867Y-127381000D02*
X91313000Y-127381000D01*
X91313000Y-127381000D02*
X90678000Y-126746000D01*
X90678000Y-126746000D02*
X90678000Y-123698000D01*
X83500000Y-116205000D02*
X81661000Y-116205000D01*
X144018000Y-130810000D02*
X148971000Y-130810000D01*
X143383000Y-131445000D02*
X144018000Y-130810000D01*
X143129000Y-131699000D02*
X143383000Y-131445000D01*
X143129000Y-132119278D02*
X143129000Y-131699000D01*
X139700000Y-132588000D02*
X142660278Y-132588000D01*
X142660278Y-132588000D02*
X143129000Y-132119278D01*
X137160009Y-135127991D02*
X139700000Y-132588000D01*
X131699009Y-135127991D02*
X137160009Y-135127991D01*
X109220000Y-132715000D02*
X109220000Y-133731000D01*
X109220000Y-133731000D02*
X110616991Y-135127991D01*
X110616991Y-135127991D02*
X131699009Y-135127991D01*
X106426000Y-129921000D02*
X109220000Y-132715000D01*
X88271350Y-133731000D02*
X88900000Y-133731000D01*
X86995000Y-133753860D02*
X88248490Y-133753860D01*
X88248490Y-133753860D02*
X88271350Y-133731000D01*
X166307194Y-100543797D02*
X166751000Y-102108000D01*
X88900000Y-118745000D02*
X88011000Y-118745000D01*
X86995000Y-119761000D02*
X86995000Y-126255780D01*
X88011000Y-118745000D02*
X86995000Y-119761000D01*
X92964000Y-104394000D02*
X92964000Y-104267000D01*
X92964000Y-104267000D02*
X93599000Y-103632000D01*
X103759000Y-112862000D02*
X103759000Y-113062000D01*
X93599000Y-103632000D02*
X95250000Y-103632000D01*
X95250000Y-103632000D02*
X96012000Y-104394000D01*
X96012000Y-104394000D02*
X101092000Y-104394000D01*
X101981000Y-111084000D02*
X103759000Y-112862000D01*
X101092000Y-104394000D02*
X101981000Y-105283000D01*
X101981000Y-105283000D02*
X101981000Y-111084000D01*
X108490000Y-113062000D02*
X109982000Y-114554000D01*
X109982000Y-114554000D02*
X111633000Y-114554000D01*
X102108000Y-113030000D02*
X103727000Y-113030000D01*
X103727000Y-113030000D02*
X103759000Y-113062000D01*
X95964000Y-115697000D02*
X99187000Y-115697000D01*
X91915000Y-120650000D02*
X91915000Y-119746000D01*
X91915000Y-119746000D02*
X95964000Y-115697000D01*
X106426000Y-113062000D02*
X108490000Y-113062000D01*
X103759000Y-113062000D02*
X106426000Y-113062000D01*
X92751000Y-105950000D02*
X92751000Y-104394000D01*
X92751000Y-104394000D02*
X92710000Y-104394000D01*
X91726000Y-106975000D02*
X90719000Y-106975000D01*
X93401000Y-104831000D02*
X93401000Y-105950000D01*
X92964000Y-104394000D02*
X93401000Y-104831000D01*
X91186000Y-104394000D02*
X92710000Y-104394000D01*
X92710000Y-104394000D02*
X92964000Y-104394000D01*
X90424000Y-105156000D02*
X91186000Y-104394000D01*
X90424000Y-106680000D02*
X90424000Y-105156000D01*
X90719000Y-106975000D02*
X90424000Y-106680000D01*
X117268000Y-90678000D02*
X116264000Y-90678000D01*
X116264000Y-90678000D02*
X114867000Y-92075000D01*
X114867000Y-92075000D02*
X113711000Y-92075000D01*
X113711000Y-92075000D02*
X112682000Y-92075000D01*
X78232000Y-92075000D02*
X79121000Y-91186000D01*
X79121000Y-91186000D02*
X80946000Y-91186000D01*
X76614000Y-92075000D02*
X78232000Y-92075000D01*
X150471764Y-91821000D02*
X151204000Y-91821000D01*
X151204000Y-91821000D02*
X152601000Y-90424000D01*
X152601000Y-90424000D02*
X152701000Y-90424000D01*
X149004000Y-91821000D02*
X150471764Y-91821000D01*
X95726000Y-108925000D02*
X95951000Y-108925000D01*
X95951000Y-108925000D02*
X97630000Y-110604000D01*
X97630000Y-110604000D02*
X97630000Y-111491000D01*
X97630000Y-111491000D02*
X97630000Y-112395000D01*
X94615000Y-114300000D02*
X95725000Y-114300000D01*
X95725000Y-114300000D02*
X97630000Y-112395000D01*
X97790000Y-106680000D02*
X97790000Y-105664000D01*
X97790000Y-105664000D02*
X98298000Y-105156000D01*
X98298000Y-106172000D02*
X97790000Y-106680000D01*
X95726000Y-107625000D02*
X96845000Y-107625000D01*
X96845000Y-107625000D02*
X97790000Y-106680000D01*
X94615000Y-118745000D02*
X94615000Y-120650000D01*
X93980000Y-104648000D02*
X93980000Y-104548270D01*
X93980000Y-105225000D02*
X93980000Y-104648000D01*
X94051000Y-105950000D02*
X94051000Y-105296000D01*
X94051000Y-105296000D02*
X93980000Y-105225000D01*
X97630000Y-120650000D02*
X94615000Y-120650000D01*
X67564000Y-104996000D02*
X67564000Y-105156000D01*
X67564000Y-105156000D02*
X65720000Y-107000000D01*
X65720000Y-107000000D02*
X64684000Y-107000000D01*
X125857000Y-95852909D02*
X125857000Y-86233000D01*
X125857000Y-96266000D02*
X125857000Y-95852909D01*
X115697000Y-87549000D02*
X115697000Y-86233000D01*
X112682000Y-89535000D02*
X113711000Y-89535000D01*
X113711000Y-89535000D02*
X115697000Y-87549000D01*
X78486000Y-88138000D02*
X78486000Y-87757000D01*
X76614000Y-89535000D02*
X77089000Y-89535000D01*
X77089000Y-89535000D02*
X78486000Y-88138000D01*
X150749000Y-88745730D02*
X150749000Y-88138000D01*
X149004000Y-89281000D02*
X150213730Y-89281000D01*
X150213730Y-89281000D02*
X150749000Y-88745730D01*
X91726000Y-108275000D02*
X91003000Y-108275000D01*
X91003000Y-108275000D02*
X90424000Y-107696000D01*
X91726000Y-107625000D02*
X90495000Y-107625000D01*
X81026000Y-107950000D02*
X78945740Y-107950000D01*
X81280000Y-107696000D02*
X81026000Y-107950000D01*
X90495000Y-107625000D02*
X90424000Y-107696000D01*
X131572000Y-140716000D02*
X131572000Y-140669000D01*
X131572000Y-140669000D02*
X131906000Y-140335000D01*
X131906000Y-140335000D02*
X133160000Y-140335000D01*
X130810000Y-141478000D02*
X131572000Y-140716000D01*
X130810000Y-143510000D02*
X130810000Y-141478000D01*
X103886000Y-146685000D02*
X104394000Y-146177000D01*
X104394000Y-146177000D02*
X104521000Y-146177000D01*
X85471000Y-146685000D02*
X103886000Y-146685000D01*
X83820000Y-149860000D02*
X83820000Y-148336000D01*
X83820000Y-148336000D02*
X85471000Y-146685000D01*
X133160000Y-140335000D02*
X133160000Y-141389000D01*
X133160000Y-141389000D02*
X134646000Y-142875000D01*
X134646000Y-142875000D02*
X135890000Y-142875000D01*
X135890000Y-142875000D02*
X137033000Y-142875000D01*
X142367000Y-142875000D02*
X137033000Y-142875000D01*
X124206000Y-107976010D02*
X124206000Y-107315000D01*
X118712658Y-111887000D02*
X120295010Y-111887000D01*
X120295010Y-111887000D02*
X124206000Y-107976010D01*
X118581829Y-114042171D02*
X118581829Y-112017829D01*
X118581829Y-112017829D02*
X118712658Y-111887000D01*
X119600980Y-115028980D02*
X119568638Y-115028980D01*
X119568638Y-115028980D02*
X118581829Y-114042171D01*
X119809260Y-115028980D02*
X119600980Y-115028980D01*
X153047656Y-146988548D02*
X149225000Y-145796000D01*
X119809260Y-117030500D02*
X119659400Y-117030500D01*
X119659400Y-117030500D02*
X118491000Y-115862100D01*
X118491000Y-115862100D02*
X118491000Y-115062000D01*
X118491000Y-115062000D02*
X118110000Y-114681000D01*
X118110000Y-114681000D02*
X118110000Y-111847591D01*
X118110000Y-111847591D02*
X118578591Y-111379000D01*
X118578591Y-111379000D02*
X119641066Y-111379000D01*
X119641066Y-111379000D02*
X122816066Y-108204000D01*
X122816066Y-108204000D02*
X123061740Y-108204000D01*
X123063000Y-108204000D02*
X123061740Y-108204000D01*
X119872760Y-117094000D02*
X119809260Y-117030500D01*
X154061888Y-143203385D02*
X149606000Y-141986000D01*
X77643000Y-90805000D02*
X77643000Y-90759000D01*
X77643000Y-90759000D02*
X78359000Y-90043000D01*
X80946000Y-89027000D02*
X79375000Y-89027000D01*
X79375000Y-89027000D02*
X78359000Y-90043000D01*
X76614000Y-90805000D02*
X77643000Y-90805000D01*
X112682000Y-90805000D02*
X113919000Y-90805000D01*
X113919000Y-90805000D02*
X114427000Y-90297000D01*
X116264000Y-88392000D02*
X116264000Y-88460000D01*
X116264000Y-88460000D02*
X114427000Y-90297000D01*
X117268000Y-88392000D02*
X116264000Y-88392000D01*
X152701000Y-88138000D02*
X152273000Y-88138000D01*
X152273000Y-88138000D02*
X151003000Y-89408000D01*
X149004000Y-90551000D02*
X150033000Y-90551000D01*
X150033000Y-90551000D02*
X151003000Y-89581000D01*
X151003000Y-89581000D02*
X151003000Y-89408000D01*
X146050000Y-100584000D02*
X148336000Y-98298000D01*
X146050000Y-101258278D02*
X146050000Y-100584000D01*
X146050000Y-102108000D02*
X146050000Y-101258278D01*
X145288000Y-102870000D02*
X146050000Y-102108000D01*
X144272000Y-102870000D02*
X145288000Y-102870000D01*
X143256000Y-103886000D02*
X144272000Y-102870000D01*
X143256000Y-110711909D02*
X143256000Y-103886000D01*
X143256000Y-111125000D02*
X143256000Y-110711909D01*
X110363000Y-136271000D02*
X140589000Y-136271000D01*
X140589000Y-136271000D02*
X144780000Y-132080000D01*
X99441000Y-125349000D02*
X110363000Y-136271000D01*
X91694000Y-125349000D02*
X99441000Y-125349000D01*
X83500000Y-121285000D02*
X81661000Y-121285000D01*
X80391000Y-122555000D02*
X78105000Y-122555000D01*
X81661000Y-121285000D02*
X80391000Y-122555000D01*
X115062000Y-113157000D02*
X115062000Y-114158868D01*
X115062000Y-114158868D02*
X111125000Y-118095868D01*
X111125000Y-118095868D02*
X111125000Y-121666000D01*
X111125000Y-121666000D02*
X109712101Y-123078899D01*
X90408101Y-123078899D02*
X89916000Y-123571000D01*
X109712101Y-123078899D02*
X90408101Y-123078899D01*
X89916000Y-123571000D02*
X89916000Y-125332490D01*
X89916000Y-125332490D02*
X87494110Y-127754380D01*
X87494110Y-127754380D02*
X86995000Y-127754380D01*
X127889000Y-103759000D02*
X117983000Y-103759000D01*
X129540000Y-101600000D02*
X129540000Y-102108000D01*
X129540000Y-102108000D02*
X127889000Y-103759000D01*
X112395000Y-118999000D02*
X112395000Y-118197538D01*
X112395000Y-118197538D02*
X117561283Y-113031255D01*
X117561283Y-113031255D02*
X117561283Y-111754242D01*
X126325538Y-104267000D02*
X129921000Y-104267000D01*
X117561283Y-111754242D02*
X118444525Y-110871000D01*
X118444525Y-110871000D02*
X119506999Y-110871000D01*
X129921000Y-104267000D02*
X132080000Y-102108000D01*
X119506999Y-110871000D02*
X125248017Y-105129983D01*
X132080000Y-102108000D02*
X132080000Y-101600000D01*
X125248017Y-105129983D02*
X125503272Y-105129983D01*
X125503272Y-105129983D02*
X126325538Y-104307717D01*
X126325538Y-104307717D02*
X126325538Y-104267000D01*
X107569000Y-122428000D02*
X108966000Y-122428000D01*
X89904000Y-120015000D02*
X90424000Y-120535000D01*
X88900000Y-120015000D02*
X89904000Y-120015000D01*
X90424000Y-120535000D02*
X90424000Y-121666000D01*
X90424000Y-121666000D02*
X91186000Y-122428000D01*
X91186000Y-122428000D02*
X107569000Y-122428000D01*
X108966000Y-122428000D02*
X110363000Y-121031000D01*
X99194066Y-124460000D02*
X110551056Y-135816990D01*
X110551056Y-135816990D02*
X138376010Y-135816990D01*
X138376010Y-135816990D02*
X139280901Y-134912099D01*
X139280901Y-134912099D02*
X139573000Y-134620000D01*
X91567000Y-124460000D02*
X99194066Y-124460000D01*
X82496000Y-118745000D02*
X81788000Y-118745000D01*
X83500000Y-118745000D02*
X82496000Y-118745000D01*
X61036200Y-124993400D02*
X56352440Y-124993400D01*
X56352440Y-124993400D02*
X56299100Y-124940060D01*
X144780000Y-137160000D02*
X110609933Y-137160000D01*
X92456000Y-126238000D02*
X98806000Y-126238000D01*
X99687933Y-126238000D02*
X98806000Y-126238000D01*
X110609933Y-137160000D02*
X99687933Y-126238000D01*
M02*
