G04 #@! TF.FileFunction,Copper,L2,Bot,Signal*
%FSLAX46Y46*%
G04 Gerber Fmt 4.6, Leading zero omitted, Abs format (unit mm)*
G04 Created by KiCad (PCBNEW 4.0.0-rc1-stable) date 11/11/2015 4:04:06 PM*
%MOMM*%
G01*
G04 APERTURE LIST*
%ADD10C,0.100000*%
%ADD11O,1.524000X2.540000*%
%ADD12C,1.524000*%
%ADD13O,1.800860X1.501140*%
%ADD14R,1.800860X1.501140*%
%ADD15O,1.798320X1.798320*%
%ADD16C,3.556000*%
%ADD17C,2.540000*%
%ADD18C,2.159000*%
%ADD19R,2.301240X1.300480*%
%ADD20R,2.202180X1.300480*%
%ADD21C,1.998980*%
%ADD22C,2.500000*%
%ADD23C,0.584200*%
%ADD24C,0.254000*%
G04 APERTURE END LIST*
D10*
D11*
X119380000Y-101600000D03*
X121920000Y-101600000D03*
X124460000Y-101600000D03*
X127000000Y-101600000D03*
X129540000Y-101600000D03*
X132080000Y-101600000D03*
X134620000Y-101600000D03*
X137160000Y-101600000D03*
X142240000Y-149860000D03*
X139700000Y-149860000D03*
X137160000Y-149860000D03*
X134620000Y-149860000D03*
X124460000Y-149860000D03*
X119380000Y-149860000D03*
X116840000Y-149860000D03*
X127000000Y-149860000D03*
X129540000Y-149860000D03*
X132080000Y-149860000D03*
X114300000Y-149860000D03*
X111760000Y-149860000D03*
X109220000Y-149860000D03*
X101600000Y-149860000D03*
X104140000Y-149860000D03*
X106680000Y-149860000D03*
X96520000Y-149860000D03*
X93980000Y-149860000D03*
X91440000Y-149860000D03*
X86360000Y-149860000D03*
X83820000Y-149860000D03*
X114300000Y-101600000D03*
X111760000Y-101600000D03*
X109220000Y-101600000D03*
X106680000Y-101600000D03*
X104140000Y-101600000D03*
X101600000Y-101600000D03*
X99060000Y-101600000D03*
X96520000Y-101600000D03*
X92456000Y-101600000D03*
X89916000Y-101600000D03*
X87376000Y-101600000D03*
X84836000Y-101600000D03*
X82296000Y-101600000D03*
X79756000Y-101600000D03*
X77216000Y-101600000D03*
X74676000Y-101600000D03*
X88900000Y-149860000D03*
D12*
X144780000Y-104140000D03*
X147320000Y-104140000D03*
X144780000Y-106680000D03*
X147320000Y-106680000D03*
X144780000Y-109220000D03*
X147320000Y-109220000D03*
X144780000Y-111760000D03*
X147320000Y-111760000D03*
X144780000Y-101600000D03*
X147320000Y-101600000D03*
X147320000Y-114300000D03*
X144780000Y-114300000D03*
X144780000Y-116840000D03*
X147320000Y-116840000D03*
X144780000Y-119380000D03*
X147320000Y-119380000D03*
X144780000Y-121920000D03*
X147320000Y-121920000D03*
X144780000Y-124460000D03*
X147320000Y-124460000D03*
X144780000Y-127000000D03*
X147320000Y-127000000D03*
X144780000Y-129540000D03*
X147320000Y-129540000D03*
X144780000Y-132080000D03*
X147320000Y-132080000D03*
X144780000Y-134620000D03*
X147320000Y-134620000D03*
X144780000Y-137160000D03*
X147320000Y-137160000D03*
X144780000Y-139700000D03*
X147320000Y-139700000D03*
X144780000Y-142240000D03*
X147320000Y-142240000D03*
X144780000Y-144780000D03*
X147320000Y-144780000D03*
X114300000Y-121920000D03*
X116840000Y-121920000D03*
X114300000Y-124460000D03*
X116840000Y-124460000D03*
X114300000Y-127000000D03*
X116840000Y-127000000D03*
D11*
X81280000Y-149860000D03*
X78740000Y-149860000D03*
X72136000Y-101600000D03*
X69596000Y-101600000D03*
D13*
X141810740Y-113030000D03*
X141810740Y-121031000D03*
X141810740Y-125028960D03*
X141810740Y-123029980D03*
X141810740Y-117030500D03*
X141810740Y-119029480D03*
X141810740Y-115028980D03*
X141810740Y-129029460D03*
X141810740Y-131030980D03*
X141810740Y-127030480D03*
X119809260Y-127030480D03*
X119809260Y-131030980D03*
X119809260Y-129029460D03*
X119809260Y-115028980D03*
X119809260Y-119029480D03*
X119809260Y-117030500D03*
X119809260Y-123029980D03*
X119809260Y-125028960D03*
X119809260Y-121031000D03*
D14*
X119809260Y-113030000D03*
D15*
X59182000Y-89408000D03*
X55684420Y-89408000D03*
X95758000Y-89916000D03*
X92260420Y-89916000D03*
X132021580Y-89408000D03*
X128524000Y-89408000D03*
D16*
X108204000Y-139700000D03*
D17*
X98679000Y-139700000D03*
D18*
X98679000Y-134620000D03*
X94234000Y-142240000D03*
X103124000Y-142240000D03*
D15*
X106045000Y-109220000D03*
X106045000Y-105722420D03*
D19*
X53340000Y-110964980D03*
D20*
X56339740Y-112664240D03*
D19*
X53340000Y-119164100D03*
D20*
X56339740Y-117464840D03*
D21*
X72364600Y-146786600D03*
D22*
X75064620Y-144086580D03*
X69664580Y-144086580D03*
X69664580Y-149486620D03*
X75064620Y-149486620D03*
D23*
X78282800Y-137160000D03*
X68072000Y-96393000D03*
X71247000Y-86487000D03*
X102997000Y-96901000D03*
X107188000Y-87360110D03*
X146685000Y-96901000D03*
X143604000Y-86901000D03*
X94736933Y-104343269D03*
X115570000Y-134508890D03*
X106426000Y-121539000D03*
X120142000Y-143510000D03*
X113665000Y-140208000D03*
X83566000Y-108966000D03*
X97028000Y-108712000D03*
X90297000Y-110744000D03*
X96393000Y-110617000D03*
X93101000Y-107325000D03*
X94234000Y-108458000D03*
X84328000Y-137160000D03*
X73406000Y-137160000D03*
X91948000Y-111252000D03*
X99568000Y-109474000D03*
X95250000Y-111252000D03*
X68072000Y-111252000D03*
X60960000Y-108966000D03*
X61214000Y-103886000D03*
X139700000Y-139065000D03*
X89154000Y-135255000D03*
X115951000Y-103378000D03*
X96520000Y-105029000D03*
X89027000Y-103632000D03*
X83439000Y-106680000D03*
X80772000Y-97536000D03*
X69596000Y-96266000D03*
X69596000Y-94361000D03*
X106000000Y-97520110D03*
X104902000Y-94869000D03*
X106000000Y-96266000D03*
X142322000Y-97520110D03*
X142322000Y-96266000D03*
X140589000Y-95758000D03*
X131191000Y-109982000D03*
X116205000Y-113030000D03*
X119195810Y-108712000D03*
X149098000Y-120904000D03*
X169926000Y-126492000D03*
X113030000Y-139319000D03*
X112389000Y-134493000D03*
X68703000Y-113602000D03*
X70317000Y-117643000D03*
X73279000Y-122478800D03*
X59893200Y-128244600D03*
X67995800Y-122097800D03*
X113665000Y-110617000D03*
X85852000Y-114808000D03*
X125206103Y-104510882D03*
X167894000Y-106553000D03*
X149733000Y-136906000D03*
X129794000Y-141351000D03*
X130683000Y-133985000D03*
X166751000Y-149479000D03*
X167894000Y-144907000D03*
X169418000Y-135763000D03*
X168783000Y-140335000D03*
X149225000Y-123190000D03*
X169799000Y-131064000D03*
X116942173Y-111889219D03*
X113792000Y-111760000D03*
X61976000Y-105410000D03*
X169926000Y-125095000D03*
X156083000Y-121793000D03*
X117348000Y-108077000D03*
X113538000Y-109220000D03*
X64684000Y-110342996D03*
X169799000Y-120396000D03*
X124299951Y-104521000D03*
X169418000Y-115697000D03*
X153035000Y-129667000D03*
X168783000Y-111125000D03*
X90678000Y-123698000D03*
X81661000Y-116205000D03*
X148971000Y-130810000D03*
X106426000Y-129921000D03*
X88900000Y-133731000D03*
X166751000Y-102108000D03*
X102108000Y-113030000D03*
X99187000Y-115697000D03*
X114867000Y-92075000D03*
X79121000Y-91186000D03*
X150471764Y-91821000D03*
X98298000Y-105156000D03*
X94615000Y-118745000D03*
X93980000Y-104548270D03*
X125857000Y-86233000D03*
X125857000Y-96266000D03*
X115697000Y-86233000D03*
X78486000Y-87757000D03*
X150749000Y-88138000D03*
X81280000Y-107696000D03*
X90424000Y-107696000D03*
X130810000Y-143510000D03*
X104521000Y-146177000D03*
X124206000Y-107315000D03*
X149225000Y-145796000D03*
X123061740Y-108204000D03*
X149606000Y-141986000D03*
X78359000Y-90043000D03*
X114427000Y-90297000D03*
X151003000Y-89408000D03*
X148336000Y-98298000D03*
X143256000Y-111125000D03*
X91694000Y-125349000D03*
X81661000Y-121285000D03*
X115062000Y-113157000D03*
X118110000Y-103759000D03*
X112395000Y-118999000D03*
X110363000Y-121031000D03*
X139573000Y-134620000D03*
X91567000Y-124460000D03*
X81788000Y-118745000D03*
X61036200Y-124993400D03*
X92456000Y-126238000D03*
D24*
X67437000Y-95758000D02*
X68072000Y-96393000D01*
X67437000Y-93853000D02*
X67437000Y-95758000D01*
X69469000Y-91821000D02*
X67437000Y-93853000D01*
X69469000Y-87884000D02*
X69469000Y-91821000D01*
X70573901Y-86779099D02*
X69469000Y-87884000D01*
X71247000Y-86487000D02*
X70954901Y-86779099D01*
X70954901Y-86779099D02*
X70573901Y-86779099D01*
X102997000Y-91138019D02*
X102997000Y-96901000D01*
X107188000Y-87360110D02*
X106774909Y-87360110D01*
X106774909Y-87360110D02*
X102997000Y-91138019D01*
X146685000Y-93218000D02*
X146685000Y-96901000D01*
X143604000Y-90137000D02*
X146685000Y-93218000D01*
X143604000Y-86901000D02*
X143604000Y-90137000D01*
X94742000Y-104807091D02*
X94736933Y-104802024D01*
X94736933Y-104802024D02*
X94736933Y-104343269D01*
X94742000Y-104807091D02*
X94742000Y-107950000D01*
X94742000Y-107950000D02*
X94234000Y-108458000D01*
X115570000Y-134508890D02*
X113665000Y-136413890D01*
X113665000Y-136413890D02*
X113665000Y-140208000D01*
X106426000Y-121539000D02*
X113919000Y-129032000D01*
X113919000Y-129032000D02*
X114808000Y-129032000D01*
X114808000Y-129032000D02*
X116840000Y-127000000D01*
X117132099Y-140500099D02*
X120142000Y-143510000D01*
X113665000Y-140208000D02*
X113957099Y-140500099D01*
X113957099Y-140500099D02*
X117132099Y-140500099D01*
X98679000Y-139700000D02*
X97409001Y-140969999D01*
X97409001Y-140969999D02*
X97409001Y-141858999D01*
X97409001Y-141858999D02*
X92964000Y-146304000D01*
X79629000Y-108966000D02*
X83566000Y-108966000D01*
X77216000Y-106553000D02*
X79629000Y-108966000D01*
X77216000Y-101600000D02*
X77216000Y-106553000D01*
X91534909Y-110744000D02*
X90297000Y-110744000D01*
X94234000Y-108458000D02*
X93820909Y-108458000D01*
X93820909Y-108458000D02*
X91534909Y-110744000D01*
X96393000Y-110617000D02*
X96685099Y-110324901D01*
X96685099Y-110324901D02*
X96685099Y-109054901D01*
X96685099Y-109054901D02*
X96774000Y-108966000D01*
X97028000Y-108712000D02*
X105537000Y-108712000D01*
X105537000Y-108712000D02*
X106045000Y-109220000D01*
X94742000Y-108966000D02*
X94234000Y-108458000D01*
X96774000Y-108966000D02*
X94742000Y-108966000D01*
X96774000Y-108966000D02*
X97028000Y-108712000D01*
X91440000Y-146304000D02*
X92964000Y-146304000D01*
X93980000Y-147320000D02*
X93980000Y-149860000D01*
X92964000Y-146304000D02*
X93980000Y-147320000D01*
X84328000Y-137160000D02*
X86360000Y-137160000D01*
X91440000Y-146304000D02*
X91440000Y-149860000D01*
X89916000Y-144780000D02*
X91440000Y-146304000D01*
X89916000Y-140716000D02*
X89916000Y-144780000D01*
X86360000Y-137160000D02*
X89916000Y-140716000D01*
X73406000Y-137160000D02*
X84328000Y-137160000D01*
X91948000Y-111252000D02*
X95250000Y-111252000D01*
X99568000Y-109474000D02*
X97790000Y-111252000D01*
X97790000Y-111252000D02*
X95250000Y-111252000D01*
X60960000Y-109728000D02*
X60960000Y-108966000D01*
X62484000Y-111252000D02*
X60960000Y-109728000D01*
X68072000Y-111252000D02*
X62484000Y-111252000D01*
X60960000Y-104140000D02*
X60960000Y-108966000D01*
X61214000Y-103886000D02*
X60960000Y-104140000D01*
X137668000Y-137033000D02*
X139700000Y-139065000D01*
X137668000Y-123022360D02*
X137668000Y-137033000D01*
X141810740Y-119029480D02*
X141660880Y-119029480D01*
X141660880Y-119029480D02*
X137668000Y-123022360D01*
X96266000Y-137287000D02*
X105791000Y-137287000D01*
X105791000Y-137287000D02*
X108204000Y-139700000D01*
X94234000Y-135255000D02*
X96266000Y-137287000D01*
X89154000Y-135255000D02*
X94234000Y-135255000D01*
X114935000Y-103378000D02*
X115951000Y-103378000D01*
X97536000Y-104013000D02*
X96520000Y-105029000D01*
X109855000Y-104013000D02*
X97536000Y-104013000D01*
X110490000Y-103378000D02*
X109855000Y-104013000D01*
X114935000Y-103378000D02*
X110490000Y-103378000D01*
X89027000Y-103632000D02*
X86487000Y-103632000D01*
X86487000Y-103632000D02*
X83439000Y-106680000D01*
X80677091Y-97441091D02*
X80772000Y-97536000D01*
X70358000Y-97441091D02*
X80677091Y-97441091D01*
X69596000Y-96266000D02*
X69596000Y-96679091D01*
X69596000Y-96679091D02*
X70358000Y-97441091D01*
X69596000Y-94361000D02*
X69596000Y-96266000D01*
X106000000Y-96266000D02*
X106000000Y-97520110D01*
X106000000Y-97491000D02*
X106000000Y-97520110D01*
X104902000Y-94869000D02*
X104902000Y-95168000D01*
X104902000Y-95168000D02*
X106000000Y-96266000D01*
X142322000Y-97491000D02*
X142322000Y-97520110D01*
X142335117Y-97504117D02*
X142335117Y-97506993D01*
X142335117Y-97506993D02*
X142322000Y-97520110D01*
X140589000Y-95758000D02*
X142335117Y-97504117D01*
X142335117Y-97504117D02*
X144780000Y-99949000D01*
X142322000Y-96266000D02*
X142322000Y-97491000D01*
X144780000Y-99949000D02*
X144780000Y-101600000D01*
X122428000Y-109982000D02*
X131191000Y-109982000D01*
X121158000Y-108712000D02*
X122428000Y-109982000D01*
X116205000Y-111289719D02*
X116205000Y-113030000D01*
X119195810Y-108712000D02*
X118782719Y-108712000D01*
X118782719Y-108712000D02*
X116205000Y-111289719D01*
X119195810Y-108712000D02*
X121158000Y-108712000D01*
X147320000Y-101600000D02*
X144780000Y-101600000D01*
X150114000Y-121920000D02*
X149098000Y-120904000D01*
X169926000Y-126492000D02*
X154686000Y-126492000D01*
X154686000Y-126492000D02*
X150114000Y-121920000D01*
X112389000Y-134493000D02*
X112389000Y-138678000D01*
X112389000Y-138678000D02*
X113030000Y-139319000D01*
X69891000Y-117643000D02*
X68703000Y-116455000D01*
X68703000Y-116455000D02*
X68703000Y-113602000D01*
X70317000Y-117643000D02*
X69891000Y-117643000D01*
X72898000Y-122097800D02*
X73279000Y-122478800D01*
X67995800Y-122097800D02*
X72898000Y-122097800D01*
X61435909Y-128244600D02*
X59893200Y-128244600D01*
X67995800Y-122097800D02*
X67582709Y-122097800D01*
X67582709Y-122097800D02*
X61435909Y-128244600D01*
X167894000Y-106553000D02*
X152654000Y-106553000D01*
X152654000Y-106553000D02*
X148971000Y-102870000D01*
X148971000Y-102870000D02*
X142875000Y-102870000D01*
X142875000Y-102870000D02*
X141678010Y-104066990D01*
X141678010Y-104066990D02*
X125803010Y-104066990D01*
X125803010Y-104066990D02*
X125206103Y-104510882D01*
X111633000Y-112268000D02*
X112014000Y-112268000D01*
X112014000Y-112268000D02*
X113665000Y-110617000D01*
X103251000Y-120650000D02*
X111633000Y-112268000D01*
X91280909Y-120650000D02*
X103251000Y-120650000D01*
X85852000Y-114808000D02*
X85852000Y-115221091D01*
X85852000Y-115221091D02*
X91280909Y-120650000D01*
X169418000Y-135763000D02*
X150876000Y-135763000D01*
X150876000Y-135763000D02*
X149733000Y-136906000D01*
X130683000Y-140462000D02*
X129794000Y-141351000D01*
X130683000Y-133985000D02*
X130683000Y-140462000D01*
X167894000Y-144907000D02*
X166751000Y-149479000D01*
X167894000Y-144907000D02*
X169545000Y-143383000D01*
X169545000Y-143383000D02*
X170053000Y-140589000D01*
X170053000Y-140589000D02*
X169037000Y-138684000D01*
X169037000Y-138684000D02*
X169418000Y-135763000D01*
X128524000Y-140997270D02*
X128524000Y-131594860D01*
X128524000Y-131594860D02*
X119959120Y-123029980D01*
X119959120Y-123029980D02*
X119809260Y-123029980D01*
X131318000Y-142240000D02*
X129766730Y-142240000D01*
X129766730Y-142240000D02*
X128524000Y-140997270D01*
X136852010Y-147774010D02*
X131318000Y-142240000D01*
X156898999Y-140789001D02*
X149913990Y-147774010D01*
X149913990Y-147774010D02*
X136852010Y-147774010D01*
X168783000Y-140335000D02*
X168328999Y-140789001D01*
X168328999Y-140789001D02*
X156898999Y-140789001D01*
X169799000Y-131064000D02*
X152781000Y-131064000D01*
X152781000Y-131064000D02*
X149225000Y-127508000D01*
X149225000Y-127508000D02*
X149225000Y-123190000D01*
X118237000Y-110617000D02*
X116942173Y-111889219D01*
X116967000Y-111887000D02*
X116964781Y-111889219D01*
X116964781Y-111889219D02*
X116942173Y-111889219D01*
X120269000Y-110617000D02*
X118237000Y-110617000D01*
X113792000Y-111406270D02*
X113792000Y-111760000D01*
X114284101Y-110914169D02*
X113792000Y-111406270D01*
X113972990Y-108003990D02*
X114284101Y-108315101D01*
X114284101Y-108315101D02*
X114284101Y-110914169D01*
X98016730Y-107442000D02*
X113411000Y-107442000D01*
X113411000Y-107442000D02*
X113972990Y-108003990D01*
X132588000Y-110617000D02*
X120269000Y-110617000D01*
X132699101Y-110505899D02*
X132588000Y-110617000D01*
X137683899Y-110505899D02*
X132699101Y-110505899D01*
X95758000Y-104013000D02*
X95758000Y-105183270D01*
X95758000Y-105183270D02*
X98016730Y-107442000D01*
X94942010Y-103197010D02*
X95758000Y-104013000D01*
X94107000Y-103505000D02*
X94414990Y-103197010D01*
X94414990Y-103197010D02*
X94942010Y-103197010D01*
X91948000Y-107315000D02*
X91948000Y-105664000D01*
X91948000Y-105664000D02*
X94107000Y-103505000D01*
X90947899Y-108315101D02*
X91948000Y-107315000D01*
X89662000Y-108204000D02*
X89773101Y-108315101D01*
X89773101Y-108315101D02*
X90947899Y-108315101D01*
X83853986Y-109888986D02*
X85538972Y-108204000D01*
X85538972Y-108204000D02*
X89662000Y-108204000D01*
X74549000Y-105410000D02*
X79027986Y-109888986D01*
X79027986Y-109888986D02*
X83853986Y-109888986D01*
X61976000Y-105410000D02*
X74549000Y-105410000D01*
X148844000Y-111252000D02*
X148097899Y-110505899D01*
X148097899Y-110505899D02*
X137683899Y-110505899D01*
X149860000Y-119888000D02*
X148844000Y-118872000D01*
X148844000Y-118872000D02*
X148844000Y-111252000D01*
X151765000Y-121793000D02*
X149860000Y-119888000D01*
X152019000Y-121793000D02*
X151765000Y-121793000D01*
X156083000Y-121793000D02*
X152019000Y-121793000D01*
X169926000Y-125095000D02*
X159385000Y-125095000D01*
X159385000Y-125095000D02*
X156083000Y-121793000D01*
X117332101Y-108092899D02*
X121570789Y-108092899D01*
X121570789Y-108092899D02*
X122570890Y-109093000D01*
X149987000Y-109601000D02*
X149987000Y-117856000D01*
X122570890Y-109093000D02*
X124333000Y-109093000D01*
X149987000Y-117856000D02*
X152527000Y-120396000D01*
X124333000Y-109093000D02*
X125476000Y-107950000D01*
X125476000Y-107950000D02*
X148336000Y-107950000D01*
X148336000Y-107950000D02*
X149987000Y-109601000D01*
X152527000Y-120396000D02*
X169799000Y-120396000D01*
X103393899Y-119364101D02*
X113538000Y-109220000D01*
X82910996Y-110342996D02*
X91932101Y-119364101D01*
X91932101Y-119364101D02*
X103393899Y-119364101D01*
X64684000Y-110342996D02*
X82910996Y-110342996D01*
X130556000Y-107061000D02*
X126839951Y-107061000D01*
X126839951Y-107061000D02*
X124299951Y-104521000D01*
X140200933Y-107061000D02*
X140065618Y-107061000D01*
X142240000Y-107061000D02*
X140065618Y-107061000D01*
X140065618Y-107061000D02*
X130556000Y-107061000D01*
X169418000Y-115697000D02*
X158877000Y-115697000D01*
X158877000Y-115697000D02*
X148590000Y-105410000D01*
X148590000Y-105410000D02*
X143891000Y-105410000D01*
X143891000Y-105410000D02*
X142240000Y-107061000D01*
X156718000Y-129667000D02*
X153035000Y-129667000D01*
X170561000Y-129667000D02*
X156718000Y-129667000D01*
X171577000Y-128651000D02*
X170561000Y-129667000D01*
X171577000Y-114332091D02*
X171577000Y-128651000D01*
X168783000Y-111125000D02*
X168783000Y-111538091D01*
X168783000Y-111538091D02*
X171577000Y-114332091D01*
X90297000Y-123317000D02*
X90678000Y-123698000D01*
X90297000Y-122273730D02*
X90297000Y-123317000D01*
X81661000Y-116205000D02*
X84228270Y-116205000D01*
X84228270Y-116205000D02*
X90297000Y-122273730D01*
X148971000Y-130810000D02*
X151511000Y-133350000D01*
X151511000Y-133350000D02*
X170053000Y-133350000D01*
X170053000Y-133350000D02*
X172339000Y-131064000D01*
X172339000Y-131064000D02*
X172339000Y-111506000D01*
X172339000Y-111506000D02*
X170561000Y-109728000D01*
X170561000Y-109728000D02*
X170561000Y-105918000D01*
X170561000Y-105918000D02*
X166751000Y-102108000D01*
X96774000Y-129921000D02*
X106426000Y-129921000D01*
X92964000Y-133731000D02*
X96774000Y-129921000D01*
X92456000Y-133731000D02*
X92964000Y-133731000D01*
X88900000Y-133731000D02*
X92456000Y-133731000D01*
X100203000Y-115697000D02*
X102108000Y-113792000D01*
X102108000Y-113792000D02*
X102108000Y-113030000D01*
X99187000Y-115697000D02*
X100203000Y-115697000D01*
X116767219Y-94869000D02*
X116767219Y-96858378D01*
X116767219Y-96858378D02*
X116767219Y-96973781D01*
X115189000Y-105410000D02*
X116512990Y-104086010D01*
X116512990Y-104086010D02*
X116512990Y-103732280D01*
X116512990Y-103732280D02*
X116767219Y-103478051D01*
X116767219Y-103478051D02*
X116767219Y-96858378D01*
X115189000Y-110379518D02*
X115189000Y-105410000D01*
X114300000Y-124460000D02*
X112522000Y-122682000D01*
X112522000Y-122682000D02*
X112522000Y-120777000D01*
X114808000Y-110760519D02*
X115189000Y-110379518D01*
X112522000Y-120777000D02*
X113845990Y-119453010D01*
X113845990Y-119453010D02*
X113845990Y-112841943D01*
X113845990Y-112841943D02*
X114808000Y-111879934D01*
X114808000Y-111879934D02*
X114808000Y-110760519D01*
X114867000Y-92075000D02*
X115159099Y-91782901D01*
X112522000Y-86741000D02*
X104902000Y-86741000D01*
X115159099Y-91782901D02*
X115159099Y-89378099D01*
X115159099Y-89378099D02*
X112522000Y-86741000D01*
X104902000Y-86741000D02*
X96774000Y-94869000D01*
X96774000Y-94869000D02*
X82804000Y-94869000D01*
X82804000Y-94869000D02*
X79121000Y-91186000D01*
X116767219Y-94869000D02*
X116767219Y-93562128D01*
X114867000Y-92075000D02*
X115280091Y-92075000D01*
X115280091Y-92075000D02*
X116767219Y-93562128D01*
X118872000Y-94869000D02*
X116767219Y-94869000D01*
X142240000Y-94869000D02*
X118872000Y-94869000D01*
X145288000Y-97917000D02*
X142240000Y-94869000D01*
X146585270Y-97917000D02*
X145288000Y-97917000D01*
X147574000Y-96012000D02*
X147574000Y-96928270D01*
X147574000Y-96928270D02*
X146585270Y-97917000D01*
X150471764Y-93114236D02*
X147574000Y-96012000D01*
X150471764Y-91821000D02*
X150471764Y-93114236D01*
X106045000Y-105722420D02*
X98864420Y-105722420D01*
X98864420Y-105722420D02*
X98298000Y-105156000D01*
X93980000Y-104548270D02*
X92481899Y-106046371D01*
X92481899Y-106046371D02*
X92481899Y-108559101D01*
X92481899Y-108559101D02*
X91948000Y-109093000D01*
X91948000Y-109093000D02*
X90424000Y-109093000D01*
X90424000Y-109093000D02*
X89535000Y-109982000D01*
X89535000Y-112014000D02*
X94615000Y-117094000D01*
X89535000Y-109982000D02*
X89535000Y-112014000D01*
X94615000Y-117094000D02*
X94615000Y-118745000D01*
X115697000Y-86233000D02*
X80010000Y-86233000D01*
X125857000Y-86233000D02*
X115697000Y-86233000D01*
X144526000Y-86233000D02*
X125857000Y-86233000D01*
X114300000Y-121920000D02*
X114300000Y-113030000D01*
X114300000Y-113030000D02*
X115296980Y-112033020D01*
X115296980Y-112033020D02*
X115296980Y-110913605D01*
X115296980Y-110913605D02*
X115697000Y-110513587D01*
X115697000Y-110513587D02*
X115697000Y-110490000D01*
X115697000Y-110490000D02*
X116274889Y-109912111D01*
X116274889Y-109912111D02*
X116274889Y-105467111D01*
X116274889Y-105467111D02*
X116967000Y-104775000D01*
X116967000Y-104775000D02*
X116967000Y-103985730D01*
X116967000Y-103985730D02*
X117856000Y-103096730D01*
X117856000Y-103096730D02*
X117856000Y-100076000D01*
X117856000Y-100076000D02*
X121666000Y-96266000D01*
X121666000Y-96266000D02*
X125857000Y-96266000D01*
X80010000Y-86233000D02*
X78486000Y-87757000D01*
X146431000Y-88138000D02*
X144526000Y-86233000D01*
X150749000Y-88138000D02*
X146431000Y-88138000D01*
X90424000Y-107696000D02*
X81280000Y-107696000D01*
X127000000Y-147320000D02*
X130810000Y-143510000D01*
X114554000Y-147320000D02*
X127000000Y-147320000D01*
X113928501Y-146694501D02*
X114554000Y-147320000D01*
X104521000Y-146177000D02*
X105038501Y-146694501D01*
X105038501Y-146694501D02*
X113928501Y-146694501D01*
X124206000Y-107315000D02*
X123680850Y-106789850D01*
X123680850Y-106789850D02*
X123680850Y-104223831D01*
X149225000Y-145796000D02*
X148463000Y-145796000D01*
X148463000Y-145796000D02*
X147828000Y-146431000D01*
X147828000Y-146431000D02*
X144819278Y-146431000D01*
X144819278Y-146431000D02*
X129071278Y-130683000D01*
X129071278Y-130683000D02*
X129071278Y-124141138D01*
X129071278Y-124141138D02*
X119959120Y-115028980D01*
X119959120Y-115028980D02*
X119809260Y-115028980D01*
X127000000Y-101600000D02*
X127000000Y-102108000D01*
X124145681Y-103759000D02*
X123680850Y-104223831D01*
X127000000Y-102108000D02*
X125349000Y-103759000D01*
X125349000Y-103759000D02*
X124145681Y-103759000D01*
X149606000Y-141986000D02*
X149606000Y-144526000D01*
X149606000Y-144526000D02*
X149860000Y-144780000D01*
X149860000Y-144780000D02*
X149860000Y-146077270D01*
X149860000Y-146077270D02*
X148871270Y-147066000D01*
X148871270Y-147066000D02*
X144812212Y-147066000D01*
X144812212Y-147066000D02*
X123825000Y-126078788D01*
X123825000Y-126078788D02*
X123825000Y-120896380D01*
X123825000Y-120896380D02*
X119959120Y-117030500D01*
X119959120Y-117030500D02*
X119809260Y-117030500D01*
X123063000Y-107789649D02*
X123063000Y-103505000D01*
X123063000Y-103505000D02*
X124460000Y-102108000D01*
X124460000Y-102108000D02*
X124460000Y-101600000D01*
X123061740Y-108204000D02*
X123061740Y-107790909D01*
X123061740Y-107790909D02*
X123063000Y-107789649D01*
X78501899Y-90185899D02*
X78359000Y-90043000D01*
X81026000Y-95504000D02*
X78501899Y-92979899D01*
X78501899Y-92979899D02*
X78501899Y-90185899D01*
X81788000Y-95504000D02*
X81026000Y-95504000D01*
X87376000Y-101600000D02*
X87376000Y-101092000D01*
X87376000Y-101092000D02*
X81788000Y-95504000D01*
X109855000Y-91821000D02*
X111379000Y-90297000D01*
X111379000Y-90297000D02*
X114427000Y-90297000D01*
X109855000Y-95377000D02*
X109855000Y-91821000D01*
X104140000Y-101600000D02*
X104140000Y-101092000D01*
X104140000Y-101092000D02*
X109855000Y-95377000D01*
X148336000Y-98298000D02*
X148628099Y-98005901D01*
X148628099Y-98005901D02*
X148628099Y-95846901D01*
X148628099Y-95846901D02*
X151511000Y-92964000D01*
X151511000Y-92964000D02*
X151511000Y-89916000D01*
X151511000Y-89916000D02*
X151003000Y-89408000D01*
X143256000Y-123952000D02*
X143256000Y-111125000D01*
X143256000Y-132461000D02*
X143256000Y-123952000D01*
X144145000Y-133350000D02*
X143256000Y-132461000D01*
X145542000Y-133350000D02*
X144145000Y-133350000D01*
X146050000Y-133858000D02*
X145542000Y-133350000D01*
X146050000Y-134620000D02*
X146050000Y-133858000D01*
X146050000Y-140970000D02*
X146050000Y-134620000D01*
X144780000Y-142240000D02*
X146050000Y-140970000D01*
X90043000Y-125349000D02*
X91694000Y-125349000D01*
X86271099Y-121577099D02*
X90043000Y-125349000D01*
X81661000Y-121285000D02*
X81953099Y-121577099D01*
X81953099Y-121577099D02*
X86271099Y-121577099D01*
X115062000Y-113157000D02*
X115750990Y-112468010D01*
X115750990Y-112468010D02*
X115750990Y-111101662D01*
X115750990Y-111101662D02*
X116728899Y-110123754D01*
X116728899Y-110123754D02*
X116728899Y-105933899D01*
X116728899Y-105933899D02*
X118110000Y-104552798D01*
X118110000Y-104552798D02*
X118110000Y-103759000D01*
X110363000Y-121031000D02*
X112395000Y-118999000D01*
X144780000Y-134620000D02*
X139573000Y-134620000D01*
X90424000Y-124460000D02*
X91567000Y-124460000D01*
X85001099Y-119037099D02*
X90424000Y-124460000D01*
X81788000Y-118745000D02*
X82080099Y-119037099D01*
X82080099Y-119037099D02*
X85001099Y-119037099D01*
X92456000Y-126238000D02*
X89916000Y-126238000D01*
X89916000Y-126238000D02*
X87630000Y-123952000D01*
X87630000Y-123952000D02*
X80899000Y-123952000D01*
X80899000Y-123952000D02*
X77470000Y-120523000D01*
X77470000Y-120523000D02*
X65506600Y-120523000D01*
X65506600Y-120523000D02*
X61036200Y-124993400D01*
M02*
