M48
;DRILL file {KiCad 4.0.0-rc1-stable} date 11/10/2015 9:36:19 AM
;FORMAT={-:-/ absolute / inch / decimal}
FMAT,2
INCH,TZ
T1C0.016
T2C0.032
T3C0.039
T4C0.040
T5C0.043
T6C0.047
T7C0.059
T8C0.080
T9C0.100
%
G90
G05
M72
T1
X2.358Y-5.049
X2.4Y-4.29
X2.403Y-4.921
X2.41Y-4.09
X2.44Y-4.15
X2.5466Y-4.3442
X2.677Y-4.807
X2.68Y-3.795
X2.68Y-4.38
X2.7048Y-4.4725
X2.74Y-3.715
X2.74Y-3.79
X2.7684Y-4.6316
X2.805Y-3.405
X2.885Y-4.822
X2.89Y-5.4
X3.082Y-5.4
X3.085Y-3.545
X3.09Y-3.455
X3.115Y-3.59
X3.18Y-3.84
X3.2Y-4.24
X3.215Y-4.575
X3.215Y-4.775
X3.22Y-4.675
X3.285Y-4.2
X3.29Y-4.29
X3.32Y-5.4
X3.38Y-4.52
X3.5Y-5.265
X3.505Y-4.08
X3.51Y-5.325
X3.555Y-4.36
X3.56Y-4.24
X3.57Y-4.87
X3.605Y-4.9
X3.61Y-4.935
X3.62Y-4.38
X3.64Y-4.97
X3.6654Y-4.2254
X3.7Y-4.1161
X3.71Y-4.27
X3.725Y-4.675
X3.7298Y-4.108
X3.75Y-4.38
X3.795Y-4.355
X3.8Y-4.135
X3.82Y-4.28
X3.87Y-4.14
X3.905Y-4.555
X3.92Y-4.31
X4.02Y-4.45
X4.055Y-3.815
X4.115Y-5.755
X4.13Y-3.735
X4.1732Y-3.79
X4.1732Y-3.8394
X4.19Y-4.785
X4.19Y-5.115
X4.22Y-3.4394
X4.345Y-4.765
X4.4248Y-5.295
X4.425Y-4.685
X4.45Y-5.485
X4.47Y-4.3
X4.475Y-4.355
X4.475Y-5.52
X4.48Y-4.4
X4.505Y-3.555
X4.5223Y-3.625
X4.53Y-4.455
X4.55Y-5.2956
X4.555Y-3.395
X4.565Y-4.07
X4.575Y-4.45
X4.604Y-4.4051
X4.62Y-4.255
X4.65Y-4.085
X4.6927Y-4.28
X4.73Y-5.65
X4.845Y-4.26
X4.89Y-4.225
X4.8937Y-4.115
X4.9294Y-4.1146
X4.955Y-3.395
X4.955Y-3.79
X5.11Y-5.565
X5.145Y-5.275
X5.15Y-5.65
X5.165Y-4.33
X5.495Y-5.3
X5.5Y-5.475
X5.535Y-3.77
X5.6032Y-3.79
X5.6032Y-3.8394
X5.64Y-4.375
X5.6537Y-3.4213
X5.775Y-3.815
X5.84Y-3.87
X5.865Y-5.15
X5.87Y-4.76
X5.875Y-4.85
X5.875Y-5.74
X5.89Y-5.59
X5.895Y-5.39
X5.9241Y-3.615
X5.935Y-3.47
X5.945Y-3.52
X6.025Y-5.105
X6.145Y-4.795
X6.565Y-4.02
X6.565Y-5.885
X6.61Y-4.195
X6.61Y-5.705
X6.645Y-4.375
X6.645Y-5.525
X6.67Y-4.555
X6.67Y-5.345
X6.685Y-4.74
X6.685Y-5.16
X6.69Y-4.925
X6.69Y-4.98
T2
X4.5Y-4.8
X4.5Y-4.9
X4.5Y-5.
X4.6Y-4.8
X4.6Y-4.9
X4.6Y-5.
X4.7169Y-4.45
X4.7169Y-4.5287
X4.7169Y-4.6075
X4.7169Y-4.6862
X4.7169Y-4.765
X4.7169Y-4.8437
X4.7169Y-4.9224
X4.7169Y-5.0012
X4.7169Y-5.0799
X4.7169Y-5.1587
X5.5831Y-4.45
X5.5831Y-4.5287
X5.5831Y-4.6075
X5.5831Y-4.6862
X5.5831Y-4.765
X5.5831Y-4.8437
X5.5831Y-4.9224
X5.5831Y-5.0012
X5.5831Y-5.0799
X5.5831Y-5.1587
T3
X2.849Y-5.779
T4
X2.74Y-4.
X2.84Y-4.
X2.94Y-4.
X3.04Y-4.
X3.1Y-5.9
X3.14Y-4.
X3.2Y-5.9
X3.24Y-4.
X3.3Y-5.9
X3.34Y-4.
X3.4Y-5.9
X3.44Y-4.
X3.5Y-5.9
X3.54Y-4.
X3.6Y-5.9
X3.64Y-4.
X3.7Y-5.9
X3.8Y-4.
X3.8Y-5.9
X3.885Y-5.5
X3.9Y-4.
X4.Y-4.
X4.Y-5.9
X4.1Y-4.
X4.1Y-5.9
X4.2Y-4.
X4.2Y-5.9
X4.3Y-4.
X4.3Y-5.9
X4.4Y-4.
X4.4Y-5.9
X4.5Y-4.
X4.5Y-5.9
X4.6Y-5.9
X4.7Y-4.
X4.7Y-5.9
X4.8Y-4.
X4.9Y-4.
X4.9Y-5.9
X5.Y-4.
X5.Y-5.9
X5.1Y-4.
X5.1Y-5.9
X5.2Y-4.
X5.2Y-5.9
X5.3Y-4.
X5.3Y-5.9
X5.4Y-4.
X5.4Y-5.9
X5.5Y-5.9
X5.6Y-5.9
X5.7Y-4.
X5.7Y-4.1
X5.7Y-4.2
X5.7Y-4.3
X5.7Y-4.4
X5.7Y-4.5
X5.7Y-4.6
X5.7Y-4.7
X5.7Y-4.8
X5.7Y-4.9
X5.7Y-5.
X5.7Y-5.1
X5.7Y-5.2
X5.7Y-5.3
X5.7Y-5.4
X5.7Y-5.5
X5.7Y-5.6
X5.7Y-5.7
X5.8Y-4.
X5.8Y-4.1
X5.8Y-4.2
X5.8Y-4.3
X5.8Y-4.4
X5.8Y-4.5
X5.8Y-4.6
X5.8Y-4.7
X5.8Y-4.8
X5.8Y-4.9
X5.8Y-5.
X5.8Y-5.1
X5.8Y-5.2
X5.8Y-5.3
X5.8Y-5.4
X5.8Y-5.5
X5.8Y-5.6
X5.8Y-5.7
T5
X2.2181Y-4.4356
X2.2181Y-4.6246
T6
X2.1923Y-3.52
X2.33Y-3.52
X3.6323Y-3.54
X3.77Y-3.54
X4.175Y-4.1623
X4.175Y-4.3
X5.06Y-3.52
X5.1977Y-3.52
T7
X2.7427Y-5.6727
X2.7427Y-5.8853
X2.9553Y-5.6727
X2.9553Y-5.8853
T8
X3.71Y-5.6
X3.885Y-5.3
X4.06Y-5.6
T9
X4.26Y-5.5
T3
X2.0804Y-4.3687G85X2.1197Y-4.3687
G05
X2.0804Y-4.6915G85X2.1197Y-4.6915
G05
T0
M30
