G04 #@! TF.FileFunction,Legend,Top*
%FSLAX46Y46*%
G04 Gerber Fmt 4.6, Leading zero omitted, Abs format (unit mm)*
G04 Created by KiCad (PCBNEW (2015-07-30 BZR 6023, Git cb629e0)-product) date 9/10/2015 3:51:53 PM*
%MOMM*%
G01*
G04 APERTURE LIST*
%ADD10C,0.100000*%
%ADD11C,0.150000*%
G04 APERTURE END LIST*
D10*
D11*
X102600000Y-109465000D02*
X100600000Y-109465000D01*
X100600000Y-111515000D02*
X102600000Y-111515000D01*
X92440000Y-109465000D02*
X90440000Y-109465000D01*
X90440000Y-111515000D02*
X92440000Y-111515000D01*
X103940000Y-118950000D02*
G75*
G03X103940000Y-118950000I-100000J0D01*
G01*
X104390000Y-119200000D02*
X103890000Y-119200000D01*
X104390000Y-122100000D02*
X104390000Y-119200000D01*
X103890000Y-122100000D02*
X104390000Y-122100000D01*
X103890000Y-119200000D02*
X103890000Y-122100000D01*
X68910000Y-102120000D02*
X66210000Y-102120000D01*
X68910000Y-103620000D02*
X66210000Y-103620000D01*
X67410000Y-102720000D02*
X67410000Y-102970000D01*
X67410000Y-102970000D02*
X67560000Y-102820000D01*
X67660000Y-103220000D02*
X67660000Y-102520000D01*
X67310000Y-102870000D02*
X66960000Y-102870000D01*
X67660000Y-102870000D02*
X67310000Y-103220000D01*
X67310000Y-103220000D02*
X67310000Y-102520000D01*
X67310000Y-102520000D02*
X67660000Y-102870000D01*
X68910000Y-107200000D02*
X66210000Y-107200000D01*
X68910000Y-108700000D02*
X66210000Y-108700000D01*
X67410000Y-107800000D02*
X67410000Y-108050000D01*
X67410000Y-108050000D02*
X67560000Y-107900000D01*
X67660000Y-108300000D02*
X67660000Y-107600000D01*
X67310000Y-107950000D02*
X66960000Y-107950000D01*
X67660000Y-107950000D02*
X67310000Y-108300000D01*
X67310000Y-108300000D02*
X67310000Y-107600000D01*
X67310000Y-107600000D02*
X67660000Y-107950000D01*
X136830000Y-111240000D02*
X139530000Y-111240000D01*
X136830000Y-109740000D02*
X139530000Y-109740000D01*
X138330000Y-110640000D02*
X138330000Y-110390000D01*
X138330000Y-110390000D02*
X138180000Y-110540000D01*
X138080000Y-110140000D02*
X138080000Y-110840000D01*
X138430000Y-110490000D02*
X138780000Y-110490000D01*
X138080000Y-110490000D02*
X138430000Y-110140000D01*
X138430000Y-110140000D02*
X138430000Y-110840000D01*
X138430000Y-110840000D02*
X138080000Y-110490000D01*
X84760000Y-131560000D02*
X87460000Y-131560000D01*
X84760000Y-130060000D02*
X87460000Y-130060000D01*
X86260000Y-130960000D02*
X86260000Y-130710000D01*
X86260000Y-130710000D02*
X86110000Y-130860000D01*
X86010000Y-130460000D02*
X86010000Y-131160000D01*
X86360000Y-130810000D02*
X86710000Y-130810000D01*
X86010000Y-130810000D02*
X86360000Y-130460000D01*
X86360000Y-130460000D02*
X86360000Y-131160000D01*
X86360000Y-131160000D02*
X86010000Y-130810000D01*
X113970000Y-130290000D02*
X116670000Y-130290000D01*
X113970000Y-128790000D02*
X116670000Y-128790000D01*
X115470000Y-129690000D02*
X115470000Y-129440000D01*
X115470000Y-129440000D02*
X115320000Y-129590000D01*
X115220000Y-129190000D02*
X115220000Y-129890000D01*
X115570000Y-129540000D02*
X115920000Y-129540000D01*
X115220000Y-129540000D02*
X115570000Y-129190000D01*
X115570000Y-129190000D02*
X115570000Y-129890000D01*
X115570000Y-129890000D02*
X115220000Y-129540000D01*
X78410000Y-126480000D02*
X81110000Y-126480000D01*
X78410000Y-124980000D02*
X81110000Y-124980000D01*
X79910000Y-125880000D02*
X79910000Y-125630000D01*
X79910000Y-125630000D02*
X79760000Y-125780000D01*
X79660000Y-125380000D02*
X79660000Y-126080000D01*
X80010000Y-125730000D02*
X80360000Y-125730000D01*
X79660000Y-125730000D02*
X80010000Y-125380000D01*
X80010000Y-125380000D02*
X80010000Y-126080000D01*
X80010000Y-126080000D02*
X79660000Y-125730000D01*
X96190000Y-127750000D02*
X98890000Y-127750000D01*
X96190000Y-126250000D02*
X98890000Y-126250000D01*
X97690000Y-127150000D02*
X97690000Y-126900000D01*
X97690000Y-126900000D02*
X97540000Y-127050000D01*
X97440000Y-126650000D02*
X97440000Y-127350000D01*
X97790000Y-127000000D02*
X98140000Y-127000000D01*
X97440000Y-127000000D02*
X97790000Y-126650000D01*
X97790000Y-126650000D02*
X97790000Y-127350000D01*
X97790000Y-127350000D02*
X97440000Y-127000000D01*
X77140000Y-121400000D02*
X79840000Y-121400000D01*
X77140000Y-119900000D02*
X79840000Y-119900000D01*
X78640000Y-120800000D02*
X78640000Y-120550000D01*
X78640000Y-120550000D02*
X78490000Y-120700000D01*
X78390000Y-120300000D02*
X78390000Y-121000000D01*
X78740000Y-120650000D02*
X79090000Y-120650000D01*
X78390000Y-120650000D02*
X78740000Y-120300000D01*
X78740000Y-120300000D02*
X78740000Y-121000000D01*
X78740000Y-121000000D02*
X78390000Y-120650000D01*
X115240000Y-125210000D02*
X117940000Y-125210000D01*
X115240000Y-123710000D02*
X117940000Y-123710000D01*
X116740000Y-124610000D02*
X116740000Y-124360000D01*
X116740000Y-124360000D02*
X116590000Y-124510000D01*
X116490000Y-124110000D02*
X116490000Y-124810000D01*
X116840000Y-124460000D02*
X117190000Y-124460000D01*
X116490000Y-124460000D02*
X116840000Y-124110000D01*
X116840000Y-124110000D02*
X116840000Y-124810000D01*
X116840000Y-124810000D02*
X116490000Y-124460000D01*
X122860000Y-113780000D02*
X125560000Y-113780000D01*
X122860000Y-112280000D02*
X125560000Y-112280000D01*
X124360000Y-113180000D02*
X124360000Y-112930000D01*
X124360000Y-112930000D02*
X124210000Y-113080000D01*
X124110000Y-112680000D02*
X124110000Y-113380000D01*
X124460000Y-113030000D02*
X124810000Y-113030000D01*
X124110000Y-113030000D02*
X124460000Y-112680000D01*
X124460000Y-112680000D02*
X124460000Y-113380000D01*
X124460000Y-113380000D02*
X124110000Y-113030000D01*
X129210000Y-120130000D02*
X131910000Y-120130000D01*
X129210000Y-118630000D02*
X131910000Y-118630000D01*
X130710000Y-119530000D02*
X130710000Y-119280000D01*
X130710000Y-119280000D02*
X130560000Y-119430000D01*
X130460000Y-119030000D02*
X130460000Y-119730000D01*
X130810000Y-119380000D02*
X131160000Y-119380000D01*
X130460000Y-119380000D02*
X130810000Y-119030000D01*
X130810000Y-119030000D02*
X130810000Y-119730000D01*
X130810000Y-119730000D02*
X130460000Y-119380000D01*
X133020000Y-130290000D02*
X135720000Y-130290000D01*
X133020000Y-128790000D02*
X135720000Y-128790000D01*
X134520000Y-129690000D02*
X134520000Y-129440000D01*
X134520000Y-129440000D02*
X134370000Y-129590000D01*
X134270000Y-129190000D02*
X134270000Y-129890000D01*
X134620000Y-129540000D02*
X134970000Y-129540000D01*
X134270000Y-129540000D02*
X134620000Y-129190000D01*
X134620000Y-129190000D02*
X134620000Y-129890000D01*
X134620000Y-129890000D02*
X134270000Y-129540000D01*
X72990000Y-103745000D02*
X71790000Y-103745000D01*
X71790000Y-101995000D02*
X72990000Y-101995000D01*
X72990000Y-108825000D02*
X71790000Y-108825000D01*
X71790000Y-107075000D02*
X72990000Y-107075000D01*
X142840000Y-118985000D02*
X141640000Y-118985000D01*
X141640000Y-117235000D02*
X142840000Y-117235000D01*
X114900000Y-113905000D02*
X113700000Y-113905000D01*
X113700000Y-112155000D02*
X114900000Y-112155000D01*
X114900000Y-120255000D02*
X113700000Y-120255000D01*
X113700000Y-118505000D02*
X114900000Y-118505000D01*
X106010000Y-127875000D02*
X104810000Y-127875000D01*
X104810000Y-126125000D02*
X106010000Y-126125000D01*
X99660000Y-132955000D02*
X98460000Y-132955000D01*
X98460000Y-131205000D02*
X99660000Y-131205000D01*
X92040000Y-126605000D02*
X90840000Y-126605000D01*
X90840000Y-124855000D02*
X92040000Y-124855000D01*
X89500000Y-121525000D02*
X88300000Y-121525000D01*
X88300000Y-119775000D02*
X89500000Y-119775000D01*
X108550000Y-134225000D02*
X107350000Y-134225000D01*
X107350000Y-132475000D02*
X108550000Y-132475000D01*
X97120000Y-121525000D02*
X95920000Y-121525000D01*
X95920000Y-119775000D02*
X97120000Y-119775000D01*
X108550000Y-111365000D02*
X107350000Y-111365000D01*
X107350000Y-109615000D02*
X108550000Y-109615000D01*
X101433334Y-108547143D02*
X101385715Y-108594762D01*
X101242858Y-108642381D01*
X101147620Y-108642381D01*
X101004762Y-108594762D01*
X100909524Y-108499524D01*
X100861905Y-108404286D01*
X100814286Y-108213810D01*
X100814286Y-108070952D01*
X100861905Y-107880476D01*
X100909524Y-107785238D01*
X101004762Y-107690000D01*
X101147620Y-107642381D01*
X101242858Y-107642381D01*
X101385715Y-107690000D01*
X101433334Y-107737619D01*
X102385715Y-108642381D02*
X101814286Y-108642381D01*
X102100000Y-108642381D02*
X102100000Y-107642381D01*
X102004762Y-107785238D01*
X101909524Y-107880476D01*
X101814286Y-107928095D01*
X91273334Y-108547143D02*
X91225715Y-108594762D01*
X91082858Y-108642381D01*
X90987620Y-108642381D01*
X90844762Y-108594762D01*
X90749524Y-108499524D01*
X90701905Y-108404286D01*
X90654286Y-108213810D01*
X90654286Y-108070952D01*
X90701905Y-107880476D01*
X90749524Y-107785238D01*
X90844762Y-107690000D01*
X90987620Y-107642381D01*
X91082858Y-107642381D01*
X91225715Y-107690000D01*
X91273334Y-107737619D01*
X91654286Y-107737619D02*
X91701905Y-107690000D01*
X91797143Y-107642381D01*
X92035239Y-107642381D01*
X92130477Y-107690000D01*
X92178096Y-107737619D01*
X92225715Y-107832857D01*
X92225715Y-107928095D01*
X92178096Y-108070952D01*
X91606667Y-108642381D01*
X92225715Y-108642381D01*
X103328095Y-117552381D02*
X103328095Y-118361905D01*
X103375714Y-118457143D01*
X103423333Y-118504762D01*
X103518571Y-118552381D01*
X103709048Y-118552381D01*
X103804286Y-118504762D01*
X103851905Y-118457143D01*
X103899524Y-118361905D01*
X103899524Y-117552381D01*
X104899524Y-118552381D02*
X104328095Y-118552381D01*
X104613809Y-118552381D02*
X104613809Y-117552381D01*
X104518571Y-117695238D01*
X104423333Y-117790476D01*
X104328095Y-117838095D01*
X66190953Y-105072381D02*
X65714762Y-105072381D01*
X65714762Y-104072381D01*
X66524286Y-104548571D02*
X66857620Y-104548571D01*
X67000477Y-105072381D02*
X66524286Y-105072381D01*
X66524286Y-104072381D01*
X67000477Y-104072381D01*
X67429048Y-105072381D02*
X67429048Y-104072381D01*
X67667143Y-104072381D01*
X67810001Y-104120000D01*
X67905239Y-104215238D01*
X67952858Y-104310476D01*
X68000477Y-104500952D01*
X68000477Y-104643810D01*
X67952858Y-104834286D01*
X67905239Y-104929524D01*
X67810001Y-105024762D01*
X67667143Y-105072381D01*
X67429048Y-105072381D01*
X68952858Y-105072381D02*
X68381429Y-105072381D01*
X68667143Y-105072381D02*
X68667143Y-104072381D01*
X68571905Y-104215238D01*
X68476667Y-104310476D01*
X68381429Y-104358095D01*
X66190953Y-110152381D02*
X65714762Y-110152381D01*
X65714762Y-109152381D01*
X66524286Y-109628571D02*
X66857620Y-109628571D01*
X67000477Y-110152381D02*
X66524286Y-110152381D01*
X66524286Y-109152381D01*
X67000477Y-109152381D01*
X67429048Y-110152381D02*
X67429048Y-109152381D01*
X67667143Y-109152381D01*
X67810001Y-109200000D01*
X67905239Y-109295238D01*
X67952858Y-109390476D01*
X68000477Y-109580952D01*
X68000477Y-109723810D01*
X67952858Y-109914286D01*
X67905239Y-110009524D01*
X67810001Y-110104762D01*
X67667143Y-110152381D01*
X67429048Y-110152381D01*
X68381429Y-109247619D02*
X68429048Y-109200000D01*
X68524286Y-109152381D01*
X68762382Y-109152381D01*
X68857620Y-109200000D01*
X68905239Y-109247619D01*
X68952858Y-109342857D01*
X68952858Y-109438095D01*
X68905239Y-109580952D01*
X68333810Y-110152381D01*
X68952858Y-110152381D01*
X137310953Y-109192381D02*
X136834762Y-109192381D01*
X136834762Y-108192381D01*
X137644286Y-108668571D02*
X137977620Y-108668571D01*
X138120477Y-109192381D02*
X137644286Y-109192381D01*
X137644286Y-108192381D01*
X138120477Y-108192381D01*
X138549048Y-109192381D02*
X138549048Y-108192381D01*
X138787143Y-108192381D01*
X138930001Y-108240000D01*
X139025239Y-108335238D01*
X139072858Y-108430476D01*
X139120477Y-108620952D01*
X139120477Y-108763810D01*
X139072858Y-108954286D01*
X139025239Y-109049524D01*
X138930001Y-109144762D01*
X138787143Y-109192381D01*
X138549048Y-109192381D01*
X139453810Y-108192381D02*
X140072858Y-108192381D01*
X139739524Y-108573333D01*
X139882382Y-108573333D01*
X139977620Y-108620952D01*
X140025239Y-108668571D01*
X140072858Y-108763810D01*
X140072858Y-109001905D01*
X140025239Y-109097143D01*
X139977620Y-109144762D01*
X139882382Y-109192381D01*
X139596667Y-109192381D01*
X139501429Y-109144762D01*
X139453810Y-109097143D01*
X85240953Y-129512381D02*
X84764762Y-129512381D01*
X84764762Y-128512381D01*
X85574286Y-128988571D02*
X85907620Y-128988571D01*
X86050477Y-129512381D02*
X85574286Y-129512381D01*
X85574286Y-128512381D01*
X86050477Y-128512381D01*
X86479048Y-129512381D02*
X86479048Y-128512381D01*
X86717143Y-128512381D01*
X86860001Y-128560000D01*
X86955239Y-128655238D01*
X87002858Y-128750476D01*
X87050477Y-128940952D01*
X87050477Y-129083810D01*
X87002858Y-129274286D01*
X86955239Y-129369524D01*
X86860001Y-129464762D01*
X86717143Y-129512381D01*
X86479048Y-129512381D01*
X87907620Y-128845714D02*
X87907620Y-129512381D01*
X87669524Y-128464762D02*
X87431429Y-129179048D01*
X88050477Y-129179048D01*
X114450953Y-128242381D02*
X113974762Y-128242381D01*
X113974762Y-127242381D01*
X114784286Y-127718571D02*
X115117620Y-127718571D01*
X115260477Y-128242381D02*
X114784286Y-128242381D01*
X114784286Y-127242381D01*
X115260477Y-127242381D01*
X115689048Y-128242381D02*
X115689048Y-127242381D01*
X115927143Y-127242381D01*
X116070001Y-127290000D01*
X116165239Y-127385238D01*
X116212858Y-127480476D01*
X116260477Y-127670952D01*
X116260477Y-127813810D01*
X116212858Y-128004286D01*
X116165239Y-128099524D01*
X116070001Y-128194762D01*
X115927143Y-128242381D01*
X115689048Y-128242381D01*
X117165239Y-127242381D02*
X116689048Y-127242381D01*
X116641429Y-127718571D01*
X116689048Y-127670952D01*
X116784286Y-127623333D01*
X117022382Y-127623333D01*
X117117620Y-127670952D01*
X117165239Y-127718571D01*
X117212858Y-127813810D01*
X117212858Y-128051905D01*
X117165239Y-128147143D01*
X117117620Y-128194762D01*
X117022382Y-128242381D01*
X116784286Y-128242381D01*
X116689048Y-128194762D01*
X116641429Y-128147143D01*
X78890953Y-124432381D02*
X78414762Y-124432381D01*
X78414762Y-123432381D01*
X79224286Y-123908571D02*
X79557620Y-123908571D01*
X79700477Y-124432381D02*
X79224286Y-124432381D01*
X79224286Y-123432381D01*
X79700477Y-123432381D01*
X80129048Y-124432381D02*
X80129048Y-123432381D01*
X80367143Y-123432381D01*
X80510001Y-123480000D01*
X80605239Y-123575238D01*
X80652858Y-123670476D01*
X80700477Y-123860952D01*
X80700477Y-124003810D01*
X80652858Y-124194286D01*
X80605239Y-124289524D01*
X80510001Y-124384762D01*
X80367143Y-124432381D01*
X80129048Y-124432381D01*
X81557620Y-123432381D02*
X81367143Y-123432381D01*
X81271905Y-123480000D01*
X81224286Y-123527619D01*
X81129048Y-123670476D01*
X81081429Y-123860952D01*
X81081429Y-124241905D01*
X81129048Y-124337143D01*
X81176667Y-124384762D01*
X81271905Y-124432381D01*
X81462382Y-124432381D01*
X81557620Y-124384762D01*
X81605239Y-124337143D01*
X81652858Y-124241905D01*
X81652858Y-124003810D01*
X81605239Y-123908571D01*
X81557620Y-123860952D01*
X81462382Y-123813333D01*
X81271905Y-123813333D01*
X81176667Y-123860952D01*
X81129048Y-123908571D01*
X81081429Y-124003810D01*
X96670953Y-125702381D02*
X96194762Y-125702381D01*
X96194762Y-124702381D01*
X97004286Y-125178571D02*
X97337620Y-125178571D01*
X97480477Y-125702381D02*
X97004286Y-125702381D01*
X97004286Y-124702381D01*
X97480477Y-124702381D01*
X97909048Y-125702381D02*
X97909048Y-124702381D01*
X98147143Y-124702381D01*
X98290001Y-124750000D01*
X98385239Y-124845238D01*
X98432858Y-124940476D01*
X98480477Y-125130952D01*
X98480477Y-125273810D01*
X98432858Y-125464286D01*
X98385239Y-125559524D01*
X98290001Y-125654762D01*
X98147143Y-125702381D01*
X97909048Y-125702381D01*
X98813810Y-124702381D02*
X99480477Y-124702381D01*
X99051905Y-125702381D01*
X77620953Y-119352381D02*
X77144762Y-119352381D01*
X77144762Y-118352381D01*
X77954286Y-118828571D02*
X78287620Y-118828571D01*
X78430477Y-119352381D02*
X77954286Y-119352381D01*
X77954286Y-118352381D01*
X78430477Y-118352381D01*
X78859048Y-119352381D02*
X78859048Y-118352381D01*
X79097143Y-118352381D01*
X79240001Y-118400000D01*
X79335239Y-118495238D01*
X79382858Y-118590476D01*
X79430477Y-118780952D01*
X79430477Y-118923810D01*
X79382858Y-119114286D01*
X79335239Y-119209524D01*
X79240001Y-119304762D01*
X79097143Y-119352381D01*
X78859048Y-119352381D01*
X80001905Y-118780952D02*
X79906667Y-118733333D01*
X79859048Y-118685714D01*
X79811429Y-118590476D01*
X79811429Y-118542857D01*
X79859048Y-118447619D01*
X79906667Y-118400000D01*
X80001905Y-118352381D01*
X80192382Y-118352381D01*
X80287620Y-118400000D01*
X80335239Y-118447619D01*
X80382858Y-118542857D01*
X80382858Y-118590476D01*
X80335239Y-118685714D01*
X80287620Y-118733333D01*
X80192382Y-118780952D01*
X80001905Y-118780952D01*
X79906667Y-118828571D01*
X79859048Y-118876190D01*
X79811429Y-118971429D01*
X79811429Y-119161905D01*
X79859048Y-119257143D01*
X79906667Y-119304762D01*
X80001905Y-119352381D01*
X80192382Y-119352381D01*
X80287620Y-119304762D01*
X80335239Y-119257143D01*
X80382858Y-119161905D01*
X80382858Y-118971429D01*
X80335239Y-118876190D01*
X80287620Y-118828571D01*
X80192382Y-118780952D01*
X115720953Y-123162381D02*
X115244762Y-123162381D01*
X115244762Y-122162381D01*
X116054286Y-122638571D02*
X116387620Y-122638571D01*
X116530477Y-123162381D02*
X116054286Y-123162381D01*
X116054286Y-122162381D01*
X116530477Y-122162381D01*
X116959048Y-123162381D02*
X116959048Y-122162381D01*
X117197143Y-122162381D01*
X117340001Y-122210000D01*
X117435239Y-122305238D01*
X117482858Y-122400476D01*
X117530477Y-122590952D01*
X117530477Y-122733810D01*
X117482858Y-122924286D01*
X117435239Y-123019524D01*
X117340001Y-123114762D01*
X117197143Y-123162381D01*
X116959048Y-123162381D01*
X118006667Y-123162381D02*
X118197143Y-123162381D01*
X118292382Y-123114762D01*
X118340001Y-123067143D01*
X118435239Y-122924286D01*
X118482858Y-122733810D01*
X118482858Y-122352857D01*
X118435239Y-122257619D01*
X118387620Y-122210000D01*
X118292382Y-122162381D01*
X118101905Y-122162381D01*
X118006667Y-122210000D01*
X117959048Y-122257619D01*
X117911429Y-122352857D01*
X117911429Y-122590952D01*
X117959048Y-122686190D01*
X118006667Y-122733810D01*
X118101905Y-122781429D01*
X118292382Y-122781429D01*
X118387620Y-122733810D01*
X118435239Y-122686190D01*
X118482858Y-122590952D01*
X122864762Y-111732381D02*
X122388571Y-111732381D01*
X122388571Y-110732381D01*
X123198095Y-111208571D02*
X123531429Y-111208571D01*
X123674286Y-111732381D02*
X123198095Y-111732381D01*
X123198095Y-110732381D01*
X123674286Y-110732381D01*
X124102857Y-111732381D02*
X124102857Y-110732381D01*
X124340952Y-110732381D01*
X124483810Y-110780000D01*
X124579048Y-110875238D01*
X124626667Y-110970476D01*
X124674286Y-111160952D01*
X124674286Y-111303810D01*
X124626667Y-111494286D01*
X124579048Y-111589524D01*
X124483810Y-111684762D01*
X124340952Y-111732381D01*
X124102857Y-111732381D01*
X125626667Y-111732381D02*
X125055238Y-111732381D01*
X125340952Y-111732381D02*
X125340952Y-110732381D01*
X125245714Y-110875238D01*
X125150476Y-110970476D01*
X125055238Y-111018095D01*
X126245714Y-110732381D02*
X126340953Y-110732381D01*
X126436191Y-110780000D01*
X126483810Y-110827619D01*
X126531429Y-110922857D01*
X126579048Y-111113333D01*
X126579048Y-111351429D01*
X126531429Y-111541905D01*
X126483810Y-111637143D01*
X126436191Y-111684762D01*
X126340953Y-111732381D01*
X126245714Y-111732381D01*
X126150476Y-111684762D01*
X126102857Y-111637143D01*
X126055238Y-111541905D01*
X126007619Y-111351429D01*
X126007619Y-111113333D01*
X126055238Y-110922857D01*
X126102857Y-110827619D01*
X126150476Y-110780000D01*
X126245714Y-110732381D01*
X129214762Y-118082381D02*
X128738571Y-118082381D01*
X128738571Y-117082381D01*
X129548095Y-117558571D02*
X129881429Y-117558571D01*
X130024286Y-118082381D02*
X129548095Y-118082381D01*
X129548095Y-117082381D01*
X130024286Y-117082381D01*
X130452857Y-118082381D02*
X130452857Y-117082381D01*
X130690952Y-117082381D01*
X130833810Y-117130000D01*
X130929048Y-117225238D01*
X130976667Y-117320476D01*
X131024286Y-117510952D01*
X131024286Y-117653810D01*
X130976667Y-117844286D01*
X130929048Y-117939524D01*
X130833810Y-118034762D01*
X130690952Y-118082381D01*
X130452857Y-118082381D01*
X131976667Y-118082381D02*
X131405238Y-118082381D01*
X131690952Y-118082381D02*
X131690952Y-117082381D01*
X131595714Y-117225238D01*
X131500476Y-117320476D01*
X131405238Y-117368095D01*
X132929048Y-118082381D02*
X132357619Y-118082381D01*
X132643333Y-118082381D02*
X132643333Y-117082381D01*
X132548095Y-117225238D01*
X132452857Y-117320476D01*
X132357619Y-117368095D01*
X133024762Y-128242381D02*
X132548571Y-128242381D01*
X132548571Y-127242381D01*
X133358095Y-127718571D02*
X133691429Y-127718571D01*
X133834286Y-128242381D02*
X133358095Y-128242381D01*
X133358095Y-127242381D01*
X133834286Y-127242381D01*
X134262857Y-128242381D02*
X134262857Y-127242381D01*
X134500952Y-127242381D01*
X134643810Y-127290000D01*
X134739048Y-127385238D01*
X134786667Y-127480476D01*
X134834286Y-127670952D01*
X134834286Y-127813810D01*
X134786667Y-128004286D01*
X134739048Y-128099524D01*
X134643810Y-128194762D01*
X134500952Y-128242381D01*
X134262857Y-128242381D01*
X135786667Y-128242381D02*
X135215238Y-128242381D01*
X135500952Y-128242381D02*
X135500952Y-127242381D01*
X135405714Y-127385238D01*
X135310476Y-127480476D01*
X135215238Y-127528095D01*
X136167619Y-127337619D02*
X136215238Y-127290000D01*
X136310476Y-127242381D01*
X136548572Y-127242381D01*
X136643810Y-127290000D01*
X136691429Y-127337619D01*
X136739048Y-127432857D01*
X136739048Y-127528095D01*
X136691429Y-127670952D01*
X136120000Y-128242381D01*
X136739048Y-128242381D01*
X76033334Y-103322381D02*
X75700000Y-102846190D01*
X75461905Y-103322381D02*
X75461905Y-102322381D01*
X75842858Y-102322381D01*
X75938096Y-102370000D01*
X75985715Y-102417619D01*
X76033334Y-102512857D01*
X76033334Y-102655714D01*
X75985715Y-102750952D01*
X75938096Y-102798571D01*
X75842858Y-102846190D01*
X75461905Y-102846190D01*
X76985715Y-103322381D02*
X76414286Y-103322381D01*
X76700000Y-103322381D02*
X76700000Y-102322381D01*
X76604762Y-102465238D01*
X76509524Y-102560476D01*
X76414286Y-102608095D01*
X76033334Y-108402381D02*
X75700000Y-107926190D01*
X75461905Y-108402381D02*
X75461905Y-107402381D01*
X75842858Y-107402381D01*
X75938096Y-107450000D01*
X75985715Y-107497619D01*
X76033334Y-107592857D01*
X76033334Y-107735714D01*
X75985715Y-107830952D01*
X75938096Y-107878571D01*
X75842858Y-107926190D01*
X75461905Y-107926190D01*
X76414286Y-107497619D02*
X76461905Y-107450000D01*
X76557143Y-107402381D01*
X76795239Y-107402381D01*
X76890477Y-107450000D01*
X76938096Y-107497619D01*
X76985715Y-107592857D01*
X76985715Y-107688095D01*
X76938096Y-107830952D01*
X76366667Y-108402381D01*
X76985715Y-108402381D01*
X142073334Y-116462381D02*
X141740000Y-115986190D01*
X141501905Y-116462381D02*
X141501905Y-115462381D01*
X141882858Y-115462381D01*
X141978096Y-115510000D01*
X142025715Y-115557619D01*
X142073334Y-115652857D01*
X142073334Y-115795714D01*
X142025715Y-115890952D01*
X141978096Y-115938571D01*
X141882858Y-115986190D01*
X141501905Y-115986190D01*
X142406667Y-115462381D02*
X143025715Y-115462381D01*
X142692381Y-115843333D01*
X142835239Y-115843333D01*
X142930477Y-115890952D01*
X142978096Y-115938571D01*
X143025715Y-116033810D01*
X143025715Y-116271905D01*
X142978096Y-116367143D01*
X142930477Y-116414762D01*
X142835239Y-116462381D01*
X142549524Y-116462381D01*
X142454286Y-116414762D01*
X142406667Y-116367143D01*
X114133334Y-111382381D02*
X113800000Y-110906190D01*
X113561905Y-111382381D02*
X113561905Y-110382381D01*
X113942858Y-110382381D01*
X114038096Y-110430000D01*
X114085715Y-110477619D01*
X114133334Y-110572857D01*
X114133334Y-110715714D01*
X114085715Y-110810952D01*
X114038096Y-110858571D01*
X113942858Y-110906190D01*
X113561905Y-110906190D01*
X114990477Y-110715714D02*
X114990477Y-111382381D01*
X114752381Y-110334762D02*
X114514286Y-111049048D01*
X115133334Y-111049048D01*
X114133334Y-117732381D02*
X113800000Y-117256190D01*
X113561905Y-117732381D02*
X113561905Y-116732381D01*
X113942858Y-116732381D01*
X114038096Y-116780000D01*
X114085715Y-116827619D01*
X114133334Y-116922857D01*
X114133334Y-117065714D01*
X114085715Y-117160952D01*
X114038096Y-117208571D01*
X113942858Y-117256190D01*
X113561905Y-117256190D01*
X115038096Y-116732381D02*
X114561905Y-116732381D01*
X114514286Y-117208571D01*
X114561905Y-117160952D01*
X114657143Y-117113333D01*
X114895239Y-117113333D01*
X114990477Y-117160952D01*
X115038096Y-117208571D01*
X115085715Y-117303810D01*
X115085715Y-117541905D01*
X115038096Y-117637143D01*
X114990477Y-117684762D01*
X114895239Y-117732381D01*
X114657143Y-117732381D01*
X114561905Y-117684762D01*
X114514286Y-117637143D01*
X105243334Y-125352381D02*
X104910000Y-124876190D01*
X104671905Y-125352381D02*
X104671905Y-124352381D01*
X105052858Y-124352381D01*
X105148096Y-124400000D01*
X105195715Y-124447619D01*
X105243334Y-124542857D01*
X105243334Y-124685714D01*
X105195715Y-124780952D01*
X105148096Y-124828571D01*
X105052858Y-124876190D01*
X104671905Y-124876190D01*
X106100477Y-124352381D02*
X105910000Y-124352381D01*
X105814762Y-124400000D01*
X105767143Y-124447619D01*
X105671905Y-124590476D01*
X105624286Y-124780952D01*
X105624286Y-125161905D01*
X105671905Y-125257143D01*
X105719524Y-125304762D01*
X105814762Y-125352381D01*
X106005239Y-125352381D01*
X106100477Y-125304762D01*
X106148096Y-125257143D01*
X106195715Y-125161905D01*
X106195715Y-124923810D01*
X106148096Y-124828571D01*
X106100477Y-124780952D01*
X106005239Y-124733333D01*
X105814762Y-124733333D01*
X105719524Y-124780952D01*
X105671905Y-124828571D01*
X105624286Y-124923810D01*
X98893334Y-130432381D02*
X98560000Y-129956190D01*
X98321905Y-130432381D02*
X98321905Y-129432381D01*
X98702858Y-129432381D01*
X98798096Y-129480000D01*
X98845715Y-129527619D01*
X98893334Y-129622857D01*
X98893334Y-129765714D01*
X98845715Y-129860952D01*
X98798096Y-129908571D01*
X98702858Y-129956190D01*
X98321905Y-129956190D01*
X99226667Y-129432381D02*
X99893334Y-129432381D01*
X99464762Y-130432381D01*
X91273334Y-124082381D02*
X90940000Y-123606190D01*
X90701905Y-124082381D02*
X90701905Y-123082381D01*
X91082858Y-123082381D01*
X91178096Y-123130000D01*
X91225715Y-123177619D01*
X91273334Y-123272857D01*
X91273334Y-123415714D01*
X91225715Y-123510952D01*
X91178096Y-123558571D01*
X91082858Y-123606190D01*
X90701905Y-123606190D01*
X91844762Y-123510952D02*
X91749524Y-123463333D01*
X91701905Y-123415714D01*
X91654286Y-123320476D01*
X91654286Y-123272857D01*
X91701905Y-123177619D01*
X91749524Y-123130000D01*
X91844762Y-123082381D01*
X92035239Y-123082381D01*
X92130477Y-123130000D01*
X92178096Y-123177619D01*
X92225715Y-123272857D01*
X92225715Y-123320476D01*
X92178096Y-123415714D01*
X92130477Y-123463333D01*
X92035239Y-123510952D01*
X91844762Y-123510952D01*
X91749524Y-123558571D01*
X91701905Y-123606190D01*
X91654286Y-123701429D01*
X91654286Y-123891905D01*
X91701905Y-123987143D01*
X91749524Y-124034762D01*
X91844762Y-124082381D01*
X92035239Y-124082381D01*
X92130477Y-124034762D01*
X92178096Y-123987143D01*
X92225715Y-123891905D01*
X92225715Y-123701429D01*
X92178096Y-123606190D01*
X92130477Y-123558571D01*
X92035239Y-123510952D01*
X88733334Y-119002381D02*
X88400000Y-118526190D01*
X88161905Y-119002381D02*
X88161905Y-118002381D01*
X88542858Y-118002381D01*
X88638096Y-118050000D01*
X88685715Y-118097619D01*
X88733334Y-118192857D01*
X88733334Y-118335714D01*
X88685715Y-118430952D01*
X88638096Y-118478571D01*
X88542858Y-118526190D01*
X88161905Y-118526190D01*
X89209524Y-119002381D02*
X89400000Y-119002381D01*
X89495239Y-118954762D01*
X89542858Y-118907143D01*
X89638096Y-118764286D01*
X89685715Y-118573810D01*
X89685715Y-118192857D01*
X89638096Y-118097619D01*
X89590477Y-118050000D01*
X89495239Y-118002381D01*
X89304762Y-118002381D01*
X89209524Y-118050000D01*
X89161905Y-118097619D01*
X89114286Y-118192857D01*
X89114286Y-118430952D01*
X89161905Y-118526190D01*
X89209524Y-118573810D01*
X89304762Y-118621429D01*
X89495239Y-118621429D01*
X89590477Y-118573810D01*
X89638096Y-118526190D01*
X89685715Y-118430952D01*
X107307143Y-131702381D02*
X106973809Y-131226190D01*
X106735714Y-131702381D02*
X106735714Y-130702381D01*
X107116667Y-130702381D01*
X107211905Y-130750000D01*
X107259524Y-130797619D01*
X107307143Y-130892857D01*
X107307143Y-131035714D01*
X107259524Y-131130952D01*
X107211905Y-131178571D01*
X107116667Y-131226190D01*
X106735714Y-131226190D01*
X108259524Y-131702381D02*
X107688095Y-131702381D01*
X107973809Y-131702381D02*
X107973809Y-130702381D01*
X107878571Y-130845238D01*
X107783333Y-130940476D01*
X107688095Y-130988095D01*
X108878571Y-130702381D02*
X108973810Y-130702381D01*
X109069048Y-130750000D01*
X109116667Y-130797619D01*
X109164286Y-130892857D01*
X109211905Y-131083333D01*
X109211905Y-131321429D01*
X109164286Y-131511905D01*
X109116667Y-131607143D01*
X109069048Y-131654762D01*
X108973810Y-131702381D01*
X108878571Y-131702381D01*
X108783333Y-131654762D01*
X108735714Y-131607143D01*
X108688095Y-131511905D01*
X108640476Y-131321429D01*
X108640476Y-131083333D01*
X108688095Y-130892857D01*
X108735714Y-130797619D01*
X108783333Y-130750000D01*
X108878571Y-130702381D01*
X95877143Y-119002381D02*
X95543809Y-118526190D01*
X95305714Y-119002381D02*
X95305714Y-118002381D01*
X95686667Y-118002381D01*
X95781905Y-118050000D01*
X95829524Y-118097619D01*
X95877143Y-118192857D01*
X95877143Y-118335714D01*
X95829524Y-118430952D01*
X95781905Y-118478571D01*
X95686667Y-118526190D01*
X95305714Y-118526190D01*
X96829524Y-119002381D02*
X96258095Y-119002381D01*
X96543809Y-119002381D02*
X96543809Y-118002381D01*
X96448571Y-118145238D01*
X96353333Y-118240476D01*
X96258095Y-118288095D01*
X97781905Y-119002381D02*
X97210476Y-119002381D01*
X97496190Y-119002381D02*
X97496190Y-118002381D01*
X97400952Y-118145238D01*
X97305714Y-118240476D01*
X97210476Y-118288095D01*
X107307143Y-108842381D02*
X106973809Y-108366190D01*
X106735714Y-108842381D02*
X106735714Y-107842381D01*
X107116667Y-107842381D01*
X107211905Y-107890000D01*
X107259524Y-107937619D01*
X107307143Y-108032857D01*
X107307143Y-108175714D01*
X107259524Y-108270952D01*
X107211905Y-108318571D01*
X107116667Y-108366190D01*
X106735714Y-108366190D01*
X108259524Y-108842381D02*
X107688095Y-108842381D01*
X107973809Y-108842381D02*
X107973809Y-107842381D01*
X107878571Y-107985238D01*
X107783333Y-108080476D01*
X107688095Y-108128095D01*
X108640476Y-107937619D02*
X108688095Y-107890000D01*
X108783333Y-107842381D01*
X109021429Y-107842381D01*
X109116667Y-107890000D01*
X109164286Y-107937619D01*
X109211905Y-108032857D01*
X109211905Y-108128095D01*
X109164286Y-108270952D01*
X108592857Y-108842381D01*
X109211905Y-108842381D01*
M02*
