G04 #@! TF.FileFunction,Copper,L1,Top,Signal*
%FSLAX46Y46*%
G04 Gerber Fmt 4.6, Leading zero omitted, Abs format (unit mm)*
G04 Created by KiCad (PCBNEW (2015-07-30 BZR 6023, Git cb629e0)-product) date 9/10/2015 3:51:52 PM*
%MOMM*%
G01*
G04 APERTURE LIST*
%ADD10C,0.100000*%
%ADD11R,2.000000X1.600000*%
%ADD12R,1.060000X0.650000*%
%ADD13R,1.198880X1.198880*%
%ADD14R,1.500000X1.300000*%
%ADD15C,0.250000*%
G04 APERTURE END LIST*
D10*
D11*
X99600000Y-110490000D03*
X103600000Y-110490000D03*
X89440000Y-110490000D03*
X93440000Y-110490000D03*
D12*
X103040000Y-119700000D03*
X103040000Y-120650000D03*
X103040000Y-121600000D03*
X105240000Y-121600000D03*
X105240000Y-119700000D03*
D13*
X66260980Y-102870000D03*
X68359020Y-102870000D03*
X66260980Y-107950000D03*
X68359020Y-107950000D03*
X139479020Y-110490000D03*
X137380980Y-110490000D03*
X87409020Y-130810000D03*
X85310980Y-130810000D03*
X116619020Y-129540000D03*
X114520980Y-129540000D03*
X81059020Y-125730000D03*
X78960980Y-125730000D03*
X98839020Y-127000000D03*
X96740980Y-127000000D03*
X79789020Y-120650000D03*
X77690980Y-120650000D03*
X117889020Y-124460000D03*
X115790980Y-124460000D03*
X125509020Y-113030000D03*
X123410980Y-113030000D03*
X131859020Y-119380000D03*
X129760980Y-119380000D03*
X135669020Y-129540000D03*
X133570980Y-129540000D03*
D14*
X71040000Y-102870000D03*
X73740000Y-102870000D03*
X71040000Y-107950000D03*
X73740000Y-107950000D03*
X140890000Y-118110000D03*
X143590000Y-118110000D03*
X112950000Y-113030000D03*
X115650000Y-113030000D03*
X112950000Y-119380000D03*
X115650000Y-119380000D03*
X104060000Y-127000000D03*
X106760000Y-127000000D03*
X97710000Y-132080000D03*
X100410000Y-132080000D03*
X90090000Y-125730000D03*
X92790000Y-125730000D03*
X87550000Y-120650000D03*
X90250000Y-120650000D03*
X106600000Y-133350000D03*
X109300000Y-133350000D03*
X95170000Y-120650000D03*
X97870000Y-120650000D03*
X106600000Y-110490000D03*
X109300000Y-110490000D03*
D15*
X68359020Y-102870000D02*
X71040000Y-102870000D01*
X68359020Y-107950000D02*
X71040000Y-107950000D01*
M02*
