G04 #@! TF.FileFunction,Legend,Top*
%FSLAX46Y46*%
G04 Gerber Fmt 4.6, Leading zero omitted, Abs format (unit mm)*
G04 Created by KiCad (PCBNEW 4.0.0-rc1-stable) date 11/10/2015 9:35:47 AM*
%MOMM*%
G01*
G04 APERTURE LIST*
%ADD10C,0.100000*%
%ADD11C,0.150000*%
%ADD12C,0.400000*%
%ADD13C,0.300000*%
%ADD14C,0.381000*%
%ADD15C,0.177800*%
%ADD16C,0.200660*%
%ADD17C,0.203200*%
%ADD18C,0.250000*%
G04 APERTURE END LIST*
D10*
D11*
X53126191Y-143549714D02*
X53364286Y-144216381D01*
X53602382Y-143549714D01*
X54507144Y-144216381D02*
X53935715Y-144216381D01*
X54221429Y-144216381D02*
X54221429Y-143216381D01*
X54126191Y-143359238D01*
X54030953Y-143454476D01*
X53935715Y-143502095D01*
X54935715Y-144121143D02*
X54983334Y-144168762D01*
X54935715Y-144216381D01*
X54888096Y-144168762D01*
X54935715Y-144121143D01*
X54935715Y-144216381D01*
X55602381Y-143216381D02*
X55697620Y-143216381D01*
X55792858Y-143264000D01*
X55840477Y-143311619D01*
X55888096Y-143406857D01*
X55935715Y-143597333D01*
X55935715Y-143835429D01*
X55888096Y-144025905D01*
X55840477Y-144121143D01*
X55792858Y-144168762D01*
X55697620Y-144216381D01*
X55602381Y-144216381D01*
X55507143Y-144168762D01*
X55459524Y-144121143D01*
X55411905Y-144025905D01*
X55364286Y-143835429D01*
X55364286Y-143597333D01*
X55411905Y-143406857D01*
X55459524Y-143311619D01*
X55507143Y-143264000D01*
X55602381Y-143216381D01*
X56411905Y-144168762D02*
X56411905Y-144216381D01*
X56364286Y-144311619D01*
X56316667Y-144359238D01*
X57602381Y-144216381D02*
X57602381Y-143216381D01*
X58173810Y-144216381D01*
X58173810Y-143216381D01*
X58792857Y-144216381D02*
X58697619Y-144168762D01*
X58650000Y-144121143D01*
X58602381Y-144025905D01*
X58602381Y-143740190D01*
X58650000Y-143644952D01*
X58697619Y-143597333D01*
X58792857Y-143549714D01*
X58935715Y-143549714D01*
X59030953Y-143597333D01*
X59078572Y-143644952D01*
X59126191Y-143740190D01*
X59126191Y-144025905D01*
X59078572Y-144121143D01*
X59030953Y-144168762D01*
X58935715Y-144216381D01*
X58792857Y-144216381D01*
X59459524Y-143549714D02*
X59697619Y-144216381D01*
X59935715Y-143549714D01*
X60316667Y-144121143D02*
X60364286Y-144168762D01*
X60316667Y-144216381D01*
X60269048Y-144168762D01*
X60316667Y-144121143D01*
X60316667Y-144216381D01*
X61602381Y-144216381D02*
X61792857Y-144216381D01*
X61888096Y-144168762D01*
X61935715Y-144121143D01*
X62030953Y-143978286D01*
X62078572Y-143787810D01*
X62078572Y-143406857D01*
X62030953Y-143311619D01*
X61983334Y-143264000D01*
X61888096Y-143216381D01*
X61697619Y-143216381D01*
X61602381Y-143264000D01*
X61554762Y-143311619D01*
X61507143Y-143406857D01*
X61507143Y-143644952D01*
X61554762Y-143740190D01*
X61602381Y-143787810D01*
X61697619Y-143835429D01*
X61888096Y-143835429D01*
X61983334Y-143787810D01*
X62030953Y-143740190D01*
X62078572Y-143644952D01*
X62554762Y-144168762D02*
X62554762Y-144216381D01*
X62507143Y-144311619D01*
X62459524Y-144359238D01*
X63697619Y-143311619D02*
X63745238Y-143264000D01*
X63840476Y-143216381D01*
X64078572Y-143216381D01*
X64173810Y-143264000D01*
X64221429Y-143311619D01*
X64269048Y-143406857D01*
X64269048Y-143502095D01*
X64221429Y-143644952D01*
X63650000Y-144216381D01*
X64269048Y-144216381D01*
X64888095Y-143216381D02*
X64983334Y-143216381D01*
X65078572Y-143264000D01*
X65126191Y-143311619D01*
X65173810Y-143406857D01*
X65221429Y-143597333D01*
X65221429Y-143835429D01*
X65173810Y-144025905D01*
X65126191Y-144121143D01*
X65078572Y-144168762D01*
X64983334Y-144216381D01*
X64888095Y-144216381D01*
X64792857Y-144168762D01*
X64745238Y-144121143D01*
X64697619Y-144025905D01*
X64650000Y-143835429D01*
X64650000Y-143597333D01*
X64697619Y-143406857D01*
X64745238Y-143311619D01*
X64792857Y-143264000D01*
X64888095Y-143216381D01*
X66173810Y-144216381D02*
X65602381Y-144216381D01*
X65888095Y-144216381D02*
X65888095Y-143216381D01*
X65792857Y-143359238D01*
X65697619Y-143454476D01*
X65602381Y-143502095D01*
X67078572Y-143216381D02*
X66602381Y-143216381D01*
X66554762Y-143692571D01*
X66602381Y-143644952D01*
X66697619Y-143597333D01*
X66935715Y-143597333D01*
X67030953Y-143644952D01*
X67078572Y-143692571D01*
X67126191Y-143787810D01*
X67126191Y-144025905D01*
X67078572Y-144121143D01*
X67030953Y-144168762D01*
X66935715Y-144216381D01*
X66697619Y-144216381D01*
X66602381Y-144168762D01*
X66554762Y-144121143D01*
X51483332Y-142184381D02*
X51483332Y-141184381D01*
X51816666Y-141898667D01*
X52149999Y-141184381D01*
X52149999Y-142184381D01*
X52769046Y-142184381D02*
X52673808Y-142136762D01*
X52626189Y-142089143D01*
X52578570Y-141993905D01*
X52578570Y-141708190D01*
X52626189Y-141612952D01*
X52673808Y-141565333D01*
X52769046Y-141517714D01*
X52911904Y-141517714D01*
X53007142Y-141565333D01*
X53054761Y-141612952D01*
X53102380Y-141708190D01*
X53102380Y-141993905D01*
X53054761Y-142089143D01*
X53007142Y-142136762D01*
X52911904Y-142184381D01*
X52769046Y-142184381D01*
X53530951Y-142184381D02*
X53530951Y-141184381D01*
X53530951Y-141565333D02*
X53626189Y-141517714D01*
X53816666Y-141517714D01*
X53911904Y-141565333D01*
X53959523Y-141612952D01*
X54007142Y-141708190D01*
X54007142Y-141993905D01*
X53959523Y-142089143D01*
X53911904Y-142136762D01*
X53816666Y-142184381D01*
X53626189Y-142184381D01*
X53530951Y-142136762D01*
X54435713Y-142184381D02*
X54435713Y-141517714D01*
X54435713Y-141184381D02*
X54388094Y-141232000D01*
X54435713Y-141279619D01*
X54483332Y-141232000D01*
X54435713Y-141184381D01*
X54435713Y-141279619D01*
X55054760Y-142184381D02*
X54959522Y-142136762D01*
X54911903Y-142041524D01*
X54911903Y-141184381D01*
X55816666Y-142136762D02*
X55721428Y-142184381D01*
X55530951Y-142184381D01*
X55435713Y-142136762D01*
X55388094Y-142041524D01*
X55388094Y-141660571D01*
X55435713Y-141565333D01*
X55530951Y-141517714D01*
X55721428Y-141517714D01*
X55816666Y-141565333D01*
X55864285Y-141660571D01*
X55864285Y-141755810D01*
X55388094Y-141851048D01*
X57007142Y-142136762D02*
X57149999Y-142184381D01*
X57388095Y-142184381D01*
X57483333Y-142136762D01*
X57530952Y-142089143D01*
X57578571Y-141993905D01*
X57578571Y-141898667D01*
X57530952Y-141803429D01*
X57483333Y-141755810D01*
X57388095Y-141708190D01*
X57197618Y-141660571D01*
X57102380Y-141612952D01*
X57054761Y-141565333D01*
X57007142Y-141470095D01*
X57007142Y-141374857D01*
X57054761Y-141279619D01*
X57102380Y-141232000D01*
X57197618Y-141184381D01*
X57435714Y-141184381D01*
X57578571Y-141232000D01*
X58388095Y-142136762D02*
X58292857Y-142184381D01*
X58102380Y-142184381D01*
X58007142Y-142136762D01*
X57959523Y-142041524D01*
X57959523Y-141660571D01*
X58007142Y-141565333D01*
X58102380Y-141517714D01*
X58292857Y-141517714D01*
X58388095Y-141565333D01*
X58435714Y-141660571D01*
X58435714Y-141755810D01*
X57959523Y-141851048D01*
X58864285Y-141517714D02*
X58864285Y-142184381D01*
X58864285Y-141612952D02*
X58911904Y-141565333D01*
X59007142Y-141517714D01*
X59150000Y-141517714D01*
X59245238Y-141565333D01*
X59292857Y-141660571D01*
X59292857Y-142184381D01*
X59721428Y-142136762D02*
X59816666Y-142184381D01*
X60007142Y-142184381D01*
X60102381Y-142136762D01*
X60150000Y-142041524D01*
X60150000Y-141993905D01*
X60102381Y-141898667D01*
X60007142Y-141851048D01*
X59864285Y-141851048D01*
X59769047Y-141803429D01*
X59721428Y-141708190D01*
X59721428Y-141660571D01*
X59769047Y-141565333D01*
X59864285Y-141517714D01*
X60007142Y-141517714D01*
X60102381Y-141565333D01*
X60721428Y-142184381D02*
X60626190Y-142136762D01*
X60578571Y-142089143D01*
X60530952Y-141993905D01*
X60530952Y-141708190D01*
X60578571Y-141612952D01*
X60626190Y-141565333D01*
X60721428Y-141517714D01*
X60864286Y-141517714D01*
X60959524Y-141565333D01*
X61007143Y-141612952D01*
X61054762Y-141708190D01*
X61054762Y-141993905D01*
X61007143Y-142089143D01*
X60959524Y-142136762D01*
X60864286Y-142184381D01*
X60721428Y-142184381D01*
X61483333Y-142184381D02*
X61483333Y-141517714D01*
X61483333Y-141708190D02*
X61530952Y-141612952D01*
X61578571Y-141565333D01*
X61673809Y-141517714D01*
X61769048Y-141517714D01*
X62864286Y-142184381D02*
X62864286Y-141184381D01*
X63245239Y-141184381D01*
X63340477Y-141232000D01*
X63388096Y-141279619D01*
X63435715Y-141374857D01*
X63435715Y-141517714D01*
X63388096Y-141612952D01*
X63340477Y-141660571D01*
X63245239Y-141708190D01*
X62864286Y-141708190D01*
X64007143Y-142184381D02*
X63911905Y-142136762D01*
X63864286Y-142041524D01*
X63864286Y-141184381D01*
X64816668Y-142184381D02*
X64816668Y-141660571D01*
X64769049Y-141565333D01*
X64673811Y-141517714D01*
X64483334Y-141517714D01*
X64388096Y-141565333D01*
X64816668Y-142136762D02*
X64721430Y-142184381D01*
X64483334Y-142184381D01*
X64388096Y-142136762D01*
X64340477Y-142041524D01*
X64340477Y-141946286D01*
X64388096Y-141851048D01*
X64483334Y-141803429D01*
X64721430Y-141803429D01*
X64816668Y-141755810D01*
X65150001Y-141517714D02*
X65530953Y-141517714D01*
X65292858Y-141184381D02*
X65292858Y-142041524D01*
X65340477Y-142136762D01*
X65435715Y-142184381D01*
X65530953Y-142184381D01*
X65721430Y-141517714D02*
X66102382Y-141517714D01*
X65864287Y-142184381D02*
X65864287Y-141327238D01*
X65911906Y-141232000D01*
X66007144Y-141184381D01*
X66102382Y-141184381D01*
X66578573Y-142184381D02*
X66483335Y-142136762D01*
X66435716Y-142089143D01*
X66388097Y-141993905D01*
X66388097Y-141708190D01*
X66435716Y-141612952D01*
X66483335Y-141565333D01*
X66578573Y-141517714D01*
X66721431Y-141517714D01*
X66816669Y-141565333D01*
X66864288Y-141612952D01*
X66911907Y-141708190D01*
X66911907Y-141993905D01*
X66864288Y-142089143D01*
X66816669Y-142136762D01*
X66721431Y-142184381D01*
X66578573Y-142184381D01*
X67340478Y-142184381D02*
X67340478Y-141517714D01*
X67340478Y-141708190D02*
X67388097Y-141612952D01*
X67435716Y-141565333D01*
X67530954Y-141517714D01*
X67626193Y-141517714D01*
X67959526Y-142184381D02*
X67959526Y-141517714D01*
X67959526Y-141612952D02*
X68007145Y-141565333D01*
X68102383Y-141517714D01*
X68245241Y-141517714D01*
X68340479Y-141565333D01*
X68388098Y-141660571D01*
X68388098Y-142184381D01*
X68388098Y-141660571D02*
X68435717Y-141565333D01*
X68530955Y-141517714D01*
X68673812Y-141517714D01*
X68769050Y-141565333D01*
X68816669Y-141660571D01*
X68816669Y-142184381D01*
X107823048Y-142946429D02*
X108584953Y-142946429D01*
X108204001Y-143327381D02*
X108204001Y-142565476D01*
D12*
X162585400Y-100685600D02*
X164058600Y-106527600D01*
X164642800Y-108991400D02*
X165074600Y-111379000D01*
X165430200Y-113538000D02*
X166243000Y-128803400D01*
D13*
X166192200Y-131775200D02*
X162585400Y-150393400D01*
X161713397Y-143372505D02*
X163376647Y-142677092D01*
X161904206Y-142390878D02*
X163185838Y-143658719D01*
X162809806Y-141475428D02*
X162920811Y-141278708D01*
X163004556Y-141222221D01*
X163158417Y-141179363D01*
X163368766Y-141220251D01*
X163495369Y-141317626D01*
X163551857Y-141401371D01*
X163594714Y-141555233D01*
X163485680Y-142116162D01*
X162013239Y-141829949D01*
X162108644Y-141339135D01*
X162206019Y-141212532D01*
X162289765Y-141156045D01*
X162443626Y-141113188D01*
X162583859Y-141140446D01*
X162710462Y-141237820D01*
X162766949Y-141321566D01*
X162809806Y-141475428D01*
X162714402Y-141966241D01*
X163000615Y-140493800D02*
X163096020Y-140002987D01*
X163908186Y-139942559D02*
X163771894Y-140643722D01*
X162299453Y-140357508D01*
X162435745Y-139656346D01*
X163259571Y-139161592D02*
X163354975Y-138670778D01*
X164167141Y-138610351D02*
X164030849Y-139311513D01*
X162558408Y-139025300D01*
X162694700Y-138324137D01*
X164420453Y-122941478D02*
X164480570Y-122723747D01*
X164548162Y-122648679D01*
X164687084Y-122569871D01*
X164901077Y-122558656D01*
X165047476Y-122622511D01*
X165122546Y-122690103D01*
X165201352Y-122829027D01*
X165231259Y-123399672D01*
X163733314Y-123478176D01*
X163707146Y-122978861D01*
X163771001Y-122832461D01*
X163838594Y-122757392D01*
X163977517Y-122678585D01*
X164120178Y-122671109D01*
X164266577Y-122734962D01*
X164341647Y-122802555D01*
X164420453Y-122941478D01*
X164446621Y-123440793D01*
X164728509Y-121995488D02*
X164691127Y-121282181D01*
X165163970Y-122115720D02*
X163639857Y-121694909D01*
X165111634Y-121117090D01*
X163598736Y-120910272D02*
X163553877Y-120054303D01*
X165074251Y-120403783D02*
X163576306Y-120482287D01*
X163538924Y-119768981D02*
X163494064Y-118913013D01*
X165014438Y-119262492D02*
X163516494Y-119340996D01*
X164124576Y-111646837D02*
X164157708Y-111423403D01*
X164095691Y-111071686D01*
X164000541Y-110943402D01*
X163917794Y-110885462D01*
X163764704Y-110839926D01*
X163624017Y-110864733D01*
X163495734Y-110959882D01*
X163437794Y-111042630D01*
X163392258Y-111195720D01*
X163371528Y-111489497D01*
X163325992Y-111642588D01*
X163268051Y-111725334D01*
X163139768Y-111820485D01*
X162999081Y-111845292D01*
X162845991Y-111799755D01*
X162763244Y-111741815D01*
X162668093Y-111613531D01*
X162606076Y-111261815D01*
X162639210Y-111038381D01*
X163934446Y-110157222D02*
X162457235Y-110417694D01*
X162395218Y-110065977D01*
X162428351Y-109842544D01*
X162544231Y-109677049D01*
X162672514Y-109581899D01*
X162941485Y-109461942D01*
X163152515Y-109424731D01*
X163446292Y-109445461D01*
X163599382Y-109490997D01*
X163764876Y-109606878D01*
X163872429Y-109805504D01*
X163934446Y-110157222D01*
X161452462Y-105394434D02*
X161420441Y-105550911D01*
X161475902Y-105757895D01*
X161600358Y-105946391D01*
X161775322Y-106047407D01*
X161931798Y-106079427D01*
X162226265Y-106074474D01*
X162433248Y-106019013D01*
X162690740Y-105876069D01*
X162810243Y-105770101D01*
X162911258Y-105595137D01*
X162924791Y-105369667D01*
X162887817Y-105231677D01*
X162763361Y-105043180D01*
X162675879Y-104992672D01*
X162192916Y-105122081D01*
X162266864Y-105398061D01*
X162647484Y-104334746D02*
X161198596Y-104722974D01*
X161050699Y-104171017D01*
X161082720Y-104014540D01*
X161133228Y-103927058D01*
X161252730Y-103821089D01*
X161459714Y-103765628D01*
X161616191Y-103797649D01*
X161703672Y-103848156D01*
X161809642Y-103967659D01*
X161957538Y-104519616D01*
X162208749Y-102973339D02*
X162222282Y-102747868D01*
X162129846Y-102402894D01*
X162023878Y-102283392D01*
X161936396Y-102232884D01*
X161779920Y-102200864D01*
X161641930Y-102237838D01*
X161522428Y-102343806D01*
X161471920Y-102431288D01*
X161439900Y-102587764D01*
X161444853Y-102882230D01*
X161412833Y-103038707D01*
X161362325Y-103126189D01*
X161242823Y-103232158D01*
X161104834Y-103269132D01*
X160948357Y-103237111D01*
X160860875Y-103186604D01*
X160754906Y-103067101D01*
X160662471Y-102722128D01*
X160676004Y-102496657D01*
D11*
X58039048Y-113660229D02*
X58800953Y-113660229D01*
X58420001Y-114041181D02*
X58420001Y-113279276D01*
X58953448Y-101646029D02*
X59715353Y-101646029D01*
X59334401Y-102026981D02*
X59334401Y-101265076D01*
D14*
X143009620Y-133029960D02*
X141610080Y-133029960D01*
X118610380Y-133029960D02*
X120009920Y-133029960D01*
X118610380Y-112029240D02*
X126210060Y-105430320D01*
X126210060Y-105430320D02*
X135409940Y-105430320D01*
X135409940Y-105430320D02*
X143009620Y-112029240D01*
X118610380Y-138229340D02*
X118610380Y-112029240D01*
X143009620Y-138229340D02*
X143009620Y-112029240D01*
X143009620Y-138229340D02*
X118610380Y-138229340D01*
X86995000Y-133004560D02*
X86995000Y-141005560D01*
X86995000Y-141005560D02*
X70993000Y-141005560D01*
X70993000Y-141005560D02*
X70993000Y-127005080D01*
X70993000Y-127005080D02*
X70993000Y-125003560D01*
X70993000Y-125003560D02*
X86995000Y-125003560D01*
X86995000Y-125003560D02*
X86995000Y-133004560D01*
D15*
X66949320Y-122938540D02*
X54498240Y-122938540D01*
X54449980Y-122839480D02*
X67000120Y-122839480D01*
X66949320Y-122588020D02*
X54498240Y-122588020D01*
X67000120Y-122438160D02*
X67000120Y-122689620D01*
X54449980Y-122438160D02*
X67000120Y-122438160D01*
X54449980Y-123040140D02*
X67000120Y-123040140D01*
X54449980Y-122438160D02*
X54449980Y-123040140D01*
X67000120Y-135587740D02*
X66598800Y-135587740D01*
X53350160Y-136839960D02*
X66598800Y-136839960D01*
X66598800Y-136839960D02*
X66598800Y-135587740D01*
X52898040Y-123888500D02*
X52898040Y-133888480D01*
X52898040Y-133888480D02*
X52049680Y-134739380D01*
X52049680Y-134739380D02*
X52049680Y-135587740D01*
X67000120Y-131439920D02*
X67000120Y-135587740D01*
X67000120Y-125638560D02*
X67000120Y-129540000D01*
X67000120Y-122689620D02*
X67000120Y-123738640D01*
X54449980Y-122689620D02*
X67000120Y-122689620D01*
D16*
X141450060Y-144429480D02*
X141800580Y-144879060D01*
X141450060Y-145079720D02*
X141450060Y-145879820D01*
X141450060Y-143730980D02*
X141450060Y-144429480D01*
X138544300Y-142280640D02*
X138244580Y-142580360D01*
X140845540Y-142280640D02*
X138544300Y-142280640D01*
X140848080Y-142280640D02*
X141147800Y-142580360D01*
X138546840Y-147279360D02*
X138247120Y-146979640D01*
X138549380Y-147279360D02*
X140850620Y-147279360D01*
X140850620Y-147279360D02*
X141150340Y-146979640D01*
X137200640Y-143629380D02*
X137200640Y-145930620D01*
X142199360Y-143629380D02*
X142199360Y-145930620D01*
X141000480Y-144780000D02*
G75*
G03X141000480Y-144780000I-1300480J0D01*
G01*
D17*
X60929520Y-92806520D02*
X53934360Y-92806520D01*
X53934360Y-92806520D02*
X53934360Y-86608920D01*
X53934360Y-86608920D02*
X53934360Y-85808820D01*
X53934360Y-85808820D02*
X60929520Y-85808820D01*
X60929520Y-85808820D02*
X60929520Y-86608920D01*
X60929520Y-86608920D02*
X60929520Y-92806520D01*
X53934360Y-86608920D02*
X60929520Y-86608920D01*
X97505520Y-93314520D02*
X90510360Y-93314520D01*
X90510360Y-93314520D02*
X90510360Y-87116920D01*
X90510360Y-87116920D02*
X90510360Y-86316820D01*
X90510360Y-86316820D02*
X97505520Y-86316820D01*
X97505520Y-86316820D02*
X97505520Y-87116920D01*
X97505520Y-87116920D02*
X97505520Y-93314520D01*
X90510360Y-87116920D02*
X97505520Y-87116920D01*
X133769100Y-92806520D02*
X126773940Y-92806520D01*
X126773940Y-92806520D02*
X126773940Y-86608920D01*
X126773940Y-86608920D02*
X126773940Y-85808820D01*
X126773940Y-85808820D02*
X133769100Y-85808820D01*
X133769100Y-85808820D02*
X133769100Y-86608920D01*
X133769100Y-86608920D02*
X133769100Y-92806520D01*
X126773940Y-86608920D02*
X133769100Y-86608920D01*
D11*
X109474000Y-137160000D02*
X105791000Y-137160000D01*
X109474000Y-142240000D02*
X105791000Y-142240000D01*
X109474000Y-137160000D02*
X110744000Y-138430000D01*
X110744000Y-138430000D02*
X110744000Y-140970000D01*
X110744000Y-140970000D02*
X109474000Y-142240000D01*
X95123000Y-144018000D02*
X93599000Y-145288000D01*
X95123000Y-135382000D02*
X93599000Y-134112000D01*
X104267000Y-139700000D02*
G75*
G03X104267000Y-139700000I-5588000J0D01*
G01*
X106230963Y-139700000D02*
G75*
G03X106230963Y-139700000I-7551963J0D01*
G01*
D17*
X102646480Y-110967520D02*
X102646480Y-103972360D01*
X102646480Y-103972360D02*
X108844080Y-103972360D01*
X108844080Y-103972360D02*
X109644180Y-103972360D01*
X109644180Y-103972360D02*
X109644180Y-110967520D01*
X109644180Y-110967520D02*
X108844080Y-110967520D01*
X108844080Y-110967520D02*
X102646480Y-110967520D01*
X108844080Y-103972360D02*
X108844080Y-110967520D01*
D11*
X77345540Y-110449360D02*
X74546460Y-110449360D01*
X77345540Y-105450640D02*
X74546460Y-105450640D01*
X66689000Y-106946000D02*
X66689000Y-105746000D01*
X68439000Y-105746000D02*
X68439000Y-106946000D01*
X93865000Y-115175000D02*
X92665000Y-115175000D01*
X92665000Y-113425000D02*
X93865000Y-113425000D01*
X93865000Y-121525000D02*
X92665000Y-121525000D01*
X92665000Y-119775000D02*
X93865000Y-119775000D01*
X99580000Y-121525000D02*
X98380000Y-121525000D01*
X98380000Y-119775000D02*
X99580000Y-119775000D01*
X99740000Y-107555000D02*
X98540000Y-107555000D01*
X98540000Y-105805000D02*
X99740000Y-105805000D01*
X99580000Y-113270000D02*
X98380000Y-113270000D01*
X98380000Y-111520000D02*
X99580000Y-111520000D01*
X104784000Y-116062000D02*
X104784000Y-114062000D01*
X102734000Y-114062000D02*
X102734000Y-116062000D01*
X77355000Y-123430000D02*
X76155000Y-123430000D01*
X76155000Y-121680000D02*
X77355000Y-121680000D01*
X153451000Y-87263000D02*
X154651000Y-87263000D01*
X154651000Y-89013000D02*
X153451000Y-89013000D01*
X95876000Y-105800000D02*
X95876000Y-106575000D01*
X91576000Y-110100000D02*
X91576000Y-109325000D01*
X95876000Y-110100000D02*
X95876000Y-109325000D01*
X91576000Y-105800000D02*
X92351000Y-105800000D01*
X91576000Y-110100000D02*
X92351000Y-110100000D01*
X95876000Y-110100000D02*
X95101000Y-110100000D01*
X95876000Y-105800000D02*
X95101000Y-105800000D01*
X119710200Y-104672180D02*
X120411240Y-104672180D01*
X120411240Y-104672180D02*
X120411240Y-104921100D01*
X120411240Y-107471160D02*
X120411240Y-107671820D01*
X120411240Y-107671820D02*
X119710200Y-107671820D01*
X144326000Y-93296000D02*
G75*
G03X144326000Y-93296000I-100000J0D01*
G01*
X144776000Y-93546000D02*
X144276000Y-93546000D01*
X144776000Y-96446000D02*
X144776000Y-93546000D01*
X144276000Y-96446000D02*
X144776000Y-96446000D01*
X144276000Y-93546000D02*
X144276000Y-96446000D01*
X108004000Y-93296000D02*
G75*
G03X108004000Y-93296000I-100000J0D01*
G01*
X108454000Y-93546000D02*
X107954000Y-93546000D01*
X108454000Y-96446000D02*
X108454000Y-93546000D01*
X107954000Y-96446000D02*
X108454000Y-96446000D01*
X107954000Y-93546000D02*
X107954000Y-96446000D01*
X71936000Y-93550000D02*
G75*
G03X71936000Y-93550000I-100000J0D01*
G01*
X72386000Y-93800000D02*
X71886000Y-93800000D01*
X72386000Y-96700000D02*
X72386000Y-93800000D01*
X71886000Y-96700000D02*
X72386000Y-96700000D01*
X71886000Y-93800000D02*
X71886000Y-96700000D01*
D14*
X51419760Y-100139500D02*
X58920380Y-100139500D01*
X58920380Y-108140500D02*
X51419760Y-108140500D01*
X58920380Y-108140500D02*
X58920380Y-107739180D01*
X57419240Y-107939840D02*
X58920380Y-107939840D01*
X58920380Y-107739180D02*
X57419240Y-107739180D01*
X58920380Y-100340160D02*
X57419240Y-100340160D01*
X57419240Y-100540820D02*
X58920380Y-100540820D01*
X58920380Y-100540820D02*
X58920380Y-100139500D01*
X51419760Y-103639620D02*
X52420520Y-103639620D01*
X52420520Y-103639620D02*
X52420520Y-104640380D01*
X52420520Y-104640380D02*
X51419760Y-104640380D01*
X57419240Y-102141020D02*
X52920900Y-102141020D01*
X52920900Y-102141020D02*
X52920900Y-101439980D01*
X52920900Y-101439980D02*
X57419240Y-101439980D01*
X57419240Y-106138980D02*
X52920900Y-106138980D01*
X52920900Y-106138980D02*
X52920900Y-106840020D01*
X52920900Y-106840020D02*
X57419240Y-106840020D01*
X51419760Y-100139500D02*
X51419760Y-108140500D01*
X57419240Y-108140500D02*
X57419240Y-100139500D01*
X51419760Y-102839520D02*
X51419760Y-102539800D01*
D11*
X144229000Y-87341000D02*
X144229000Y-87486000D01*
X148379000Y-87341000D02*
X148379000Y-87486000D01*
X148379000Y-92491000D02*
X148379000Y-92346000D01*
X144229000Y-92491000D02*
X144229000Y-92346000D01*
X144229000Y-87341000D02*
X148379000Y-87341000D01*
X144229000Y-92491000D02*
X148379000Y-92491000D01*
X144229000Y-87486000D02*
X142829000Y-87486000D01*
X107907000Y-87595000D02*
X107907000Y-87740000D01*
X112057000Y-87595000D02*
X112057000Y-87740000D01*
X112057000Y-92745000D02*
X112057000Y-92600000D01*
X107907000Y-92745000D02*
X107907000Y-92600000D01*
X107907000Y-87595000D02*
X112057000Y-87595000D01*
X107907000Y-92745000D02*
X112057000Y-92745000D01*
X107907000Y-87740000D02*
X106507000Y-87740000D01*
X71839000Y-87595000D02*
X71839000Y-87740000D01*
X75989000Y-87595000D02*
X75989000Y-87740000D01*
X75989000Y-92745000D02*
X75989000Y-92600000D01*
X71839000Y-92745000D02*
X71839000Y-92600000D01*
X71839000Y-87595000D02*
X75989000Y-87595000D01*
X71839000Y-92745000D02*
X75989000Y-92745000D01*
X71839000Y-87740000D02*
X70439000Y-87740000D01*
X63384000Y-106250000D02*
G75*
G03X63384000Y-106250000I-100000J0D01*
G01*
X63834000Y-106500000D02*
X63334000Y-106500000D01*
X63834000Y-109400000D02*
X63834000Y-106500000D01*
X63334000Y-109400000D02*
X63834000Y-109400000D01*
X63334000Y-106500000D02*
X63334000Y-109400000D01*
X112903000Y-106505500D02*
X112903000Y-106886500D01*
X112903000Y-105489500D02*
X112903000Y-105870500D01*
X112903000Y-105870500D02*
X113284000Y-106505500D01*
X113284000Y-106505500D02*
X112522000Y-106505500D01*
X112522000Y-106505500D02*
X112903000Y-105870500D01*
X113411000Y-105870500D02*
X112395000Y-105870500D01*
X112003000Y-104188000D02*
X112003000Y-107728000D01*
X113803000Y-104188000D02*
X113803000Y-107728000D01*
D16*
X51640740Y-110063280D02*
X51640740Y-119964200D01*
X51640740Y-119964200D02*
X55039260Y-119964200D01*
X55039260Y-119964200D02*
X55039260Y-118765320D01*
X55039260Y-118765320D02*
X57541160Y-118765320D01*
X57541160Y-118765320D02*
X57541160Y-111363760D01*
X57541160Y-111363760D02*
X55140860Y-111363760D01*
X55140860Y-111363760D02*
X55140860Y-110063280D01*
X55140860Y-110063280D02*
X51640740Y-110063280D01*
D11*
X116132000Y-138508000D02*
G75*
G03X116132000Y-138508000I-100000J0D01*
G01*
X116582000Y-138758000D02*
X116082000Y-138758000D01*
X116582000Y-141658000D02*
X116582000Y-138758000D01*
X116082000Y-141658000D02*
X116582000Y-141658000D01*
X116082000Y-138758000D02*
X116082000Y-141658000D01*
X71217000Y-113682000D02*
G75*
G03X71217000Y-113682000I-100000J0D01*
G01*
X71667000Y-113932000D02*
X71167000Y-113932000D01*
X71667000Y-116832000D02*
X71667000Y-113932000D01*
X71167000Y-116832000D02*
X71667000Y-116832000D01*
X71167000Y-113932000D02*
X71167000Y-116832000D01*
X153451000Y-89549000D02*
X154651000Y-89549000D01*
X154651000Y-91299000D02*
X153451000Y-91299000D01*
X118018000Y-87517000D02*
X119218000Y-87517000D01*
X119218000Y-89267000D02*
X118018000Y-89267000D01*
X118018000Y-89803000D02*
X119218000Y-89803000D01*
X119218000Y-91553000D02*
X118018000Y-91553000D01*
X81696000Y-88152000D02*
X82896000Y-88152000D01*
X82896000Y-89902000D02*
X81696000Y-89902000D01*
X81696000Y-90311000D02*
X82896000Y-90311000D01*
X82896000Y-92061000D02*
X81696000Y-92061000D01*
X86245000Y-143750000D02*
X85045000Y-143750000D01*
X85045000Y-142000000D02*
X86245000Y-142000000D01*
X137252000Y-88505000D02*
X136052000Y-88505000D01*
X136052000Y-86755000D02*
X137252000Y-86755000D01*
X137506000Y-92569000D02*
X136306000Y-92569000D01*
X136306000Y-90819000D02*
X137506000Y-90819000D01*
X101184000Y-89775000D02*
X99984000Y-89775000D01*
X99984000Y-88025000D02*
X101184000Y-88025000D01*
X101184000Y-94093000D02*
X99984000Y-94093000D01*
X99984000Y-92343000D02*
X101184000Y-92343000D01*
X64608000Y-89013000D02*
X63408000Y-89013000D01*
X63408000Y-87263000D02*
X64608000Y-87263000D01*
X64608000Y-93331000D02*
X63408000Y-93331000D01*
X63408000Y-91581000D02*
X64608000Y-91581000D01*
X107451000Y-116062000D02*
X107451000Y-114062000D01*
X105401000Y-114062000D02*
X105401000Y-116062000D01*
X139945000Y-88916000D02*
X139945000Y-90916000D01*
X141995000Y-90916000D02*
X141995000Y-88916000D01*
X103623000Y-89551000D02*
X103623000Y-91551000D01*
X105673000Y-91551000D02*
X105673000Y-89551000D01*
X67047000Y-89170000D02*
X67047000Y-91170000D01*
X69097000Y-91170000D02*
X69097000Y-89170000D01*
X91710000Y-130565000D02*
X93710000Y-130565000D01*
X93710000Y-128515000D02*
X91710000Y-128515000D01*
X136160000Y-139310000D02*
X134160000Y-139310000D01*
X134160000Y-141360000D02*
X136160000Y-141360000D01*
X128025000Y-143780000D02*
X128025000Y-141780000D01*
X125975000Y-141780000D02*
X125975000Y-143780000D01*
X89671000Y-108728000D02*
X89671000Y-106728000D01*
X87621000Y-106728000D02*
X87621000Y-108728000D01*
X61350000Y-116475000D02*
X61350000Y-114475000D01*
X59300000Y-114475000D02*
X59300000Y-116475000D01*
X87131000Y-108728000D02*
X87131000Y-106728000D01*
X85081000Y-106728000D02*
X85081000Y-108728000D01*
X76082000Y-116602000D02*
X76082000Y-114602000D01*
X74032000Y-114602000D02*
X74032000Y-116602000D01*
X68462000Y-116602000D02*
X68462000Y-114602000D01*
X66412000Y-114602000D02*
X66412000Y-116602000D01*
X156480000Y-95767000D02*
X158480000Y-95767000D01*
X158480000Y-93717000D02*
X156480000Y-93717000D01*
X151368000Y-93717000D02*
X149368000Y-93717000D01*
X149368000Y-95767000D02*
X151368000Y-95767000D01*
X120412000Y-95767000D02*
X122412000Y-95767000D01*
X122412000Y-93717000D02*
X120412000Y-93717000D01*
X115300000Y-93717000D02*
X113300000Y-93717000D01*
X113300000Y-95767000D02*
X115300000Y-95767000D01*
X84344000Y-96783000D02*
X86344000Y-96783000D01*
X86344000Y-94733000D02*
X84344000Y-94733000D01*
X78978000Y-94733000D02*
X76978000Y-94733000D01*
X76978000Y-96783000D02*
X78978000Y-96783000D01*
X122945000Y-143780000D02*
X122945000Y-141780000D01*
X120895000Y-141780000D02*
X120895000Y-143780000D01*
X114665000Y-131690000D02*
X112665000Y-131690000D01*
X112665000Y-133740000D02*
X114665000Y-133740000D01*
X84125000Y-113035000D02*
X84125000Y-113140000D01*
X88275000Y-113035000D02*
X88275000Y-113140000D01*
X88275000Y-123185000D02*
X88275000Y-123080000D01*
X84125000Y-123185000D02*
X84125000Y-123080000D01*
X84125000Y-113035000D02*
X88275000Y-113035000D01*
X84125000Y-123185000D02*
X88275000Y-123185000D01*
X84125000Y-113140000D02*
X82750000Y-113140000D01*
X153518258Y-103419472D02*
X154668841Y-103078654D01*
X155165868Y-104756588D02*
X154015285Y-105097406D01*
X154586900Y-107230707D02*
X155753744Y-106950572D01*
X156162274Y-108652219D02*
X154995430Y-108932354D01*
X155454614Y-111092645D02*
X156634520Y-110873963D01*
X156953432Y-112594659D02*
X155773526Y-112813341D01*
X156119021Y-114994705D02*
X157308754Y-114838074D01*
X157537175Y-116573103D02*
X156347442Y-116729734D01*
X156578298Y-118926189D02*
X157774599Y-118832038D01*
X157911902Y-120576643D02*
X156715601Y-120670794D01*
X156831189Y-122876322D02*
X158030778Y-122844910D01*
X158076587Y-124594310D02*
X156876998Y-124625722D01*
X156876998Y-126834277D02*
X158076587Y-126865689D01*
X158030778Y-128615089D02*
X156831189Y-128583677D01*
X156715601Y-130789205D02*
X157911902Y-130883356D01*
X157774599Y-132627961D02*
X156578298Y-132533810D01*
X156347442Y-134730265D02*
X157537175Y-134886896D01*
X157308754Y-136621925D02*
X156119021Y-136465294D01*
X155773526Y-138646658D02*
X156953432Y-138865340D01*
X156634520Y-140586036D02*
X155454614Y-140367354D01*
X154995430Y-142527645D02*
X156162274Y-142807780D01*
X155753744Y-144509427D02*
X154586900Y-144229292D01*
X154015285Y-146362593D02*
X155165868Y-146703411D01*
X154668841Y-148381345D02*
X153518258Y-148040527D01*
X163980273Y-102015274D02*
X166569086Y-101248433D01*
X163554250Y-100577045D02*
X166143063Y-99810203D01*
X165248093Y-101013959D02*
X165177089Y-100774255D01*
X165177089Y-100774255D02*
X165075869Y-100960680D01*
X164866381Y-100605553D02*
X165065191Y-101276727D01*
X165301373Y-100841735D02*
X165636960Y-100742330D01*
X164965786Y-100941140D02*
X165201968Y-100506148D01*
X165201968Y-100506148D02*
X165400778Y-101177322D01*
X165400778Y-101177322D02*
X164965786Y-100941140D01*
X165108068Y-106375972D02*
X167733467Y-105745670D01*
X164757900Y-104917417D02*
X167383299Y-104287115D01*
X166426556Y-105442382D02*
X166368194Y-105199290D01*
X166368194Y-105199290D02*
X166257356Y-105380162D01*
X166066741Y-105014558D02*
X166230152Y-105695217D01*
X166488776Y-105273182D02*
X166829105Y-105191476D01*
X166148447Y-105354888D02*
X166407070Y-104932853D01*
X166407070Y-104932853D02*
X166570482Y-105613511D01*
X166570482Y-105613511D02*
X166148447Y-105354888D01*
X166006096Y-110789718D02*
X168660884Y-110297682D01*
X165732743Y-109314836D02*
X168387531Y-108822800D01*
X167371637Y-109926412D02*
X167326078Y-109680598D01*
X167326078Y-109680598D02*
X167205925Y-109855422D01*
X167034705Y-109480343D02*
X167162270Y-110168622D01*
X167442627Y-109760700D02*
X167786766Y-109696918D01*
X167098488Y-109824482D02*
X167378845Y-109416561D01*
X167378845Y-109416561D02*
X167506409Y-110104839D01*
X167506409Y-110104839D02*
X167098488Y-109824482D01*
X166671896Y-115244415D02*
X169348797Y-114891994D01*
X166476107Y-113757247D02*
X169153008Y-113404827D01*
X168080747Y-114453758D02*
X168048116Y-114205897D01*
X168048116Y-114205897D02*
X167918978Y-114374193D01*
X167767623Y-113990667D02*
X167858991Y-114684679D01*
X168160313Y-114291989D02*
X168507319Y-114246305D01*
X167813307Y-114337673D02*
X168114629Y-113944983D01*
X168114629Y-113944983D02*
X168205997Y-114638995D01*
X168205997Y-114638995D02*
X167813307Y-114337673D01*
X167103642Y-119727852D02*
X169795318Y-119516012D01*
X166985953Y-118232476D02*
X169677630Y-118020636D01*
X168551942Y-119012013D02*
X168532327Y-118762783D01*
X168532327Y-118762783D02*
X168394559Y-118924090D01*
X168263483Y-118533169D02*
X168318405Y-119231011D01*
X168639865Y-118854629D02*
X168988786Y-118827168D01*
X168290944Y-118882090D02*
X168612404Y-118505708D01*
X168612404Y-118505708D02*
X168667326Y-119203550D01*
X168667326Y-119203550D02*
X168290944Y-118882090D01*
X167300152Y-124227740D02*
X169999227Y-124157062D01*
X167260887Y-122728254D02*
X169959961Y-122657576D01*
X168783932Y-123588680D02*
X168777388Y-123338766D01*
X168777388Y-123338766D02*
X168631366Y-123492641D01*
X168520929Y-123095396D02*
X168539253Y-123795156D01*
X168879971Y-123436114D02*
X169229851Y-123426952D01*
X168530091Y-123445276D02*
X168870809Y-123086234D01*
X168870809Y-123086234D02*
X168889133Y-123785994D01*
X168889133Y-123785994D02*
X168530091Y-123445276D01*
X167260887Y-128731745D02*
X169959961Y-128802423D01*
X167300152Y-127232259D02*
X169999227Y-127302937D01*
X168776079Y-128171216D02*
X168782623Y-127921302D01*
X168782623Y-127921302D02*
X168628748Y-128067324D01*
X168539253Y-127664843D02*
X168520929Y-128364603D01*
X168879971Y-128023885D02*
X169229851Y-128033047D01*
X168530091Y-128014723D02*
X168889133Y-127674005D01*
X168889133Y-127674005D02*
X168870809Y-128373765D01*
X168870809Y-128373765D02*
X168530091Y-128014723D01*
X166985953Y-133227523D02*
X169677630Y-133439363D01*
X167103642Y-131732147D02*
X169795318Y-131943987D01*
X168528404Y-132747062D02*
X168548019Y-132497832D01*
X168548019Y-132497832D02*
X168386713Y-132635601D01*
X168318405Y-132228988D02*
X168263483Y-132926830D01*
X168639865Y-132605370D02*
X168988786Y-132632831D01*
X168290944Y-132577909D02*
X168667326Y-132256449D01*
X168667326Y-132256449D02*
X168612404Y-132954291D01*
X168612404Y-132954291D02*
X168290944Y-132577909D01*
X166476107Y-137702752D02*
X169153008Y-138055172D01*
X166671896Y-136215584D02*
X169348797Y-136568005D01*
X168041590Y-137303674D02*
X168074221Y-137055813D01*
X168074221Y-137055813D02*
X167905925Y-137184951D01*
X167858991Y-136775320D02*
X167767623Y-137469332D01*
X168160313Y-137168010D02*
X168507319Y-137213694D01*
X167813307Y-137122326D02*
X168205997Y-136821004D01*
X168205997Y-136821004D02*
X168114629Y-137515016D01*
X168114629Y-137515016D02*
X167813307Y-137122326D01*
X165732743Y-142145163D02*
X168387531Y-142637199D01*
X166006096Y-140670281D02*
X168660884Y-141162317D01*
X167316966Y-141828564D02*
X167362525Y-141582750D01*
X167362525Y-141582750D02*
X167187701Y-141702903D01*
X167162270Y-141291377D02*
X167034705Y-141979656D01*
X167442627Y-141699299D02*
X167786766Y-141763081D01*
X167098488Y-141635517D02*
X167506409Y-141355160D01*
X167506409Y-141355160D02*
X167378845Y-142043438D01*
X167378845Y-142043438D02*
X167098488Y-141635517D01*
X164757900Y-146542582D02*
X167383299Y-147172884D01*
X165108068Y-145084027D02*
X167733467Y-145714329D01*
X166356522Y-146309328D02*
X166414884Y-146066235D01*
X166414884Y-146066235D02*
X166234011Y-146177074D01*
X166230152Y-145764782D02*
X166066741Y-146445441D01*
X166488776Y-146186817D02*
X166829105Y-146268523D01*
X166148447Y-146105111D02*
X166570482Y-145846488D01*
X166570482Y-145846488D02*
X166407070Y-146527146D01*
X166407070Y-146527146D02*
X166148447Y-146105111D01*
X163554250Y-150882954D02*
X166143063Y-151649796D01*
X163980273Y-149444725D02*
X166569086Y-150211566D01*
X165162889Y-150733685D02*
X165233893Y-150493980D01*
X165233893Y-150493980D02*
X165047467Y-150595201D01*
X165065191Y-150183272D02*
X164866381Y-150854446D01*
X165301373Y-150618264D02*
X165636960Y-150717669D01*
X164965786Y-150518859D02*
X165400778Y-150282677D01*
X165400778Y-150282677D02*
X165201968Y-150953851D01*
X165201968Y-150953851D02*
X164965786Y-150518859D01*
D14*
X69215000Y-143637000D02*
X75514200Y-143637000D01*
X75514200Y-143637000D02*
X75514200Y-149936200D01*
X75514200Y-149936200D02*
X69215000Y-149936200D01*
X69215000Y-149936200D02*
X69215000Y-143637000D01*
D18*
X129950476Y-107732381D02*
X130617143Y-108732381D01*
X130617143Y-107732381D02*
X129950476Y-108732381D01*
X131521905Y-108732381D02*
X130950476Y-108732381D01*
X131236190Y-108732381D02*
X131236190Y-107732381D01*
X131140952Y-107875238D01*
X131045714Y-107970476D01*
X130950476Y-108018095D01*
X129071905Y-136132381D02*
X129738572Y-137132381D01*
X129738572Y-136132381D02*
X129071905Y-137132381D01*
X130452858Y-136608571D02*
X130595715Y-136656190D01*
X130643334Y-136703810D01*
X130690953Y-136799048D01*
X130690953Y-136941905D01*
X130643334Y-137037143D01*
X130595715Y-137084762D01*
X130500477Y-137132381D01*
X130119524Y-137132381D01*
X130119524Y-136132381D01*
X130452858Y-136132381D01*
X130548096Y-136180000D01*
X130595715Y-136227619D01*
X130643334Y-136322857D01*
X130643334Y-136418095D01*
X130595715Y-136513333D01*
X130548096Y-136560952D01*
X130452858Y-136608571D01*
X130119524Y-136608571D01*
X131119524Y-136608571D02*
X131452858Y-136608571D01*
X131595715Y-137132381D02*
X131119524Y-137132381D01*
X131119524Y-136132381D01*
X131595715Y-136132381D01*
X132024286Y-136608571D02*
X132357620Y-136608571D01*
X132500477Y-137132381D02*
X132024286Y-137132381D01*
X132024286Y-136132381D01*
X132500477Y-136132381D01*
D16*
X137793912Y-113196793D02*
X138270464Y-113196793D01*
X137698601Y-113482725D02*
X138032188Y-112481965D01*
X138365775Y-113482725D01*
X138699361Y-113482725D02*
X138699361Y-112481965D01*
X138937637Y-112481965D01*
X139080603Y-112529620D01*
X139175914Y-112624930D01*
X139223569Y-112720241D01*
X139271224Y-112910862D01*
X139271224Y-113053828D01*
X139223569Y-113244449D01*
X139175914Y-113339759D01*
X139080603Y-113435070D01*
X138937637Y-113482725D01*
X138699361Y-113482725D01*
X139890742Y-112481965D02*
X139986053Y-112481965D01*
X140081363Y-112529620D01*
X140129018Y-112577275D01*
X140176674Y-112672586D01*
X140224329Y-112863207D01*
X140224329Y-113101483D01*
X140176674Y-113292104D01*
X140129018Y-113387414D01*
X140081363Y-113435070D01*
X139986053Y-113482725D01*
X139890742Y-113482725D01*
X139795432Y-113435070D01*
X139747776Y-113387414D01*
X139700121Y-113292104D01*
X139652466Y-113101483D01*
X139652466Y-112863207D01*
X139700121Y-112672586D01*
X139747776Y-112577275D01*
X139795432Y-112529620D01*
X139890742Y-112481965D01*
X137793912Y-115195773D02*
X138270464Y-115195773D01*
X137698601Y-115481705D02*
X138032188Y-114480945D01*
X138365775Y-115481705D01*
X138699361Y-115481705D02*
X138699361Y-114480945D01*
X138937637Y-114480945D01*
X139080603Y-114528600D01*
X139175914Y-114623910D01*
X139223569Y-114719221D01*
X139271224Y-114909842D01*
X139271224Y-115052808D01*
X139223569Y-115243429D01*
X139175914Y-115338739D01*
X139080603Y-115434050D01*
X138937637Y-115481705D01*
X138699361Y-115481705D01*
X140224329Y-115481705D02*
X139652466Y-115481705D01*
X139938397Y-115481705D02*
X139938397Y-114480945D01*
X139843087Y-114623910D01*
X139747776Y-114719221D01*
X139652466Y-114766876D01*
X137793912Y-119196273D02*
X138270464Y-119196273D01*
X137698601Y-119482205D02*
X138032188Y-118481445D01*
X138365775Y-119482205D01*
X138699361Y-119482205D02*
X138699361Y-118481445D01*
X138937637Y-118481445D01*
X139080603Y-118529100D01*
X139175914Y-118624410D01*
X139223569Y-118719721D01*
X139271224Y-118910342D01*
X139271224Y-119053308D01*
X139223569Y-119243929D01*
X139175914Y-119339239D01*
X139080603Y-119434550D01*
X138937637Y-119482205D01*
X138699361Y-119482205D01*
X139604811Y-118481445D02*
X140224329Y-118481445D01*
X139890742Y-118862687D01*
X140033708Y-118862687D01*
X140129018Y-118910342D01*
X140176674Y-118957997D01*
X140224329Y-119053308D01*
X140224329Y-119291584D01*
X140176674Y-119386894D01*
X140129018Y-119434550D01*
X140033708Y-119482205D01*
X139747776Y-119482205D01*
X139652466Y-119434550D01*
X139604811Y-119386894D01*
X137793912Y-117197293D02*
X138270464Y-117197293D01*
X137698601Y-117483225D02*
X138032188Y-116482465D01*
X138365775Y-117483225D01*
X138699361Y-117483225D02*
X138699361Y-116482465D01*
X138937637Y-116482465D01*
X139080603Y-116530120D01*
X139175914Y-116625430D01*
X139223569Y-116720741D01*
X139271224Y-116911362D01*
X139271224Y-117054328D01*
X139223569Y-117244949D01*
X139175914Y-117340259D01*
X139080603Y-117435570D01*
X138937637Y-117483225D01*
X138699361Y-117483225D01*
X139652466Y-116577775D02*
X139700121Y-116530120D01*
X139795432Y-116482465D01*
X140033708Y-116482465D01*
X140129018Y-116530120D01*
X140176674Y-116577775D01*
X140224329Y-116673086D01*
X140224329Y-116768396D01*
X140176674Y-116911362D01*
X139604811Y-117483225D01*
X140224329Y-117483225D01*
X136894751Y-124480925D02*
X137228338Y-125481685D01*
X137561925Y-124480925D01*
X138467374Y-125481685D02*
X138133787Y-125005132D01*
X137895511Y-125481685D02*
X137895511Y-124480925D01*
X138276753Y-124480925D01*
X138372064Y-124528580D01*
X138419719Y-124576235D01*
X138467374Y-124671546D01*
X138467374Y-124814511D01*
X138419719Y-124909822D01*
X138372064Y-124957477D01*
X138276753Y-125005132D01*
X137895511Y-125005132D01*
X138896271Y-124957477D02*
X139229858Y-124957477D01*
X139372824Y-125481685D02*
X138896271Y-125481685D01*
X138896271Y-124480925D01*
X139372824Y-124480925D01*
X140135308Y-124957477D02*
X139801721Y-124957477D01*
X139801721Y-125481685D02*
X139801721Y-124480925D01*
X140278274Y-124480925D01*
X138389602Y-126482445D02*
X138580223Y-126482445D01*
X138675534Y-126530100D01*
X138770844Y-126625410D01*
X138818499Y-126816031D01*
X138818499Y-127149618D01*
X138770844Y-127340239D01*
X138675534Y-127435550D01*
X138580223Y-127483205D01*
X138389602Y-127483205D01*
X138294292Y-127435550D01*
X138198981Y-127340239D01*
X138151326Y-127149618D01*
X138151326Y-126816031D01*
X138198981Y-126625410D01*
X138294292Y-126530100D01*
X138389602Y-126482445D01*
X139247396Y-127483205D02*
X139247396Y-126482445D01*
X139819259Y-127483205D01*
X139819259Y-126482445D01*
X131863375Y-123196773D02*
X132339927Y-123196773D01*
X131768064Y-123482705D02*
X132101651Y-122481945D01*
X132435238Y-123482705D01*
X132768824Y-123482705D02*
X132768824Y-122481945D01*
X133007100Y-122481945D01*
X133150066Y-122529600D01*
X133245377Y-122624910D01*
X133293032Y-122720221D01*
X133340687Y-122910842D01*
X133340687Y-123053808D01*
X133293032Y-123244429D01*
X133245377Y-123339739D01*
X133150066Y-123435050D01*
X133007100Y-123482705D01*
X132768824Y-123482705D01*
X134246137Y-122481945D02*
X133769584Y-122481945D01*
X133721929Y-122958497D01*
X133769584Y-122910842D01*
X133864895Y-122863187D01*
X134103171Y-122863187D01*
X134198481Y-122910842D01*
X134246137Y-122958497D01*
X134293792Y-123053808D01*
X134293792Y-123292084D01*
X134246137Y-123387394D01*
X134198481Y-123435050D01*
X134103171Y-123482705D01*
X133864895Y-123482705D01*
X133769584Y-123435050D01*
X133721929Y-123387394D01*
X135437518Y-122434290D02*
X134579723Y-123720981D01*
X135723449Y-123196773D02*
X136200001Y-123196773D01*
X135628138Y-123482705D02*
X135961725Y-122481945D01*
X136295312Y-123482705D01*
X136581243Y-123435050D02*
X136724209Y-123482705D01*
X136962485Y-123482705D01*
X137057795Y-123435050D01*
X137105451Y-123387394D01*
X137153106Y-123292084D01*
X137153106Y-123196773D01*
X137105451Y-123101463D01*
X137057795Y-123053808D01*
X136962485Y-123006152D01*
X136771864Y-122958497D01*
X136676553Y-122910842D01*
X136628898Y-122863187D01*
X136581243Y-122767876D01*
X136581243Y-122672566D01*
X136628898Y-122577255D01*
X136676553Y-122529600D01*
X136771864Y-122481945D01*
X137010140Y-122481945D01*
X137153106Y-122529600D01*
X137534348Y-123435050D02*
X137677314Y-123482705D01*
X137915590Y-123482705D01*
X138010900Y-123435050D01*
X138058556Y-123387394D01*
X138106211Y-123292084D01*
X138106211Y-123196773D01*
X138058556Y-123101463D01*
X138010900Y-123053808D01*
X137915590Y-123006152D01*
X137724969Y-122958497D01*
X137629658Y-122910842D01*
X137582003Y-122863187D01*
X137534348Y-122767876D01*
X137534348Y-122672566D01*
X137582003Y-122577255D01*
X137629658Y-122529600D01*
X137724969Y-122481945D01*
X137963245Y-122481945D01*
X138106211Y-122529600D01*
X138725729Y-122481945D02*
X138916350Y-122481945D01*
X139011661Y-122529600D01*
X139106971Y-122624910D01*
X139154626Y-122815531D01*
X139154626Y-123149118D01*
X139106971Y-123339739D01*
X139011661Y-123435050D01*
X138916350Y-123482705D01*
X138725729Y-123482705D01*
X138630419Y-123435050D01*
X138535108Y-123339739D01*
X138487453Y-123149118D01*
X138487453Y-122815531D01*
X138535108Y-122624910D01*
X138630419Y-122529600D01*
X138725729Y-122481945D01*
X140155386Y-123387394D02*
X140107731Y-123435050D01*
X139964765Y-123482705D01*
X139869455Y-123482705D01*
X139726489Y-123435050D01*
X139631178Y-123339739D01*
X139583523Y-123244429D01*
X139535868Y-123053808D01*
X139535868Y-122910842D01*
X139583523Y-122720221D01*
X139631178Y-122624910D01*
X139726489Y-122529600D01*
X139869455Y-122481945D01*
X139964765Y-122481945D01*
X140107731Y-122529600D01*
X140155386Y-122577255D01*
X138461085Y-121483725D02*
X138127498Y-121007172D01*
X137889222Y-121483725D02*
X137889222Y-120482965D01*
X138270464Y-120482965D01*
X138365775Y-120530620D01*
X138413430Y-120578275D01*
X138461085Y-120673586D01*
X138461085Y-120816551D01*
X138413430Y-120911862D01*
X138365775Y-120959517D01*
X138270464Y-121007172D01*
X137889222Y-121007172D01*
X138747016Y-120482965D02*
X139318879Y-120482965D01*
X139032948Y-121483725D02*
X139032948Y-120482965D01*
X139604811Y-121436070D02*
X139747777Y-121483725D01*
X139986053Y-121483725D01*
X140081363Y-121436070D01*
X140129019Y-121388414D01*
X140176674Y-121293104D01*
X140176674Y-121197793D01*
X140129019Y-121102483D01*
X140081363Y-121054828D01*
X139986053Y-121007172D01*
X139795432Y-120959517D01*
X139700121Y-120911862D01*
X139652466Y-120864207D01*
X139604811Y-120768896D01*
X139604811Y-120673586D01*
X139652466Y-120578275D01*
X139700121Y-120530620D01*
X139795432Y-120482965D01*
X140033708Y-120482965D01*
X140176674Y-120530620D01*
X137793912Y-131197773D02*
X138270464Y-131197773D01*
X137698601Y-131483705D02*
X138032188Y-130482945D01*
X138365775Y-131483705D01*
X138699361Y-131483705D02*
X138699361Y-130482945D01*
X138937637Y-130482945D01*
X139080603Y-130530600D01*
X139175914Y-130625910D01*
X139223569Y-130721221D01*
X139271224Y-130911842D01*
X139271224Y-131054808D01*
X139223569Y-131245429D01*
X139175914Y-131340739D01*
X139080603Y-131436050D01*
X138937637Y-131483705D01*
X138699361Y-131483705D01*
X140129018Y-130816531D02*
X140129018Y-131483705D01*
X139890742Y-130435290D02*
X139652466Y-131150118D01*
X140271984Y-131150118D01*
X138461085Y-129389414D02*
X138413430Y-129437070D01*
X138270464Y-129484725D01*
X138175154Y-129484725D01*
X138032188Y-129437070D01*
X137936877Y-129341759D01*
X137889222Y-129246449D01*
X137841567Y-129055828D01*
X137841567Y-128912862D01*
X137889222Y-128722241D01*
X137936877Y-128626930D01*
X138032188Y-128531620D01*
X138175154Y-128483965D01*
X138270464Y-128483965D01*
X138413430Y-128531620D01*
X138461085Y-128579275D01*
X138747016Y-128483965D02*
X139318879Y-128483965D01*
X139032948Y-129484725D02*
X139032948Y-128483965D01*
X139604811Y-129437070D02*
X139747777Y-129484725D01*
X139986053Y-129484725D01*
X140081363Y-129437070D01*
X140129019Y-129389414D01*
X140176674Y-129294104D01*
X140176674Y-129198793D01*
X140129019Y-129103483D01*
X140081363Y-129055828D01*
X139986053Y-129008172D01*
X139795432Y-128960517D01*
X139700121Y-128912862D01*
X139652466Y-128865207D01*
X139604811Y-128769896D01*
X139604811Y-128674586D01*
X139652466Y-128579275D01*
X139700121Y-128531620D01*
X139795432Y-128483965D01*
X140033708Y-128483965D01*
X140176674Y-128531620D01*
X121218839Y-133083905D02*
X120646976Y-133083905D01*
X120932907Y-133083905D02*
X120932907Y-132083145D01*
X120837597Y-132226110D01*
X120742286Y-132321421D01*
X120646976Y-132369076D01*
X121838357Y-132083145D02*
X121933668Y-132083145D01*
X122028978Y-132130800D01*
X122076633Y-132178455D01*
X122124289Y-132273766D01*
X122171944Y-132464387D01*
X122171944Y-132702663D01*
X122124289Y-132893284D01*
X122076633Y-132988594D01*
X122028978Y-133036250D01*
X121933668Y-133083905D01*
X121838357Y-133083905D01*
X121743047Y-133036250D01*
X121695391Y-132988594D01*
X121647736Y-132893284D01*
X121600081Y-132702663D01*
X121600081Y-132464387D01*
X121647736Y-132273766D01*
X121695391Y-132178455D01*
X121743047Y-132130800D01*
X121838357Y-132083145D01*
X140019919Y-133083905D02*
X139448056Y-133083905D01*
X139733987Y-133083905D02*
X139733987Y-132083145D01*
X139638677Y-132226110D01*
X139543366Y-132321421D01*
X139448056Y-132369076D01*
X140973024Y-133083905D02*
X140401161Y-133083905D01*
X140687092Y-133083905D02*
X140687092Y-132083145D01*
X140591782Y-132226110D01*
X140496471Y-132321421D01*
X140401161Y-132369076D01*
X139448056Y-110977075D02*
X139495711Y-110929420D01*
X139591022Y-110881765D01*
X139829298Y-110881765D01*
X139924608Y-110929420D01*
X139972264Y-110977075D01*
X140019919Y-111072386D01*
X140019919Y-111167696D01*
X139972264Y-111310662D01*
X139400401Y-111882525D01*
X140019919Y-111882525D01*
X140639437Y-110881765D02*
X140734748Y-110881765D01*
X140830058Y-110929420D01*
X140877713Y-110977075D01*
X140925369Y-111072386D01*
X140973024Y-111263007D01*
X140973024Y-111501283D01*
X140925369Y-111691904D01*
X140877713Y-111787214D01*
X140830058Y-111834870D01*
X140734748Y-111882525D01*
X140639437Y-111882525D01*
X140544127Y-111834870D01*
X140496471Y-111787214D01*
X140448816Y-111691904D01*
X140401161Y-111501283D01*
X140401161Y-111263007D01*
X140448816Y-111072386D01*
X140496471Y-110977075D01*
X140544127Y-110929420D01*
X140639437Y-110881765D01*
X121296612Y-111882525D02*
X120724749Y-111882525D01*
X121010680Y-111882525D02*
X121010680Y-110881765D01*
X120915370Y-111024730D01*
X120820059Y-111120041D01*
X120724749Y-111167696D01*
X121467154Y-129484725D02*
X121467154Y-128483965D01*
X121705430Y-128483965D01*
X121848396Y-128531620D01*
X121943707Y-128626930D01*
X121991362Y-128722241D01*
X122039017Y-128912862D01*
X122039017Y-129055828D01*
X121991362Y-129246449D01*
X121943707Y-129341759D01*
X121848396Y-129437070D01*
X121705430Y-129484725D01*
X121467154Y-129484725D01*
X122324948Y-128483965D02*
X122896811Y-128483965D01*
X122610880Y-129484725D02*
X122610880Y-128483965D01*
X123802261Y-129484725D02*
X123468674Y-129008172D01*
X123230398Y-129484725D02*
X123230398Y-128483965D01*
X123611640Y-128483965D01*
X123706951Y-128531620D01*
X123754606Y-128579275D01*
X123802261Y-128674586D01*
X123802261Y-128817551D01*
X123754606Y-128912862D01*
X123706951Y-128960517D01*
X123611640Y-129008172D01*
X123230398Y-129008172D01*
X121848397Y-130530600D02*
X121753086Y-130482945D01*
X121610121Y-130482945D01*
X121467155Y-130530600D01*
X121371844Y-130625910D01*
X121324189Y-130721221D01*
X121276534Y-130911842D01*
X121276534Y-131054808D01*
X121324189Y-131245429D01*
X121371844Y-131340739D01*
X121467155Y-131436050D01*
X121610121Y-131483705D01*
X121705431Y-131483705D01*
X121848397Y-131436050D01*
X121896052Y-131388394D01*
X121896052Y-131054808D01*
X121705431Y-131054808D01*
X122324949Y-131483705D02*
X122324949Y-130482945D01*
X122896812Y-131483705D01*
X122896812Y-130482945D01*
X123373364Y-131483705D02*
X123373364Y-130482945D01*
X123611640Y-130482945D01*
X123754606Y-130530600D01*
X123849917Y-130625910D01*
X123897572Y-130721221D01*
X123945227Y-130911842D01*
X123945227Y-131054808D01*
X123897572Y-131245429D01*
X123849917Y-131340739D01*
X123754606Y-131436050D01*
X123611640Y-131483705D01*
X123373364Y-131483705D01*
X121862185Y-121483725D02*
X121528598Y-121007172D01*
X121290322Y-121483725D02*
X121290322Y-120482965D01*
X121671564Y-120482965D01*
X121766875Y-120530620D01*
X121814530Y-120578275D01*
X121862185Y-120673586D01*
X121862185Y-120816551D01*
X121814530Y-120911862D01*
X121766875Y-120959517D01*
X121671564Y-121007172D01*
X121290322Y-121007172D01*
X122243427Y-121436070D02*
X122386393Y-121483725D01*
X122624669Y-121483725D01*
X122719979Y-121436070D01*
X122767635Y-121388414D01*
X122815290Y-121293104D01*
X122815290Y-121197793D01*
X122767635Y-121102483D01*
X122719979Y-121054828D01*
X122624669Y-121007172D01*
X122434048Y-120959517D01*
X122338737Y-120911862D01*
X122291082Y-120864207D01*
X122243427Y-120768896D01*
X122243427Y-120673586D01*
X122291082Y-120578275D01*
X122338737Y-120530620D01*
X122434048Y-120482965D01*
X122672324Y-120482965D01*
X122815290Y-120530620D01*
X123101221Y-120482965D02*
X123673084Y-120482965D01*
X123387153Y-121483725D02*
X123387153Y-120482965D01*
X121311609Y-123482705D02*
X121311609Y-122481945D01*
X121692851Y-122481945D01*
X121788162Y-122529600D01*
X121835817Y-122577255D01*
X121883472Y-122672566D01*
X121883472Y-122815531D01*
X121835817Y-122910842D01*
X121788162Y-122958497D01*
X121692851Y-123006152D01*
X121311609Y-123006152D01*
X122217059Y-122481945D02*
X122455335Y-123482705D01*
X122645956Y-122767876D01*
X122836577Y-123482705D01*
X123074853Y-122481945D01*
X123456095Y-123482705D02*
X123456095Y-122481945D01*
X123789682Y-123196773D01*
X124123269Y-122481945D01*
X124123269Y-123482705D01*
X124790442Y-122481945D02*
X124885753Y-122481945D01*
X124981063Y-122529600D01*
X125028718Y-122577255D01*
X125076374Y-122672566D01*
X125124029Y-122863187D01*
X125124029Y-123101463D01*
X125076374Y-123292084D01*
X125028718Y-123387394D01*
X124981063Y-123435050D01*
X124885753Y-123482705D01*
X124790442Y-123482705D01*
X124695132Y-123435050D01*
X124647476Y-123387394D01*
X124599821Y-123292084D01*
X124552166Y-123101463D01*
X124552166Y-122863187D01*
X124599821Y-122672566D01*
X124647476Y-122577255D01*
X124695132Y-122529600D01*
X124790442Y-122481945D01*
X126267755Y-122434290D02*
X125409960Y-123720981D01*
X127173204Y-123482705D02*
X126839617Y-123006152D01*
X126601341Y-123482705D02*
X126601341Y-122481945D01*
X126982583Y-122481945D01*
X127077894Y-122529600D01*
X127125549Y-122577255D01*
X127173204Y-122672566D01*
X127173204Y-122815531D01*
X127125549Y-122910842D01*
X127077894Y-122958497D01*
X126982583Y-123006152D01*
X126601341Y-123006152D01*
X127554446Y-123435050D02*
X127697412Y-123482705D01*
X127935688Y-123482705D01*
X128030998Y-123435050D01*
X128078654Y-123387394D01*
X128126309Y-123292084D01*
X128126309Y-123196773D01*
X128078654Y-123101463D01*
X128030998Y-123053808D01*
X127935688Y-123006152D01*
X127745067Y-122958497D01*
X127649756Y-122910842D01*
X127602101Y-122863187D01*
X127554446Y-122767876D01*
X127554446Y-122672566D01*
X127602101Y-122577255D01*
X127649756Y-122529600D01*
X127745067Y-122481945D01*
X127983343Y-122481945D01*
X128126309Y-122529600D01*
X128507551Y-123435050D02*
X128650517Y-123482705D01*
X128888793Y-123482705D01*
X128984103Y-123435050D01*
X129031759Y-123387394D01*
X129079414Y-123292084D01*
X129079414Y-123196773D01*
X129031759Y-123101463D01*
X128984103Y-123053808D01*
X128888793Y-123006152D01*
X128698172Y-122958497D01*
X128602861Y-122910842D01*
X128555206Y-122863187D01*
X128507551Y-122767876D01*
X128507551Y-122672566D01*
X128555206Y-122577255D01*
X128602861Y-122529600D01*
X128698172Y-122481945D01*
X128936448Y-122481945D01*
X129079414Y-122529600D01*
X129508311Y-123482705D02*
X129508311Y-122481945D01*
X121423249Y-127483205D02*
X121423249Y-126482445D01*
X121995112Y-127483205D01*
X121995112Y-126482445D01*
X123043527Y-127387894D02*
X122995872Y-127435550D01*
X122852906Y-127483205D01*
X122757596Y-127483205D01*
X122614630Y-127435550D01*
X122519319Y-127340239D01*
X122471664Y-127244929D01*
X122424009Y-127054308D01*
X122424009Y-126911342D01*
X122471664Y-126720721D01*
X122519319Y-126625410D01*
X122614630Y-126530100D01*
X122757596Y-126482445D01*
X122852906Y-126482445D01*
X122995872Y-126530100D01*
X123043527Y-126577755D01*
X121327938Y-125481685D02*
X121327938Y-124480925D01*
X121709180Y-124480925D01*
X121804491Y-124528580D01*
X121852146Y-124576235D01*
X121899801Y-124671546D01*
X121899801Y-124814511D01*
X121852146Y-124909822D01*
X121804491Y-124957477D01*
X121709180Y-125005132D01*
X121327938Y-125005132D01*
X122233388Y-124480925D02*
X122471664Y-125481685D01*
X122662285Y-124766856D01*
X122852906Y-125481685D01*
X123091182Y-124480925D01*
X123472424Y-125481685D02*
X123472424Y-124480925D01*
X123806011Y-125195753D01*
X124139598Y-124480925D01*
X124139598Y-125481685D01*
X125140358Y-125481685D02*
X124568495Y-125481685D01*
X124854426Y-125481685D02*
X124854426Y-124480925D01*
X124759116Y-124623890D01*
X124663805Y-124719201D01*
X124568495Y-124766856D01*
X121385633Y-117483225D02*
X121385633Y-116482465D01*
X121623909Y-116482465D01*
X121766875Y-116530120D01*
X121862186Y-116625430D01*
X121909841Y-116720741D01*
X121957496Y-116911362D01*
X121957496Y-117054328D01*
X121909841Y-117244949D01*
X121862186Y-117340259D01*
X121766875Y-117435570D01*
X121623909Y-117483225D01*
X121385633Y-117483225D01*
X122386393Y-117483225D02*
X122386393Y-116482465D01*
X122862945Y-117483225D02*
X122862945Y-116482465D01*
X123434808Y-117483225D01*
X123434808Y-116482465D01*
X121348016Y-119482205D02*
X121348016Y-118481445D01*
X121586292Y-118481445D01*
X121729258Y-118529100D01*
X121824569Y-118624410D01*
X121872224Y-118719721D01*
X121919879Y-118910342D01*
X121919879Y-119053308D01*
X121872224Y-119243929D01*
X121824569Y-119339239D01*
X121729258Y-119434550D01*
X121586292Y-119482205D01*
X121348016Y-119482205D01*
X122539397Y-118481445D02*
X122730018Y-118481445D01*
X122825329Y-118529100D01*
X122920639Y-118624410D01*
X122968294Y-118815031D01*
X122968294Y-119148618D01*
X122920639Y-119339239D01*
X122825329Y-119434550D01*
X122730018Y-119482205D01*
X122539397Y-119482205D01*
X122444087Y-119434550D01*
X122348776Y-119339239D01*
X122301121Y-119148618D01*
X122301121Y-118815031D01*
X122348776Y-118624410D01*
X122444087Y-118529100D01*
X122539397Y-118481445D01*
X123540157Y-118910342D02*
X123444846Y-118862687D01*
X123397191Y-118815031D01*
X123349536Y-118719721D01*
X123349536Y-118672066D01*
X123397191Y-118576755D01*
X123444846Y-118529100D01*
X123540157Y-118481445D01*
X123730778Y-118481445D01*
X123826088Y-118529100D01*
X123873744Y-118576755D01*
X123921399Y-118672066D01*
X123921399Y-118719721D01*
X123873744Y-118815031D01*
X123826088Y-118862687D01*
X123730778Y-118910342D01*
X123540157Y-118910342D01*
X123444846Y-118957997D01*
X123397191Y-119005652D01*
X123349536Y-119100963D01*
X123349536Y-119291584D01*
X123397191Y-119386894D01*
X123444846Y-119434550D01*
X123540157Y-119482205D01*
X123730778Y-119482205D01*
X123826088Y-119434550D01*
X123873744Y-119386894D01*
X123921399Y-119291584D01*
X123921399Y-119100963D01*
X123873744Y-119005652D01*
X123826088Y-118957997D01*
X123730778Y-118910342D01*
X121317899Y-115481705D02*
X121317899Y-114480945D01*
X121556175Y-114480945D01*
X121699141Y-114528600D01*
X121794452Y-114623910D01*
X121842107Y-114719221D01*
X121889762Y-114909842D01*
X121889762Y-115052808D01*
X121842107Y-115243429D01*
X121794452Y-115338739D01*
X121699141Y-115434050D01*
X121556175Y-115481705D01*
X121317899Y-115481705D01*
X122509280Y-114480945D02*
X122699901Y-114480945D01*
X122795212Y-114528600D01*
X122890522Y-114623910D01*
X122938177Y-114814531D01*
X122938177Y-115148118D01*
X122890522Y-115338739D01*
X122795212Y-115434050D01*
X122699901Y-115481705D01*
X122509280Y-115481705D01*
X122413970Y-115434050D01*
X122318659Y-115338739D01*
X122271004Y-115148118D01*
X122271004Y-114814531D01*
X122318659Y-114623910D01*
X122413970Y-114528600D01*
X122509280Y-114480945D01*
X123367074Y-114480945D02*
X123367074Y-115291084D01*
X123414729Y-115386394D01*
X123462385Y-115434050D01*
X123557695Y-115481705D01*
X123748316Y-115481705D01*
X123843627Y-115434050D01*
X123891282Y-115386394D01*
X123938937Y-115291084D01*
X123938937Y-114480945D01*
X124272523Y-114480945D02*
X124844386Y-114480945D01*
X124558455Y-115481705D02*
X124558455Y-114480945D01*
X121276533Y-112481965D02*
X121610120Y-113482725D01*
X121943707Y-112481965D01*
X122849156Y-113387414D02*
X122801501Y-113435070D01*
X122658535Y-113482725D01*
X122563225Y-113482725D01*
X122420259Y-113435070D01*
X122324948Y-113339759D01*
X122277293Y-113244449D01*
X122229638Y-113053828D01*
X122229638Y-112910862D01*
X122277293Y-112720241D01*
X122324948Y-112624930D01*
X122420259Y-112529620D01*
X122563225Y-112481965D01*
X122658535Y-112481965D01*
X122801501Y-112529620D01*
X122849156Y-112577275D01*
X123849916Y-113387414D02*
X123802261Y-113435070D01*
X123659295Y-113482725D01*
X123563985Y-113482725D01*
X123421019Y-113435070D01*
X123325708Y-113339759D01*
X123278053Y-113244449D01*
X123230398Y-113053828D01*
X123230398Y-112910862D01*
X123278053Y-112720241D01*
X123325708Y-112624930D01*
X123421019Y-112529620D01*
X123563985Y-112481965D01*
X123659295Y-112481965D01*
X123802261Y-112529620D01*
X123849916Y-112577275D01*
D11*
X78613095Y-142327381D02*
X78613095Y-143136905D01*
X78660714Y-143232143D01*
X78708333Y-143279762D01*
X78803571Y-143327381D01*
X78994048Y-143327381D01*
X79089286Y-143279762D01*
X79136905Y-143232143D01*
X79184524Y-143136905D01*
X79184524Y-142327381D01*
X79565476Y-142327381D02*
X80184524Y-142327381D01*
X79851190Y-142708333D01*
X79994048Y-142708333D01*
X80089286Y-142755952D01*
X80136905Y-142803571D01*
X80184524Y-142898810D01*
X80184524Y-143136905D01*
X80136905Y-143232143D01*
X80089286Y-143279762D01*
X79994048Y-143327381D01*
X79708333Y-143327381D01*
X79613095Y-143279762D01*
X79565476Y-143232143D01*
X89388915Y-140330181D02*
X88817486Y-140330181D01*
X89103200Y-140330181D02*
X89103200Y-139330181D01*
X89007962Y-139473038D01*
X88912724Y-139568276D01*
X88817486Y-139615895D01*
X56616695Y-120965981D02*
X56616695Y-121775505D01*
X56664314Y-121870743D01*
X56711933Y-121918362D01*
X56807171Y-121965981D01*
X56997648Y-121965981D01*
X57092886Y-121918362D01*
X57140505Y-121870743D01*
X57188124Y-121775505D01*
X57188124Y-120965981D01*
X58188124Y-121965981D02*
X57616695Y-121965981D01*
X57902409Y-121965981D02*
X57902409Y-120965981D01*
X57807171Y-121108838D01*
X57711933Y-121204076D01*
X57616695Y-121251695D01*
X56320095Y-93508581D02*
X56891524Y-93508581D01*
X56605809Y-94508581D02*
X56605809Y-93508581D01*
X57796286Y-94413343D02*
X57748667Y-94460962D01*
X57605810Y-94508581D01*
X57510572Y-94508581D01*
X57367714Y-94460962D01*
X57272476Y-94365724D01*
X57224857Y-94270486D01*
X57177238Y-94080010D01*
X57177238Y-93937152D01*
X57224857Y-93746676D01*
X57272476Y-93651438D01*
X57367714Y-93556200D01*
X57510572Y-93508581D01*
X57605810Y-93508581D01*
X57748667Y-93556200D01*
X57796286Y-93603819D01*
X58748667Y-94508581D02*
X58177238Y-94508581D01*
X58462952Y-94508581D02*
X58462952Y-93508581D01*
X58367714Y-93651438D01*
X58272476Y-93746676D01*
X58177238Y-93794295D01*
X92896095Y-94168981D02*
X93467524Y-94168981D01*
X93181809Y-95168981D02*
X93181809Y-94168981D01*
X94372286Y-95073743D02*
X94324667Y-95121362D01*
X94181810Y-95168981D01*
X94086572Y-95168981D01*
X93943714Y-95121362D01*
X93848476Y-95026124D01*
X93800857Y-94930886D01*
X93753238Y-94740410D01*
X93753238Y-94597552D01*
X93800857Y-94407076D01*
X93848476Y-94311838D01*
X93943714Y-94216600D01*
X94086572Y-94168981D01*
X94181810Y-94168981D01*
X94324667Y-94216600D01*
X94372286Y-94264219D01*
X94753238Y-94264219D02*
X94800857Y-94216600D01*
X94896095Y-94168981D01*
X95134191Y-94168981D01*
X95229429Y-94216600D01*
X95277048Y-94264219D01*
X95324667Y-94359457D01*
X95324667Y-94454695D01*
X95277048Y-94597552D01*
X94705619Y-95168981D01*
X95324667Y-95168981D01*
X129040095Y-93508581D02*
X129611524Y-93508581D01*
X129325809Y-94508581D02*
X129325809Y-93508581D01*
X130516286Y-94413343D02*
X130468667Y-94460962D01*
X130325810Y-94508581D01*
X130230572Y-94508581D01*
X130087714Y-94460962D01*
X129992476Y-94365724D01*
X129944857Y-94270486D01*
X129897238Y-94080010D01*
X129897238Y-93937152D01*
X129944857Y-93746676D01*
X129992476Y-93651438D01*
X130087714Y-93556200D01*
X130230572Y-93508581D01*
X130325810Y-93508581D01*
X130468667Y-93556200D01*
X130516286Y-93603819D01*
X130849619Y-93508581D02*
X131468667Y-93508581D01*
X131135333Y-93889533D01*
X131278191Y-93889533D01*
X131373429Y-93937152D01*
X131421048Y-93984771D01*
X131468667Y-94080010D01*
X131468667Y-94318105D01*
X131421048Y-94413343D01*
X131373429Y-94460962D01*
X131278191Y-94508581D01*
X130992476Y-94508581D01*
X130897238Y-94460962D01*
X130849619Y-94413343D01*
X96194571Y-140485714D02*
X96242190Y-140342857D01*
X96289810Y-140295238D01*
X96385048Y-140247619D01*
X96527905Y-140247619D01*
X96623143Y-140295238D01*
X96670762Y-140342857D01*
X96718381Y-140438095D01*
X96718381Y-140819048D01*
X95718381Y-140819048D01*
X95718381Y-140485714D01*
X95766000Y-140390476D01*
X95813619Y-140342857D01*
X95908857Y-140295238D01*
X96004095Y-140295238D01*
X96099333Y-140342857D01*
X96146952Y-140390476D01*
X96194571Y-140485714D01*
X96194571Y-140819048D01*
X95718381Y-139961905D02*
X95718381Y-139390476D01*
X96718381Y-139676191D02*
X95718381Y-139676191D01*
X96718381Y-138533333D02*
X96718381Y-139104762D01*
X96718381Y-138819048D02*
X95718381Y-138819048D01*
X95861238Y-138914286D01*
X95956476Y-139009524D01*
X96004095Y-139104762D01*
X102908267Y-107821362D02*
X103051124Y-107868981D01*
X103289220Y-107868981D01*
X103384458Y-107821362D01*
X103432077Y-107773743D01*
X103479696Y-107678505D01*
X103479696Y-107583267D01*
X103432077Y-107488029D01*
X103384458Y-107440410D01*
X103289220Y-107392790D01*
X103098743Y-107345171D01*
X103003505Y-107297552D01*
X102955886Y-107249933D01*
X102908267Y-107154695D01*
X102908267Y-107059457D01*
X102955886Y-106964219D01*
X103003505Y-106916600D01*
X103098743Y-106868981D01*
X103336839Y-106868981D01*
X103479696Y-106916600D01*
X103813029Y-106868981D02*
X104051124Y-107868981D01*
X104241601Y-107154695D01*
X104432077Y-107868981D01*
X104670172Y-106868981D01*
X105003505Y-106964219D02*
X105051124Y-106916600D01*
X105146362Y-106868981D01*
X105384458Y-106868981D01*
X105479696Y-106916600D01*
X105527315Y-106964219D01*
X105574934Y-107059457D01*
X105574934Y-107154695D01*
X105527315Y-107297552D01*
X104955886Y-107868981D01*
X105574934Y-107868981D01*
X75878394Y-104551741D02*
X75402203Y-104551741D01*
X75402203Y-103551741D01*
X76735537Y-104551741D02*
X76164108Y-104551741D01*
X76449822Y-104551741D02*
X76449822Y-103551741D01*
X76354584Y-103694598D01*
X76259346Y-103789836D01*
X76164108Y-103837455D01*
X66921143Y-110307381D02*
X66587809Y-109831190D01*
X66349714Y-110307381D02*
X66349714Y-109307381D01*
X66730667Y-109307381D01*
X66825905Y-109355000D01*
X66873524Y-109402619D01*
X66921143Y-109497857D01*
X66921143Y-109640714D01*
X66873524Y-109735952D01*
X66825905Y-109783571D01*
X66730667Y-109831190D01*
X66349714Y-109831190D01*
X67302095Y-109402619D02*
X67349714Y-109355000D01*
X67444952Y-109307381D01*
X67683048Y-109307381D01*
X67778286Y-109355000D01*
X67825905Y-109402619D01*
X67873524Y-109497857D01*
X67873524Y-109593095D01*
X67825905Y-109735952D01*
X67254476Y-110307381D01*
X67873524Y-110307381D01*
X68778286Y-109307381D02*
X68302095Y-109307381D01*
X68254476Y-109783571D01*
X68302095Y-109735952D01*
X68397333Y-109688333D01*
X68635429Y-109688333D01*
X68730667Y-109735952D01*
X68778286Y-109783571D01*
X68825905Y-109878810D01*
X68825905Y-110116905D01*
X68778286Y-110212143D01*
X68730667Y-110259762D01*
X68635429Y-110307381D01*
X68397333Y-110307381D01*
X68302095Y-110259762D01*
X68254476Y-110212143D01*
X92622143Y-112652381D02*
X92288809Y-112176190D01*
X92050714Y-112652381D02*
X92050714Y-111652381D01*
X92431667Y-111652381D01*
X92526905Y-111700000D01*
X92574524Y-111747619D01*
X92622143Y-111842857D01*
X92622143Y-111985714D01*
X92574524Y-112080952D01*
X92526905Y-112128571D01*
X92431667Y-112176190D01*
X92050714Y-112176190D01*
X93003095Y-111747619D02*
X93050714Y-111700000D01*
X93145952Y-111652381D01*
X93384048Y-111652381D01*
X93479286Y-111700000D01*
X93526905Y-111747619D01*
X93574524Y-111842857D01*
X93574524Y-111938095D01*
X93526905Y-112080952D01*
X92955476Y-112652381D01*
X93574524Y-112652381D01*
X94431667Y-111985714D02*
X94431667Y-112652381D01*
X94193571Y-111604762D02*
X93955476Y-112319048D01*
X94574524Y-112319048D01*
X92622143Y-119002381D02*
X92288809Y-118526190D01*
X92050714Y-119002381D02*
X92050714Y-118002381D01*
X92431667Y-118002381D01*
X92526905Y-118050000D01*
X92574524Y-118097619D01*
X92622143Y-118192857D01*
X92622143Y-118335714D01*
X92574524Y-118430952D01*
X92526905Y-118478571D01*
X92431667Y-118526190D01*
X92050714Y-118526190D01*
X93003095Y-118097619D02*
X93050714Y-118050000D01*
X93145952Y-118002381D01*
X93384048Y-118002381D01*
X93479286Y-118050000D01*
X93526905Y-118097619D01*
X93574524Y-118192857D01*
X93574524Y-118288095D01*
X93526905Y-118430952D01*
X92955476Y-119002381D01*
X93574524Y-119002381D01*
X93907857Y-118002381D02*
X94526905Y-118002381D01*
X94193571Y-118383333D01*
X94336429Y-118383333D01*
X94431667Y-118430952D01*
X94479286Y-118478571D01*
X94526905Y-118573810D01*
X94526905Y-118811905D01*
X94479286Y-118907143D01*
X94431667Y-118954762D01*
X94336429Y-119002381D01*
X94050714Y-119002381D01*
X93955476Y-118954762D01*
X93907857Y-118907143D01*
X98337143Y-119002381D02*
X98003809Y-118526190D01*
X97765714Y-119002381D02*
X97765714Y-118002381D01*
X98146667Y-118002381D01*
X98241905Y-118050000D01*
X98289524Y-118097619D01*
X98337143Y-118192857D01*
X98337143Y-118335714D01*
X98289524Y-118430952D01*
X98241905Y-118478571D01*
X98146667Y-118526190D01*
X97765714Y-118526190D01*
X98718095Y-118097619D02*
X98765714Y-118050000D01*
X98860952Y-118002381D01*
X99099048Y-118002381D01*
X99194286Y-118050000D01*
X99241905Y-118097619D01*
X99289524Y-118192857D01*
X99289524Y-118288095D01*
X99241905Y-118430952D01*
X98670476Y-119002381D01*
X99289524Y-119002381D01*
X99670476Y-118097619D02*
X99718095Y-118050000D01*
X99813333Y-118002381D01*
X100051429Y-118002381D01*
X100146667Y-118050000D01*
X100194286Y-118097619D01*
X100241905Y-118192857D01*
X100241905Y-118288095D01*
X100194286Y-118430952D01*
X99622857Y-119002381D01*
X100241905Y-119002381D01*
X98497143Y-105032381D02*
X98163809Y-104556190D01*
X97925714Y-105032381D02*
X97925714Y-104032381D01*
X98306667Y-104032381D01*
X98401905Y-104080000D01*
X98449524Y-104127619D01*
X98497143Y-104222857D01*
X98497143Y-104365714D01*
X98449524Y-104460952D01*
X98401905Y-104508571D01*
X98306667Y-104556190D01*
X97925714Y-104556190D01*
X98878095Y-104127619D02*
X98925714Y-104080000D01*
X99020952Y-104032381D01*
X99259048Y-104032381D01*
X99354286Y-104080000D01*
X99401905Y-104127619D01*
X99449524Y-104222857D01*
X99449524Y-104318095D01*
X99401905Y-104460952D01*
X98830476Y-105032381D01*
X99449524Y-105032381D01*
X100401905Y-105032381D02*
X99830476Y-105032381D01*
X100116190Y-105032381D02*
X100116190Y-104032381D01*
X100020952Y-104175238D01*
X99925714Y-104270476D01*
X99830476Y-104318095D01*
X98337143Y-110747381D02*
X98003809Y-110271190D01*
X97765714Y-110747381D02*
X97765714Y-109747381D01*
X98146667Y-109747381D01*
X98241905Y-109795000D01*
X98289524Y-109842619D01*
X98337143Y-109937857D01*
X98337143Y-110080714D01*
X98289524Y-110175952D01*
X98241905Y-110223571D01*
X98146667Y-110271190D01*
X97765714Y-110271190D01*
X98718095Y-109842619D02*
X98765714Y-109795000D01*
X98860952Y-109747381D01*
X99099048Y-109747381D01*
X99194286Y-109795000D01*
X99241905Y-109842619D01*
X99289524Y-109937857D01*
X99289524Y-110033095D01*
X99241905Y-110175952D01*
X98670476Y-110747381D01*
X99289524Y-110747381D01*
X99908571Y-109747381D02*
X100003810Y-109747381D01*
X100099048Y-109795000D01*
X100146667Y-109842619D01*
X100194286Y-109937857D01*
X100241905Y-110128333D01*
X100241905Y-110366429D01*
X100194286Y-110556905D01*
X100146667Y-110652143D01*
X100099048Y-110699762D01*
X100003810Y-110747381D01*
X99908571Y-110747381D01*
X99813333Y-110699762D01*
X99765714Y-110652143D01*
X99718095Y-110556905D01*
X99670476Y-110366429D01*
X99670476Y-110128333D01*
X99718095Y-109937857D01*
X99765714Y-109842619D01*
X99813333Y-109795000D01*
X99908571Y-109747381D01*
X103090743Y-119787943D02*
X103043124Y-119835562D01*
X102900267Y-119883181D01*
X102805029Y-119883181D01*
X102662171Y-119835562D01*
X102566933Y-119740324D01*
X102519314Y-119645086D01*
X102471695Y-119454610D01*
X102471695Y-119311752D01*
X102519314Y-119121276D01*
X102566933Y-119026038D01*
X102662171Y-118930800D01*
X102805029Y-118883181D01*
X102900267Y-118883181D01*
X103043124Y-118930800D01*
X103090743Y-118978419D01*
X103471695Y-118978419D02*
X103519314Y-118930800D01*
X103614552Y-118883181D01*
X103852648Y-118883181D01*
X103947886Y-118930800D01*
X103995505Y-118978419D01*
X104043124Y-119073657D01*
X104043124Y-119168895D01*
X103995505Y-119311752D01*
X103424076Y-119883181D01*
X104043124Y-119883181D01*
X104995505Y-119883181D02*
X104424076Y-119883181D01*
X104709790Y-119883181D02*
X104709790Y-118883181D01*
X104614552Y-119026038D01*
X104519314Y-119121276D01*
X104424076Y-119168895D01*
X76112143Y-120907381D02*
X75778809Y-120431190D01*
X75540714Y-120907381D02*
X75540714Y-119907381D01*
X75921667Y-119907381D01*
X76016905Y-119955000D01*
X76064524Y-120002619D01*
X76112143Y-120097857D01*
X76112143Y-120240714D01*
X76064524Y-120335952D01*
X76016905Y-120383571D01*
X75921667Y-120431190D01*
X75540714Y-120431190D01*
X77064524Y-120907381D02*
X76493095Y-120907381D01*
X76778809Y-120907381D02*
X76778809Y-119907381D01*
X76683571Y-120050238D01*
X76588333Y-120145476D01*
X76493095Y-120193095D01*
X77540714Y-120907381D02*
X77731190Y-120907381D01*
X77826429Y-120859762D01*
X77874048Y-120812143D01*
X77969286Y-120669286D01*
X78016905Y-120478810D01*
X78016905Y-120097857D01*
X77969286Y-120002619D01*
X77921667Y-119955000D01*
X77826429Y-119907381D01*
X77635952Y-119907381D01*
X77540714Y-119955000D01*
X77493095Y-120002619D01*
X77445476Y-120097857D01*
X77445476Y-120335952D01*
X77493095Y-120431190D01*
X77540714Y-120478810D01*
X77635952Y-120526429D01*
X77826429Y-120526429D01*
X77921667Y-120478810D01*
X77969286Y-120431190D01*
X78016905Y-120335952D01*
X157497543Y-88691981D02*
X157164209Y-88215790D01*
X156926114Y-88691981D02*
X156926114Y-87691981D01*
X157307067Y-87691981D01*
X157402305Y-87739600D01*
X157449924Y-87787219D01*
X157497543Y-87882457D01*
X157497543Y-88025314D01*
X157449924Y-88120552D01*
X157402305Y-88168171D01*
X157307067Y-88215790D01*
X156926114Y-88215790D01*
X158449924Y-88691981D02*
X157878495Y-88691981D01*
X158164209Y-88691981D02*
X158164209Y-87691981D01*
X158068971Y-87834838D01*
X157973733Y-87930076D01*
X157878495Y-87977695D01*
X159021352Y-88120552D02*
X158926114Y-88072933D01*
X158878495Y-88025314D01*
X158830876Y-87930076D01*
X158830876Y-87882457D01*
X158878495Y-87787219D01*
X158926114Y-87739600D01*
X159021352Y-87691981D01*
X159211829Y-87691981D01*
X159307067Y-87739600D01*
X159354686Y-87787219D01*
X159402305Y-87882457D01*
X159402305Y-87930076D01*
X159354686Y-88025314D01*
X159307067Y-88072933D01*
X159211829Y-88120552D01*
X159021352Y-88120552D01*
X158926114Y-88168171D01*
X158878495Y-88215790D01*
X158830876Y-88311029D01*
X158830876Y-88501505D01*
X158878495Y-88596743D01*
X158926114Y-88644362D01*
X159021352Y-88691981D01*
X159211829Y-88691981D01*
X159307067Y-88644362D01*
X159354686Y-88596743D01*
X159402305Y-88501505D01*
X159402305Y-88311029D01*
X159354686Y-88215790D01*
X159307067Y-88168171D01*
X159211829Y-88120552D01*
X92487905Y-104002381D02*
X92487905Y-104811905D01*
X92535524Y-104907143D01*
X92583143Y-104954762D01*
X92678381Y-105002381D01*
X92868858Y-105002381D01*
X92964096Y-104954762D01*
X93011715Y-104907143D01*
X93059334Y-104811905D01*
X93059334Y-104002381D01*
X94059334Y-105002381D02*
X93487905Y-105002381D01*
X93773619Y-105002381D02*
X93773619Y-104002381D01*
X93678381Y-104145238D01*
X93583143Y-104240476D01*
X93487905Y-104288095D01*
X94392667Y-104002381D02*
X95011715Y-104002381D01*
X94678381Y-104383333D01*
X94821239Y-104383333D01*
X94916477Y-104430952D01*
X94964096Y-104478571D01*
X95011715Y-104573810D01*
X95011715Y-104811905D01*
X94964096Y-104907143D01*
X94916477Y-104954762D01*
X94821239Y-105002381D01*
X94535524Y-105002381D01*
X94440286Y-104954762D01*
X94392667Y-104907143D01*
X118243362Y-109488219D02*
X118148124Y-109440600D01*
X118052886Y-109345362D01*
X117910029Y-109202505D01*
X117814790Y-109154886D01*
X117719552Y-109154886D01*
X117767171Y-109392981D02*
X117671933Y-109345362D01*
X117576695Y-109250124D01*
X117529076Y-109059648D01*
X117529076Y-108726314D01*
X117576695Y-108535838D01*
X117671933Y-108440600D01*
X117767171Y-108392981D01*
X117957648Y-108392981D01*
X118052886Y-108440600D01*
X118148124Y-108535838D01*
X118195743Y-108726314D01*
X118195743Y-109059648D01*
X118148124Y-109250124D01*
X118052886Y-109345362D01*
X117957648Y-109392981D01*
X117767171Y-109392981D01*
X119148124Y-109392981D02*
X118576695Y-109392981D01*
X118862409Y-109392981D02*
X118862409Y-108392981D01*
X118767171Y-108535838D01*
X118671933Y-108631076D01*
X118576695Y-108678695D01*
X143110105Y-97140781D02*
X143110105Y-97950305D01*
X143157724Y-98045543D01*
X143205343Y-98093162D01*
X143300581Y-98140781D01*
X143491058Y-98140781D01*
X143586296Y-98093162D01*
X143633915Y-98045543D01*
X143681534Y-97950305D01*
X143681534Y-97140781D01*
X144681534Y-98140781D02*
X144110105Y-98140781D01*
X144395819Y-98140781D02*
X144395819Y-97140781D01*
X144300581Y-97283638D01*
X144205343Y-97378876D01*
X144110105Y-97426495D01*
X145062486Y-97236019D02*
X145110105Y-97188400D01*
X145205343Y-97140781D01*
X145443439Y-97140781D01*
X145538677Y-97188400D01*
X145586296Y-97236019D01*
X145633915Y-97331257D01*
X145633915Y-97426495D01*
X145586296Y-97569352D01*
X145014867Y-98140781D01*
X145633915Y-98140781D01*
X106915905Y-97013781D02*
X106915905Y-97823305D01*
X106963524Y-97918543D01*
X107011143Y-97966162D01*
X107106381Y-98013781D01*
X107296858Y-98013781D01*
X107392096Y-97966162D01*
X107439715Y-97918543D01*
X107487334Y-97823305D01*
X107487334Y-97013781D01*
X108487334Y-98013781D02*
X107915905Y-98013781D01*
X108201619Y-98013781D02*
X108201619Y-97013781D01*
X108106381Y-97156638D01*
X108011143Y-97251876D01*
X107915905Y-97299495D01*
X109439715Y-98013781D02*
X108868286Y-98013781D01*
X109154000Y-98013781D02*
X109154000Y-97013781D01*
X109058762Y-97156638D01*
X108963524Y-97251876D01*
X108868286Y-97299495D01*
X70974105Y-97140781D02*
X70974105Y-97950305D01*
X71021724Y-98045543D01*
X71069343Y-98093162D01*
X71164581Y-98140781D01*
X71355058Y-98140781D01*
X71450296Y-98093162D01*
X71497915Y-98045543D01*
X71545534Y-97950305D01*
X71545534Y-97140781D01*
X72545534Y-98140781D02*
X71974105Y-98140781D01*
X72259819Y-98140781D02*
X72259819Y-97140781D01*
X72164581Y-97283638D01*
X72069343Y-97378876D01*
X71974105Y-97426495D01*
X73164581Y-97140781D02*
X73259820Y-97140781D01*
X73355058Y-97188400D01*
X73402677Y-97236019D01*
X73450296Y-97331257D01*
X73497915Y-97521733D01*
X73497915Y-97759829D01*
X73450296Y-97950305D01*
X73402677Y-98045543D01*
X73355058Y-98093162D01*
X73259820Y-98140781D01*
X73164581Y-98140781D01*
X73069343Y-98093162D01*
X73021724Y-98045543D01*
X72974105Y-97950305D01*
X72926486Y-97759829D01*
X72926486Y-97521733D01*
X72974105Y-97331257D01*
X73021724Y-97236019D01*
X73069343Y-97188400D01*
X73164581Y-97140781D01*
X60753667Y-100468181D02*
X60753667Y-101182467D01*
X60706047Y-101325324D01*
X60610809Y-101420562D01*
X60467952Y-101468181D01*
X60372714Y-101468181D01*
X61134619Y-100468181D02*
X61753667Y-100468181D01*
X61420333Y-100849133D01*
X61563191Y-100849133D01*
X61658429Y-100896752D01*
X61706048Y-100944371D01*
X61753667Y-101039610D01*
X61753667Y-101277705D01*
X61706048Y-101372943D01*
X61658429Y-101420562D01*
X61563191Y-101468181D01*
X61277476Y-101468181D01*
X61182238Y-101420562D01*
X61134619Y-101372943D01*
X145542095Y-85868381D02*
X145542095Y-86677905D01*
X145589714Y-86773143D01*
X145637333Y-86820762D01*
X145732571Y-86868381D01*
X145923048Y-86868381D01*
X146018286Y-86820762D01*
X146065905Y-86773143D01*
X146113524Y-86677905D01*
X146113524Y-85868381D01*
X146637333Y-86868381D02*
X146827809Y-86868381D01*
X146923048Y-86820762D01*
X146970667Y-86773143D01*
X147065905Y-86630286D01*
X147113524Y-86439810D01*
X147113524Y-86058857D01*
X147065905Y-85963619D01*
X147018286Y-85916000D01*
X146923048Y-85868381D01*
X146732571Y-85868381D01*
X146637333Y-85916000D01*
X146589714Y-85963619D01*
X146542095Y-86058857D01*
X146542095Y-86296952D01*
X146589714Y-86392190D01*
X146637333Y-86439810D01*
X146732571Y-86487429D01*
X146923048Y-86487429D01*
X147018286Y-86439810D01*
X147065905Y-86392190D01*
X147113524Y-86296952D01*
X109220095Y-86122381D02*
X109220095Y-86931905D01*
X109267714Y-87027143D01*
X109315333Y-87074762D01*
X109410571Y-87122381D01*
X109601048Y-87122381D01*
X109696286Y-87074762D01*
X109743905Y-87027143D01*
X109791524Y-86931905D01*
X109791524Y-86122381D01*
X110410571Y-86550952D02*
X110315333Y-86503333D01*
X110267714Y-86455714D01*
X110220095Y-86360476D01*
X110220095Y-86312857D01*
X110267714Y-86217619D01*
X110315333Y-86170000D01*
X110410571Y-86122381D01*
X110601048Y-86122381D01*
X110696286Y-86170000D01*
X110743905Y-86217619D01*
X110791524Y-86312857D01*
X110791524Y-86360476D01*
X110743905Y-86455714D01*
X110696286Y-86503333D01*
X110601048Y-86550952D01*
X110410571Y-86550952D01*
X110315333Y-86598571D01*
X110267714Y-86646190D01*
X110220095Y-86741429D01*
X110220095Y-86931905D01*
X110267714Y-87027143D01*
X110315333Y-87074762D01*
X110410571Y-87122381D01*
X110601048Y-87122381D01*
X110696286Y-87074762D01*
X110743905Y-87027143D01*
X110791524Y-86931905D01*
X110791524Y-86741429D01*
X110743905Y-86646190D01*
X110696286Y-86598571D01*
X110601048Y-86550952D01*
X73152095Y-86122381D02*
X73152095Y-86931905D01*
X73199714Y-87027143D01*
X73247333Y-87074762D01*
X73342571Y-87122381D01*
X73533048Y-87122381D01*
X73628286Y-87074762D01*
X73675905Y-87027143D01*
X73723524Y-86931905D01*
X73723524Y-86122381D01*
X74104476Y-86122381D02*
X74771143Y-86122381D01*
X74342571Y-87122381D01*
X62772095Y-104852381D02*
X62772095Y-105661905D01*
X62819714Y-105757143D01*
X62867333Y-105804762D01*
X62962571Y-105852381D01*
X63153048Y-105852381D01*
X63248286Y-105804762D01*
X63295905Y-105757143D01*
X63343524Y-105661905D01*
X63343524Y-104852381D01*
X64248286Y-104852381D02*
X64057809Y-104852381D01*
X63962571Y-104900000D01*
X63914952Y-104947619D01*
X63819714Y-105090476D01*
X63772095Y-105280952D01*
X63772095Y-105661905D01*
X63819714Y-105757143D01*
X63867333Y-105804762D01*
X63962571Y-105852381D01*
X64153048Y-105852381D01*
X64248286Y-105804762D01*
X64295905Y-105757143D01*
X64343524Y-105661905D01*
X64343524Y-105423810D01*
X64295905Y-105328571D01*
X64248286Y-105280952D01*
X64153048Y-105233333D01*
X63962571Y-105233333D01*
X63867333Y-105280952D01*
X63819714Y-105328571D01*
X63772095Y-105423810D01*
X114164905Y-106640381D02*
X114164905Y-105640381D01*
X114403000Y-105640381D01*
X114545858Y-105688000D01*
X114641096Y-105783238D01*
X114688715Y-105878476D01*
X114736334Y-106068952D01*
X114736334Y-106211810D01*
X114688715Y-106402286D01*
X114641096Y-106497524D01*
X114545858Y-106592762D01*
X114403000Y-106640381D01*
X114164905Y-106640381D01*
X115688715Y-106640381D02*
X115117286Y-106640381D01*
X115403000Y-106640381D02*
X115403000Y-105640381D01*
X115307762Y-105783238D01*
X115212524Y-105878476D01*
X115117286Y-105926095D01*
X115520095Y-137110381D02*
X115520095Y-137919905D01*
X115567714Y-138015143D01*
X115615333Y-138062762D01*
X115710571Y-138110381D01*
X115901048Y-138110381D01*
X115996286Y-138062762D01*
X116043905Y-138015143D01*
X116091524Y-137919905D01*
X116091524Y-137110381D01*
X117043905Y-137110381D02*
X116567714Y-137110381D01*
X116520095Y-137586571D01*
X116567714Y-137538952D01*
X116662952Y-137491333D01*
X116901048Y-137491333D01*
X116996286Y-137538952D01*
X117043905Y-137586571D01*
X117091524Y-137681810D01*
X117091524Y-137919905D01*
X117043905Y-138015143D01*
X116996286Y-138062762D01*
X116901048Y-138110381D01*
X116662952Y-138110381D01*
X116567714Y-138062762D01*
X116520095Y-138015143D01*
X70605095Y-112284381D02*
X70605095Y-113093905D01*
X70652714Y-113189143D01*
X70700333Y-113236762D01*
X70795571Y-113284381D01*
X70986048Y-113284381D01*
X71081286Y-113236762D01*
X71128905Y-113189143D01*
X71176524Y-113093905D01*
X71176524Y-112284381D01*
X72081286Y-112617714D02*
X72081286Y-113284381D01*
X71843190Y-112236762D02*
X71605095Y-112951048D01*
X72224143Y-112951048D01*
X157548343Y-90927181D02*
X157215009Y-90450990D01*
X156976914Y-90927181D02*
X156976914Y-89927181D01*
X157357867Y-89927181D01*
X157453105Y-89974800D01*
X157500724Y-90022419D01*
X157548343Y-90117657D01*
X157548343Y-90260514D01*
X157500724Y-90355752D01*
X157453105Y-90403371D01*
X157357867Y-90450990D01*
X156976914Y-90450990D01*
X158500724Y-90927181D02*
X157929295Y-90927181D01*
X158215009Y-90927181D02*
X158215009Y-89927181D01*
X158119771Y-90070038D01*
X158024533Y-90165276D01*
X157929295Y-90212895D01*
X158834057Y-89927181D02*
X159500724Y-89927181D01*
X159072152Y-90927181D01*
X122089943Y-89047581D02*
X121756609Y-88571390D01*
X121518514Y-89047581D02*
X121518514Y-88047581D01*
X121899467Y-88047581D01*
X121994705Y-88095200D01*
X122042324Y-88142819D01*
X122089943Y-88238057D01*
X122089943Y-88380914D01*
X122042324Y-88476152D01*
X121994705Y-88523771D01*
X121899467Y-88571390D01*
X121518514Y-88571390D01*
X123042324Y-89047581D02*
X122470895Y-89047581D01*
X122756609Y-89047581D02*
X122756609Y-88047581D01*
X122661371Y-88190438D01*
X122566133Y-88285676D01*
X122470895Y-88333295D01*
X123899467Y-88047581D02*
X123708990Y-88047581D01*
X123613752Y-88095200D01*
X123566133Y-88142819D01*
X123470895Y-88285676D01*
X123423276Y-88476152D01*
X123423276Y-88857105D01*
X123470895Y-88952343D01*
X123518514Y-88999962D01*
X123613752Y-89047581D01*
X123804229Y-89047581D01*
X123899467Y-88999962D01*
X123947086Y-88952343D01*
X123994705Y-88857105D01*
X123994705Y-88619010D01*
X123947086Y-88523771D01*
X123899467Y-88476152D01*
X123804229Y-88428533D01*
X123613752Y-88428533D01*
X123518514Y-88476152D01*
X123470895Y-88523771D01*
X123423276Y-88619010D01*
X122039143Y-91282781D02*
X121705809Y-90806590D01*
X121467714Y-91282781D02*
X121467714Y-90282781D01*
X121848667Y-90282781D01*
X121943905Y-90330400D01*
X121991524Y-90378019D01*
X122039143Y-90473257D01*
X122039143Y-90616114D01*
X121991524Y-90711352D01*
X121943905Y-90758971D01*
X121848667Y-90806590D01*
X121467714Y-90806590D01*
X122991524Y-91282781D02*
X122420095Y-91282781D01*
X122705809Y-91282781D02*
X122705809Y-90282781D01*
X122610571Y-90425638D01*
X122515333Y-90520876D01*
X122420095Y-90568495D01*
X123896286Y-90282781D02*
X123420095Y-90282781D01*
X123372476Y-90758971D01*
X123420095Y-90711352D01*
X123515333Y-90663733D01*
X123753429Y-90663733D01*
X123848667Y-90711352D01*
X123896286Y-90758971D01*
X123943905Y-90854210D01*
X123943905Y-91092305D01*
X123896286Y-91187543D01*
X123848667Y-91235162D01*
X123753429Y-91282781D01*
X123515333Y-91282781D01*
X123420095Y-91235162D01*
X123372476Y-91187543D01*
X86047343Y-89352381D02*
X85714009Y-88876190D01*
X85475914Y-89352381D02*
X85475914Y-88352381D01*
X85856867Y-88352381D01*
X85952105Y-88400000D01*
X85999724Y-88447619D01*
X86047343Y-88542857D01*
X86047343Y-88685714D01*
X85999724Y-88780952D01*
X85952105Y-88828571D01*
X85856867Y-88876190D01*
X85475914Y-88876190D01*
X86999724Y-89352381D02*
X86428295Y-89352381D01*
X86714009Y-89352381D02*
X86714009Y-88352381D01*
X86618771Y-88495238D01*
X86523533Y-88590476D01*
X86428295Y-88638095D01*
X87856867Y-88685714D02*
X87856867Y-89352381D01*
X87618771Y-88304762D02*
X87380676Y-89019048D01*
X87999724Y-89019048D01*
X86047343Y-91765381D02*
X85714009Y-91289190D01*
X85475914Y-91765381D02*
X85475914Y-90765381D01*
X85856867Y-90765381D01*
X85952105Y-90813000D01*
X85999724Y-90860619D01*
X86047343Y-90955857D01*
X86047343Y-91098714D01*
X85999724Y-91193952D01*
X85952105Y-91241571D01*
X85856867Y-91289190D01*
X85475914Y-91289190D01*
X86999724Y-91765381D02*
X86428295Y-91765381D01*
X86714009Y-91765381D02*
X86714009Y-90765381D01*
X86618771Y-90908238D01*
X86523533Y-91003476D01*
X86428295Y-91051095D01*
X87333057Y-90765381D02*
X87952105Y-90765381D01*
X87618771Y-91146333D01*
X87761629Y-91146333D01*
X87856867Y-91193952D01*
X87904486Y-91241571D01*
X87952105Y-91336810D01*
X87952105Y-91574905D01*
X87904486Y-91670143D01*
X87856867Y-91717762D01*
X87761629Y-91765381D01*
X87475914Y-91765381D01*
X87380676Y-91717762D01*
X87333057Y-91670143D01*
X84891667Y-145013371D02*
X84558333Y-145013371D01*
X84558333Y-145537181D02*
X84558333Y-144537181D01*
X85034524Y-144537181D01*
X85748810Y-145013371D02*
X85891667Y-145060990D01*
X85939286Y-145108610D01*
X85986905Y-145203848D01*
X85986905Y-145346705D01*
X85939286Y-145441943D01*
X85891667Y-145489562D01*
X85796429Y-145537181D01*
X85415476Y-145537181D01*
X85415476Y-144537181D01*
X85748810Y-144537181D01*
X85844048Y-144584800D01*
X85891667Y-144632419D01*
X85939286Y-144727657D01*
X85939286Y-144822895D01*
X85891667Y-144918133D01*
X85844048Y-144965752D01*
X85748810Y-145013371D01*
X85415476Y-145013371D01*
X86320238Y-144537181D02*
X86986905Y-144537181D01*
X86558333Y-145537181D01*
X135818667Y-85780571D02*
X135485333Y-85780571D01*
X135485333Y-86304381D02*
X135485333Y-85304381D01*
X135961524Y-85304381D01*
X136675810Y-85780571D02*
X136818667Y-85828190D01*
X136866286Y-85875810D01*
X136913905Y-85971048D01*
X136913905Y-86113905D01*
X136866286Y-86209143D01*
X136818667Y-86256762D01*
X136723429Y-86304381D01*
X136342476Y-86304381D01*
X136342476Y-85304381D01*
X136675810Y-85304381D01*
X136771048Y-85352000D01*
X136818667Y-85399619D01*
X136866286Y-85494857D01*
X136866286Y-85590095D01*
X136818667Y-85685333D01*
X136771048Y-85732952D01*
X136675810Y-85780571D01*
X136342476Y-85780571D01*
X137771048Y-85304381D02*
X137580571Y-85304381D01*
X137485333Y-85352000D01*
X137437714Y-85399619D01*
X137342476Y-85542476D01*
X137294857Y-85732952D01*
X137294857Y-86113905D01*
X137342476Y-86209143D01*
X137390095Y-86256762D01*
X137485333Y-86304381D01*
X137675810Y-86304381D01*
X137771048Y-86256762D01*
X137818667Y-86209143D01*
X137866286Y-86113905D01*
X137866286Y-85875810D01*
X137818667Y-85780571D01*
X137771048Y-85732952D01*
X137675810Y-85685333D01*
X137485333Y-85685333D01*
X137390095Y-85732952D01*
X137342476Y-85780571D01*
X137294857Y-85875810D01*
X135945667Y-93781571D02*
X135612333Y-93781571D01*
X135612333Y-94305381D02*
X135612333Y-93305381D01*
X136088524Y-93305381D01*
X136802810Y-93781571D02*
X136945667Y-93829190D01*
X136993286Y-93876810D01*
X137040905Y-93972048D01*
X137040905Y-94114905D01*
X136993286Y-94210143D01*
X136945667Y-94257762D01*
X136850429Y-94305381D01*
X136469476Y-94305381D01*
X136469476Y-93305381D01*
X136802810Y-93305381D01*
X136898048Y-93353000D01*
X136945667Y-93400619D01*
X136993286Y-93495857D01*
X136993286Y-93591095D01*
X136945667Y-93686333D01*
X136898048Y-93733952D01*
X136802810Y-93781571D01*
X136469476Y-93781571D01*
X137945667Y-93305381D02*
X137469476Y-93305381D01*
X137421857Y-93781571D01*
X137469476Y-93733952D01*
X137564714Y-93686333D01*
X137802810Y-93686333D01*
X137898048Y-93733952D01*
X137945667Y-93781571D01*
X137993286Y-93876810D01*
X137993286Y-94114905D01*
X137945667Y-94210143D01*
X137898048Y-94257762D01*
X137802810Y-94305381D01*
X137564714Y-94305381D01*
X137469476Y-94257762D01*
X137421857Y-94210143D01*
X99750667Y-86728571D02*
X99417333Y-86728571D01*
X99417333Y-87252381D02*
X99417333Y-86252381D01*
X99893524Y-86252381D01*
X100607810Y-86728571D02*
X100750667Y-86776190D01*
X100798286Y-86823810D01*
X100845905Y-86919048D01*
X100845905Y-87061905D01*
X100798286Y-87157143D01*
X100750667Y-87204762D01*
X100655429Y-87252381D01*
X100274476Y-87252381D01*
X100274476Y-86252381D01*
X100607810Y-86252381D01*
X100703048Y-86300000D01*
X100750667Y-86347619D01*
X100798286Y-86442857D01*
X100798286Y-86538095D01*
X100750667Y-86633333D01*
X100703048Y-86680952D01*
X100607810Y-86728571D01*
X100274476Y-86728571D01*
X101703048Y-86585714D02*
X101703048Y-87252381D01*
X101464952Y-86204762D02*
X101226857Y-86919048D01*
X101845905Y-86919048D01*
X99776067Y-95178571D02*
X99442733Y-95178571D01*
X99442733Y-95702381D02*
X99442733Y-94702381D01*
X99918924Y-94702381D01*
X100633210Y-95178571D02*
X100776067Y-95226190D01*
X100823686Y-95273810D01*
X100871305Y-95369048D01*
X100871305Y-95511905D01*
X100823686Y-95607143D01*
X100776067Y-95654762D01*
X100680829Y-95702381D01*
X100299876Y-95702381D01*
X100299876Y-94702381D01*
X100633210Y-94702381D01*
X100728448Y-94750000D01*
X100776067Y-94797619D01*
X100823686Y-94892857D01*
X100823686Y-94988095D01*
X100776067Y-95083333D01*
X100728448Y-95130952D01*
X100633210Y-95178571D01*
X100299876Y-95178571D01*
X101204638Y-94702381D02*
X101823686Y-94702381D01*
X101490352Y-95083333D01*
X101633210Y-95083333D01*
X101728448Y-95130952D01*
X101776067Y-95178571D01*
X101823686Y-95273810D01*
X101823686Y-95511905D01*
X101776067Y-95607143D01*
X101728448Y-95654762D01*
X101633210Y-95702381D01*
X101347495Y-95702381D01*
X101252257Y-95654762D01*
X101204638Y-95607143D01*
X63174667Y-85966571D02*
X62841333Y-85966571D01*
X62841333Y-86490381D02*
X62841333Y-85490381D01*
X63317524Y-85490381D01*
X64031810Y-85966571D02*
X64174667Y-86014190D01*
X64222286Y-86061810D01*
X64269905Y-86157048D01*
X64269905Y-86299905D01*
X64222286Y-86395143D01*
X64174667Y-86442762D01*
X64079429Y-86490381D01*
X63698476Y-86490381D01*
X63698476Y-85490381D01*
X64031810Y-85490381D01*
X64127048Y-85538000D01*
X64174667Y-85585619D01*
X64222286Y-85680857D01*
X64222286Y-85776095D01*
X64174667Y-85871333D01*
X64127048Y-85918952D01*
X64031810Y-85966571D01*
X63698476Y-85966571D01*
X64650857Y-85585619D02*
X64698476Y-85538000D01*
X64793714Y-85490381D01*
X65031810Y-85490381D01*
X65127048Y-85538000D01*
X65174667Y-85585619D01*
X65222286Y-85680857D01*
X65222286Y-85776095D01*
X65174667Y-85918952D01*
X64603238Y-86490381D01*
X65222286Y-86490381D01*
X63225467Y-94568971D02*
X62892133Y-94568971D01*
X62892133Y-95092781D02*
X62892133Y-94092781D01*
X63368324Y-94092781D01*
X64082610Y-94568971D02*
X64225467Y-94616590D01*
X64273086Y-94664210D01*
X64320705Y-94759448D01*
X64320705Y-94902305D01*
X64273086Y-94997543D01*
X64225467Y-95045162D01*
X64130229Y-95092781D01*
X63749276Y-95092781D01*
X63749276Y-94092781D01*
X64082610Y-94092781D01*
X64177848Y-94140400D01*
X64225467Y-94188019D01*
X64273086Y-94283257D01*
X64273086Y-94378495D01*
X64225467Y-94473733D01*
X64177848Y-94521352D01*
X64082610Y-94568971D01*
X63749276Y-94568971D01*
X65273086Y-95092781D02*
X64701657Y-95092781D01*
X64987371Y-95092781D02*
X64987371Y-94092781D01*
X64892133Y-94235638D01*
X64796895Y-94330876D01*
X64701657Y-94378495D01*
X111350467Y-116997171D02*
X111017133Y-116997171D01*
X111017133Y-117520981D02*
X111017133Y-116520981D01*
X111493324Y-116520981D01*
X112398086Y-117520981D02*
X111826657Y-117520981D01*
X112112371Y-117520981D02*
X112112371Y-116520981D01*
X112017133Y-116663838D01*
X111921895Y-116759076D01*
X111826657Y-116806695D01*
X106545143Y-119838743D02*
X106497524Y-119886362D01*
X106354667Y-119933981D01*
X106259429Y-119933981D01*
X106116571Y-119886362D01*
X106021333Y-119791124D01*
X105973714Y-119695886D01*
X105926095Y-119505410D01*
X105926095Y-119362552D01*
X105973714Y-119172076D01*
X106021333Y-119076838D01*
X106116571Y-118981600D01*
X106259429Y-118933981D01*
X106354667Y-118933981D01*
X106497524Y-118981600D01*
X106545143Y-119029219D01*
X106926095Y-119029219D02*
X106973714Y-118981600D01*
X107068952Y-118933981D01*
X107307048Y-118933981D01*
X107402286Y-118981600D01*
X107449905Y-119029219D01*
X107497524Y-119124457D01*
X107497524Y-119219695D01*
X107449905Y-119362552D01*
X106878476Y-119933981D01*
X107497524Y-119933981D01*
X108116571Y-118933981D02*
X108211810Y-118933981D01*
X108307048Y-118981600D01*
X108354667Y-119029219D01*
X108402286Y-119124457D01*
X108449905Y-119314933D01*
X108449905Y-119553029D01*
X108402286Y-119743505D01*
X108354667Y-119838743D01*
X108307048Y-119886362D01*
X108211810Y-119933981D01*
X108116571Y-119933981D01*
X108021333Y-119886362D01*
X107973714Y-119838743D01*
X107926095Y-119743505D01*
X107878476Y-119553029D01*
X107878476Y-119314933D01*
X107926095Y-119124457D01*
X107973714Y-119029219D01*
X108021333Y-118981600D01*
X108116571Y-118933981D01*
X139946143Y-94718143D02*
X139898524Y-94765762D01*
X139755667Y-94813381D01*
X139660429Y-94813381D01*
X139517571Y-94765762D01*
X139422333Y-94670524D01*
X139374714Y-94575286D01*
X139327095Y-94384810D01*
X139327095Y-94241952D01*
X139374714Y-94051476D01*
X139422333Y-93956238D01*
X139517571Y-93861000D01*
X139660429Y-93813381D01*
X139755667Y-93813381D01*
X139898524Y-93861000D01*
X139946143Y-93908619D01*
X140898524Y-94813381D02*
X140327095Y-94813381D01*
X140612809Y-94813381D02*
X140612809Y-93813381D01*
X140517571Y-93956238D01*
X140422333Y-94051476D01*
X140327095Y-94099095D01*
X141374714Y-94813381D02*
X141565190Y-94813381D01*
X141660429Y-94765762D01*
X141708048Y-94718143D01*
X141803286Y-94575286D01*
X141850905Y-94384810D01*
X141850905Y-94003857D01*
X141803286Y-93908619D01*
X141755667Y-93861000D01*
X141660429Y-93813381D01*
X141469952Y-93813381D01*
X141374714Y-93861000D01*
X141327095Y-93908619D01*
X141279476Y-94003857D01*
X141279476Y-94241952D01*
X141327095Y-94337190D01*
X141374714Y-94384810D01*
X141469952Y-94432429D01*
X141660429Y-94432429D01*
X141755667Y-94384810D01*
X141803286Y-94337190D01*
X141850905Y-94241952D01*
X103700343Y-95378543D02*
X103652724Y-95426162D01*
X103509867Y-95473781D01*
X103414629Y-95473781D01*
X103271771Y-95426162D01*
X103176533Y-95330924D01*
X103128914Y-95235686D01*
X103081295Y-95045210D01*
X103081295Y-94902352D01*
X103128914Y-94711876D01*
X103176533Y-94616638D01*
X103271771Y-94521400D01*
X103414629Y-94473781D01*
X103509867Y-94473781D01*
X103652724Y-94521400D01*
X103700343Y-94569019D01*
X104652724Y-95473781D02*
X104081295Y-95473781D01*
X104367009Y-95473781D02*
X104367009Y-94473781D01*
X104271771Y-94616638D01*
X104176533Y-94711876D01*
X104081295Y-94759495D01*
X105224152Y-94902352D02*
X105128914Y-94854733D01*
X105081295Y-94807114D01*
X105033676Y-94711876D01*
X105033676Y-94664257D01*
X105081295Y-94569019D01*
X105128914Y-94521400D01*
X105224152Y-94473781D01*
X105414629Y-94473781D01*
X105509867Y-94521400D01*
X105557486Y-94569019D01*
X105605105Y-94664257D01*
X105605105Y-94711876D01*
X105557486Y-94807114D01*
X105509867Y-94854733D01*
X105414629Y-94902352D01*
X105224152Y-94902352D01*
X105128914Y-94949971D01*
X105081295Y-94997590D01*
X105033676Y-95092829D01*
X105033676Y-95283305D01*
X105081295Y-95378543D01*
X105128914Y-95426162D01*
X105224152Y-95473781D01*
X105414629Y-95473781D01*
X105509867Y-95426162D01*
X105557486Y-95378543D01*
X105605105Y-95283305D01*
X105605105Y-95092829D01*
X105557486Y-94997590D01*
X105509867Y-94949971D01*
X105414629Y-94902352D01*
X67581543Y-94819743D02*
X67533924Y-94867362D01*
X67391067Y-94914981D01*
X67295829Y-94914981D01*
X67152971Y-94867362D01*
X67057733Y-94772124D01*
X67010114Y-94676886D01*
X66962495Y-94486410D01*
X66962495Y-94343552D01*
X67010114Y-94153076D01*
X67057733Y-94057838D01*
X67152971Y-93962600D01*
X67295829Y-93914981D01*
X67391067Y-93914981D01*
X67533924Y-93962600D01*
X67581543Y-94010219D01*
X68533924Y-94914981D02*
X67962495Y-94914981D01*
X68248209Y-94914981D02*
X68248209Y-93914981D01*
X68152971Y-94057838D01*
X68057733Y-94153076D01*
X67962495Y-94200695D01*
X68867257Y-93914981D02*
X69533924Y-93914981D01*
X69105352Y-94914981D01*
X92016343Y-127763543D02*
X91968724Y-127811162D01*
X91825867Y-127858781D01*
X91730629Y-127858781D01*
X91587771Y-127811162D01*
X91492533Y-127715924D01*
X91444914Y-127620686D01*
X91397295Y-127430210D01*
X91397295Y-127287352D01*
X91444914Y-127096876D01*
X91492533Y-127001638D01*
X91587771Y-126906400D01*
X91730629Y-126858781D01*
X91825867Y-126858781D01*
X91968724Y-126906400D01*
X92016343Y-126954019D01*
X92968724Y-127858781D02*
X92397295Y-127858781D01*
X92683009Y-127858781D02*
X92683009Y-126858781D01*
X92587771Y-127001638D01*
X92492533Y-127096876D01*
X92397295Y-127144495D01*
X93825867Y-126858781D02*
X93635390Y-126858781D01*
X93540152Y-126906400D01*
X93492533Y-126954019D01*
X93397295Y-127096876D01*
X93349676Y-127287352D01*
X93349676Y-127668305D01*
X93397295Y-127763543D01*
X93444914Y-127811162D01*
X93540152Y-127858781D01*
X93730629Y-127858781D01*
X93825867Y-127811162D01*
X93873486Y-127763543D01*
X93921105Y-127668305D01*
X93921105Y-127430210D01*
X93873486Y-127334971D01*
X93825867Y-127287352D01*
X93730629Y-127239733D01*
X93540152Y-127239733D01*
X93444914Y-127287352D01*
X93397295Y-127334971D01*
X93349676Y-127430210D01*
X132580143Y-142825743D02*
X132532524Y-142873362D01*
X132389667Y-142920981D01*
X132294429Y-142920981D01*
X132151571Y-142873362D01*
X132056333Y-142778124D01*
X132008714Y-142682886D01*
X131961095Y-142492410D01*
X131961095Y-142349552D01*
X132008714Y-142159076D01*
X132056333Y-142063838D01*
X132151571Y-141968600D01*
X132294429Y-141920981D01*
X132389667Y-141920981D01*
X132532524Y-141968600D01*
X132580143Y-142016219D01*
X133532524Y-142920981D02*
X132961095Y-142920981D01*
X133246809Y-142920981D02*
X133246809Y-141920981D01*
X133151571Y-142063838D01*
X133056333Y-142159076D01*
X132961095Y-142206695D01*
X134437286Y-141920981D02*
X133961095Y-141920981D01*
X133913476Y-142397171D01*
X133961095Y-142349552D01*
X134056333Y-142301933D01*
X134294429Y-142301933D01*
X134389667Y-142349552D01*
X134437286Y-142397171D01*
X134484905Y-142492410D01*
X134484905Y-142730505D01*
X134437286Y-142825743D01*
X134389667Y-142873362D01*
X134294429Y-142920981D01*
X134056333Y-142920981D01*
X133961095Y-142873362D01*
X133913476Y-142825743D01*
X126280943Y-147499343D02*
X126233324Y-147546962D01*
X126090467Y-147594581D01*
X125995229Y-147594581D01*
X125852371Y-147546962D01*
X125757133Y-147451724D01*
X125709514Y-147356486D01*
X125661895Y-147166010D01*
X125661895Y-147023152D01*
X125709514Y-146832676D01*
X125757133Y-146737438D01*
X125852371Y-146642200D01*
X125995229Y-146594581D01*
X126090467Y-146594581D01*
X126233324Y-146642200D01*
X126280943Y-146689819D01*
X127233324Y-147594581D02*
X126661895Y-147594581D01*
X126947609Y-147594581D02*
X126947609Y-146594581D01*
X126852371Y-146737438D01*
X126757133Y-146832676D01*
X126661895Y-146880295D01*
X128090467Y-146927914D02*
X128090467Y-147594581D01*
X127852371Y-146546962D02*
X127614276Y-147261248D01*
X128233324Y-147261248D01*
X91035143Y-105722657D02*
X91082762Y-105770276D01*
X91130381Y-105913133D01*
X91130381Y-106008371D01*
X91082762Y-106151229D01*
X90987524Y-106246467D01*
X90892286Y-106294086D01*
X90701810Y-106341705D01*
X90558952Y-106341705D01*
X90368476Y-106294086D01*
X90273238Y-106246467D01*
X90178000Y-106151229D01*
X90130381Y-106008371D01*
X90130381Y-105913133D01*
X90178000Y-105770276D01*
X90225619Y-105722657D01*
X91130381Y-104770276D02*
X91130381Y-105341705D01*
X91130381Y-105055991D02*
X90130381Y-105055991D01*
X90273238Y-105151229D01*
X90368476Y-105246467D01*
X90416095Y-105341705D01*
X90130381Y-104436943D02*
X90130381Y-103817895D01*
X90511333Y-104151229D01*
X90511333Y-104008371D01*
X90558952Y-103913133D01*
X90606571Y-103865514D01*
X90701810Y-103817895D01*
X90939905Y-103817895D01*
X91035143Y-103865514D01*
X91082762Y-103913133D01*
X91130381Y-104008371D01*
X91130381Y-104294086D01*
X91082762Y-104389324D01*
X91035143Y-104436943D01*
X59529743Y-120194343D02*
X59482124Y-120241962D01*
X59339267Y-120289581D01*
X59244029Y-120289581D01*
X59101171Y-120241962D01*
X59005933Y-120146724D01*
X58958314Y-120051486D01*
X58910695Y-119861010D01*
X58910695Y-119718152D01*
X58958314Y-119527676D01*
X59005933Y-119432438D01*
X59101171Y-119337200D01*
X59244029Y-119289581D01*
X59339267Y-119289581D01*
X59482124Y-119337200D01*
X59529743Y-119384819D01*
X60482124Y-120289581D02*
X59910695Y-120289581D01*
X60196409Y-120289581D02*
X60196409Y-119289581D01*
X60101171Y-119432438D01*
X60005933Y-119527676D01*
X59910695Y-119575295D01*
X60863076Y-119384819D02*
X60910695Y-119337200D01*
X61005933Y-119289581D01*
X61244029Y-119289581D01*
X61339267Y-119337200D01*
X61386886Y-119384819D01*
X61434505Y-119480057D01*
X61434505Y-119575295D01*
X61386886Y-119718152D01*
X60815457Y-120289581D01*
X61434505Y-120289581D01*
X84380343Y-105595657D02*
X84427962Y-105643276D01*
X84475581Y-105786133D01*
X84475581Y-105881371D01*
X84427962Y-106024229D01*
X84332724Y-106119467D01*
X84237486Y-106167086D01*
X84047010Y-106214705D01*
X83904152Y-106214705D01*
X83713676Y-106167086D01*
X83618438Y-106119467D01*
X83523200Y-106024229D01*
X83475581Y-105881371D01*
X83475581Y-105786133D01*
X83523200Y-105643276D01*
X83570819Y-105595657D01*
X84475581Y-104643276D02*
X84475581Y-105214705D01*
X84475581Y-104928991D02*
X83475581Y-104928991D01*
X83618438Y-105024229D01*
X83713676Y-105119467D01*
X83761295Y-105214705D01*
X84475581Y-103690895D02*
X84475581Y-104262324D01*
X84475581Y-103976610D02*
X83475581Y-103976610D01*
X83618438Y-104071848D01*
X83713676Y-104167086D01*
X83761295Y-104262324D01*
X77714143Y-116244857D02*
X77761762Y-116292476D01*
X77809381Y-116435333D01*
X77809381Y-116530571D01*
X77761762Y-116673429D01*
X77666524Y-116768667D01*
X77571286Y-116816286D01*
X77380810Y-116863905D01*
X77237952Y-116863905D01*
X77047476Y-116816286D01*
X76952238Y-116768667D01*
X76857000Y-116673429D01*
X76809381Y-116530571D01*
X76809381Y-116435333D01*
X76857000Y-116292476D01*
X76904619Y-116244857D01*
X77809381Y-115292476D02*
X77809381Y-115863905D01*
X77809381Y-115578191D02*
X76809381Y-115578191D01*
X76952238Y-115673429D01*
X77047476Y-115768667D01*
X77095095Y-115863905D01*
X76809381Y-114673429D02*
X76809381Y-114578190D01*
X76857000Y-114482952D01*
X76904619Y-114435333D01*
X76999857Y-114387714D01*
X77190333Y-114340095D01*
X77428429Y-114340095D01*
X77618905Y-114387714D01*
X77714143Y-114435333D01*
X77761762Y-114482952D01*
X77809381Y-114578190D01*
X77809381Y-114673429D01*
X77761762Y-114768667D01*
X77714143Y-114816286D01*
X77618905Y-114863905D01*
X77428429Y-114911524D01*
X77190333Y-114911524D01*
X76999857Y-114863905D01*
X76904619Y-114816286D01*
X76857000Y-114768667D01*
X76809381Y-114673429D01*
X67219534Y-120194343D02*
X67171915Y-120241962D01*
X67029058Y-120289581D01*
X66933820Y-120289581D01*
X66790962Y-120241962D01*
X66695724Y-120146724D01*
X66648105Y-120051486D01*
X66600486Y-119861010D01*
X66600486Y-119718152D01*
X66648105Y-119527676D01*
X66695724Y-119432438D01*
X66790962Y-119337200D01*
X66933820Y-119289581D01*
X67029058Y-119289581D01*
X67171915Y-119337200D01*
X67219534Y-119384819D01*
X67695724Y-120289581D02*
X67886200Y-120289581D01*
X67981439Y-120241962D01*
X68029058Y-120194343D01*
X68124296Y-120051486D01*
X68171915Y-119861010D01*
X68171915Y-119480057D01*
X68124296Y-119384819D01*
X68076677Y-119337200D01*
X67981439Y-119289581D01*
X67790962Y-119289581D01*
X67695724Y-119337200D01*
X67648105Y-119384819D01*
X67600486Y-119480057D01*
X67600486Y-119718152D01*
X67648105Y-119813390D01*
X67695724Y-119861010D01*
X67790962Y-119908629D01*
X67981439Y-119908629D01*
X68076677Y-119861010D01*
X68124296Y-119813390D01*
X68171915Y-119718152D01*
X157313334Y-97399143D02*
X157265715Y-97446762D01*
X157122858Y-97494381D01*
X157027620Y-97494381D01*
X156884762Y-97446762D01*
X156789524Y-97351524D01*
X156741905Y-97256286D01*
X156694286Y-97065810D01*
X156694286Y-96922952D01*
X156741905Y-96732476D01*
X156789524Y-96637238D01*
X156884762Y-96542000D01*
X157027620Y-96494381D01*
X157122858Y-96494381D01*
X157265715Y-96542000D01*
X157313334Y-96589619D01*
X157884762Y-96922952D02*
X157789524Y-96875333D01*
X157741905Y-96827714D01*
X157694286Y-96732476D01*
X157694286Y-96684857D01*
X157741905Y-96589619D01*
X157789524Y-96542000D01*
X157884762Y-96494381D01*
X158075239Y-96494381D01*
X158170477Y-96542000D01*
X158218096Y-96589619D01*
X158265715Y-96684857D01*
X158265715Y-96732476D01*
X158218096Y-96827714D01*
X158170477Y-96875333D01*
X158075239Y-96922952D01*
X157884762Y-96922952D01*
X157789524Y-96970571D01*
X157741905Y-97018190D01*
X157694286Y-97113429D01*
X157694286Y-97303905D01*
X157741905Y-97399143D01*
X157789524Y-97446762D01*
X157884762Y-97494381D01*
X158075239Y-97494381D01*
X158170477Y-97446762D01*
X158218096Y-97399143D01*
X158265715Y-97303905D01*
X158265715Y-97113429D01*
X158218096Y-97018190D01*
X158170477Y-96970571D01*
X158075239Y-96922952D01*
X150353734Y-97308943D02*
X150306115Y-97356562D01*
X150163258Y-97404181D01*
X150068020Y-97404181D01*
X149925162Y-97356562D01*
X149829924Y-97261324D01*
X149782305Y-97166086D01*
X149734686Y-96975610D01*
X149734686Y-96832752D01*
X149782305Y-96642276D01*
X149829924Y-96547038D01*
X149925162Y-96451800D01*
X150068020Y-96404181D01*
X150163258Y-96404181D01*
X150306115Y-96451800D01*
X150353734Y-96499419D01*
X150687067Y-96404181D02*
X151353734Y-96404181D01*
X150925162Y-97404181D01*
X121245334Y-97399143D02*
X121197715Y-97446762D01*
X121054858Y-97494381D01*
X120959620Y-97494381D01*
X120816762Y-97446762D01*
X120721524Y-97351524D01*
X120673905Y-97256286D01*
X120626286Y-97065810D01*
X120626286Y-96922952D01*
X120673905Y-96732476D01*
X120721524Y-96637238D01*
X120816762Y-96542000D01*
X120959620Y-96494381D01*
X121054858Y-96494381D01*
X121197715Y-96542000D01*
X121245334Y-96589619D01*
X122102477Y-96494381D02*
X121912000Y-96494381D01*
X121816762Y-96542000D01*
X121769143Y-96589619D01*
X121673905Y-96732476D01*
X121626286Y-96922952D01*
X121626286Y-97303905D01*
X121673905Y-97399143D01*
X121721524Y-97446762D01*
X121816762Y-97494381D01*
X122007239Y-97494381D01*
X122102477Y-97446762D01*
X122150096Y-97399143D01*
X122197715Y-97303905D01*
X122197715Y-97065810D01*
X122150096Y-96970571D01*
X122102477Y-96922952D01*
X122007239Y-96875333D01*
X121816762Y-96875333D01*
X121721524Y-96922952D01*
X121673905Y-96970571D01*
X121626286Y-97065810D01*
X114412734Y-97435943D02*
X114365115Y-97483562D01*
X114222258Y-97531181D01*
X114127020Y-97531181D01*
X113984162Y-97483562D01*
X113888924Y-97388324D01*
X113841305Y-97293086D01*
X113793686Y-97102610D01*
X113793686Y-96959752D01*
X113841305Y-96769276D01*
X113888924Y-96674038D01*
X113984162Y-96578800D01*
X114127020Y-96531181D01*
X114222258Y-96531181D01*
X114365115Y-96578800D01*
X114412734Y-96626419D01*
X115317496Y-96531181D02*
X114841305Y-96531181D01*
X114793686Y-97007371D01*
X114841305Y-96959752D01*
X114936543Y-96912133D01*
X115174639Y-96912133D01*
X115269877Y-96959752D01*
X115317496Y-97007371D01*
X115365115Y-97102610D01*
X115365115Y-97340705D01*
X115317496Y-97435943D01*
X115269877Y-97483562D01*
X115174639Y-97531181D01*
X114936543Y-97531181D01*
X114841305Y-97483562D01*
X114793686Y-97435943D01*
X85177334Y-98415143D02*
X85129715Y-98462762D01*
X84986858Y-98510381D01*
X84891620Y-98510381D01*
X84748762Y-98462762D01*
X84653524Y-98367524D01*
X84605905Y-98272286D01*
X84558286Y-98081810D01*
X84558286Y-97938952D01*
X84605905Y-97748476D01*
X84653524Y-97653238D01*
X84748762Y-97558000D01*
X84891620Y-97510381D01*
X84986858Y-97510381D01*
X85129715Y-97558000D01*
X85177334Y-97605619D01*
X86034477Y-97843714D02*
X86034477Y-98510381D01*
X85796381Y-97462762D02*
X85558286Y-98177048D01*
X86177334Y-98177048D01*
X77989134Y-98096343D02*
X77941515Y-98143962D01*
X77798658Y-98191581D01*
X77703420Y-98191581D01*
X77560562Y-98143962D01*
X77465324Y-98048724D01*
X77417705Y-97953486D01*
X77370086Y-97763010D01*
X77370086Y-97620152D01*
X77417705Y-97429676D01*
X77465324Y-97334438D01*
X77560562Y-97239200D01*
X77703420Y-97191581D01*
X77798658Y-97191581D01*
X77941515Y-97239200D01*
X77989134Y-97286819D01*
X78322467Y-97191581D02*
X78941515Y-97191581D01*
X78608181Y-97572533D01*
X78751039Y-97572533D01*
X78846277Y-97620152D01*
X78893896Y-97667771D01*
X78941515Y-97763010D01*
X78941515Y-98001105D01*
X78893896Y-98096343D01*
X78846277Y-98143962D01*
X78751039Y-98191581D01*
X78465324Y-98191581D01*
X78370086Y-98143962D01*
X78322467Y-98096343D01*
X121854934Y-147372343D02*
X121807315Y-147419962D01*
X121664458Y-147467581D01*
X121569220Y-147467581D01*
X121426362Y-147419962D01*
X121331124Y-147324724D01*
X121283505Y-147229486D01*
X121235886Y-147039010D01*
X121235886Y-146896152D01*
X121283505Y-146705676D01*
X121331124Y-146610438D01*
X121426362Y-146515200D01*
X121569220Y-146467581D01*
X121664458Y-146467581D01*
X121807315Y-146515200D01*
X121854934Y-146562819D01*
X122235886Y-146562819D02*
X122283505Y-146515200D01*
X122378743Y-146467581D01*
X122616839Y-146467581D01*
X122712077Y-146515200D01*
X122759696Y-146562819D01*
X122807315Y-146658057D01*
X122807315Y-146753295D01*
X122759696Y-146896152D01*
X122188267Y-147467581D01*
X122807315Y-147467581D01*
X113498334Y-130772143D02*
X113450715Y-130819762D01*
X113307858Y-130867381D01*
X113212620Y-130867381D01*
X113069762Y-130819762D01*
X112974524Y-130724524D01*
X112926905Y-130629286D01*
X112879286Y-130438810D01*
X112879286Y-130295952D01*
X112926905Y-130105476D01*
X112974524Y-130010238D01*
X113069762Y-129915000D01*
X113212620Y-129867381D01*
X113307858Y-129867381D01*
X113450715Y-129915000D01*
X113498334Y-129962619D01*
X114450715Y-130867381D02*
X113879286Y-130867381D01*
X114165000Y-130867381D02*
X114165000Y-129867381D01*
X114069762Y-130010238D01*
X113974524Y-130105476D01*
X113879286Y-130153095D01*
X85438095Y-111562381D02*
X85438095Y-112371905D01*
X85485714Y-112467143D01*
X85533333Y-112514762D01*
X85628571Y-112562381D01*
X85819048Y-112562381D01*
X85914286Y-112514762D01*
X85961905Y-112467143D01*
X86009524Y-112371905D01*
X86009524Y-111562381D01*
X86438095Y-111657619D02*
X86485714Y-111610000D01*
X86580952Y-111562381D01*
X86819048Y-111562381D01*
X86914286Y-111610000D01*
X86961905Y-111657619D01*
X87009524Y-111752857D01*
X87009524Y-111848095D01*
X86961905Y-111990952D01*
X86390476Y-112562381D01*
X87009524Y-112562381D01*
X154450594Y-106717884D02*
X153995741Y-106355975D01*
X153902697Y-106880179D02*
X153618681Y-105921359D01*
X153983947Y-105813162D01*
X154088787Y-105831771D01*
X154147970Y-105863905D01*
X154220677Y-105941696D01*
X154261251Y-106078671D01*
X154242642Y-106183511D01*
X154210508Y-106242694D01*
X154132716Y-106315401D01*
X153767451Y-106423597D01*
X155363756Y-106447393D02*
X154815858Y-106609688D01*
X155089807Y-106528541D02*
X154805791Y-105569721D01*
X154755049Y-105733744D01*
X154690782Y-105852109D01*
X154612990Y-105924816D01*
X155472054Y-105471693D02*
X155504187Y-105412511D01*
X155581979Y-105339804D01*
X155810270Y-105272181D01*
X155915111Y-105290790D01*
X155974293Y-105322923D01*
X156047000Y-105400715D01*
X156074049Y-105492031D01*
X156068965Y-105642530D01*
X155683362Y-106352722D01*
X156276918Y-106176902D01*
X155345333Y-110573394D02*
X154910045Y-110188175D01*
X154789693Y-110706791D02*
X154556248Y-109734421D01*
X154926675Y-109645489D01*
X155030398Y-109669560D01*
X155087818Y-109704747D01*
X155156354Y-109786237D01*
X155189703Y-109925147D01*
X155165633Y-110028870D01*
X155130446Y-110086289D01*
X155048956Y-110154826D01*
X154678528Y-110243757D01*
X156271400Y-110351065D02*
X155715760Y-110484462D01*
X155993579Y-110417764D02*
X155760134Y-109445394D01*
X155700877Y-109606536D01*
X155630503Y-109721376D01*
X155549013Y-109789912D01*
X157197467Y-110128736D02*
X156641826Y-110262133D01*
X156919646Y-110195435D02*
X156686201Y-109223065D01*
X156626943Y-109384207D01*
X156556570Y-109499047D01*
X156475080Y-109567583D01*
X156037066Y-114470444D02*
X155622534Y-114062972D01*
X155475205Y-114574579D02*
X155292970Y-113591324D01*
X155667544Y-113521901D01*
X155769865Y-113551367D01*
X155825364Y-113589510D01*
X155889542Y-113674476D01*
X155915575Y-113814941D01*
X155886109Y-113917262D01*
X155847966Y-113972761D01*
X155763000Y-114036939D01*
X155388426Y-114106362D01*
X156973499Y-114296887D02*
X156411639Y-114401021D01*
X156692568Y-114348954D02*
X156510333Y-113365699D01*
X156442723Y-113523520D01*
X156366436Y-113634519D01*
X156281470Y-113698696D01*
X157399944Y-113200819D02*
X157493589Y-113183463D01*
X157595910Y-113212929D01*
X157651409Y-113251073D01*
X157715587Y-113336038D01*
X157797120Y-113514647D01*
X157840509Y-113748756D01*
X157828399Y-113944720D01*
X157798933Y-114047041D01*
X157760789Y-114102541D01*
X157675824Y-114166718D01*
X157582180Y-114184074D01*
X157479859Y-114154608D01*
X157424359Y-114116465D01*
X157360182Y-114031499D01*
X157278649Y-113852891D01*
X157235259Y-113618782D01*
X157247369Y-113422817D01*
X157276835Y-113320496D01*
X157314979Y-113264997D01*
X157399944Y-113200819D01*
X156996010Y-118336203D02*
X156603373Y-117907595D01*
X156429470Y-118410790D02*
X156298944Y-117419345D01*
X156676638Y-117369620D01*
X156777277Y-117404401D01*
X156830704Y-117445397D01*
X156890346Y-117533605D01*
X156908993Y-117675240D01*
X156874212Y-117775878D01*
X156833216Y-117829305D01*
X156745009Y-117888948D01*
X156367315Y-117938672D01*
X157468127Y-118274048D02*
X157656973Y-118249186D01*
X157745182Y-118189543D01*
X157786178Y-118136116D01*
X157861954Y-117982050D01*
X157884304Y-117786988D01*
X157834580Y-117409294D01*
X157774937Y-117321086D01*
X157721510Y-117280090D01*
X157620871Y-117245310D01*
X157432024Y-117270172D01*
X157343816Y-117329815D01*
X157302820Y-117383242D01*
X157268039Y-117483880D01*
X157299117Y-117719939D01*
X157358760Y-117808146D01*
X157412187Y-117849143D01*
X157512826Y-117883924D01*
X157701673Y-117859062D01*
X157789881Y-117799419D01*
X157830877Y-117745991D01*
X157865657Y-117645352D01*
X157279205Y-122309005D02*
X156909537Y-121860435D01*
X156709538Y-122353839D02*
X156631079Y-121356921D01*
X157010857Y-121327032D01*
X157109538Y-121367032D01*
X157160746Y-121410768D01*
X157215691Y-121501976D01*
X157226899Y-121644393D01*
X157186899Y-121743074D01*
X157143163Y-121794282D01*
X157051955Y-121849226D01*
X156672176Y-121879116D01*
X157804038Y-121694504D02*
X157705357Y-121654504D01*
X157654149Y-121610768D01*
X157599204Y-121519559D01*
X157595468Y-121472087D01*
X157635468Y-121373407D01*
X157679204Y-121322198D01*
X157770413Y-121267254D01*
X157960302Y-121252309D01*
X158058983Y-121292309D01*
X158110191Y-121336045D01*
X158165136Y-121427253D01*
X158168872Y-121474726D01*
X158128872Y-121573406D01*
X158085136Y-121624615D01*
X157993928Y-121679559D01*
X157804038Y-121694504D01*
X157712830Y-121749448D01*
X157669094Y-121800657D01*
X157629094Y-121899338D01*
X157644038Y-122089227D01*
X157698983Y-122180435D01*
X157750191Y-122224171D01*
X157848872Y-122264171D01*
X158038761Y-122249227D01*
X158129970Y-122194282D01*
X158173706Y-122143074D01*
X158213706Y-122044393D01*
X158198761Y-121854504D01*
X158143817Y-121763295D01*
X158092608Y-121719559D01*
X157993928Y-121679559D01*
X157354093Y-126291185D02*
X157008408Y-125823883D01*
X156782860Y-126306143D02*
X156756683Y-125306486D01*
X157137505Y-125296514D01*
X157233957Y-125341623D01*
X157282806Y-125387979D01*
X157332902Y-125481938D01*
X157336642Y-125624746D01*
X157291532Y-125721198D01*
X157245176Y-125770047D01*
X157151217Y-125820143D01*
X156770395Y-125830115D01*
X157661135Y-125282802D02*
X158327573Y-125265351D01*
X157925325Y-126276227D01*
X157220465Y-130271826D02*
X156899711Y-129787073D01*
X156649232Y-130256868D02*
X156675409Y-129257211D01*
X157056231Y-129267183D01*
X157150190Y-129317278D01*
X157196546Y-129366128D01*
X157241656Y-129462580D01*
X157237916Y-129605388D01*
X157187821Y-129699346D01*
X157138972Y-129745703D01*
X157042520Y-129790812D01*
X156661697Y-129780840D01*
X158103491Y-129294606D02*
X157913080Y-129289620D01*
X157816628Y-129334730D01*
X157767779Y-129381086D01*
X157668834Y-129521401D01*
X157616245Y-129710565D01*
X157606273Y-130091388D01*
X157651382Y-130187839D01*
X157697738Y-130236689D01*
X157791697Y-130286784D01*
X157982109Y-130291771D01*
X158078561Y-130246661D01*
X158127410Y-130200305D01*
X158177506Y-130106346D01*
X158183738Y-129868332D01*
X158138629Y-129771880D01*
X158092273Y-129723030D01*
X157998314Y-129672935D01*
X157807902Y-129667949D01*
X157711450Y-129713058D01*
X157662601Y-129759414D01*
X157612505Y-129853374D01*
X156878690Y-134240019D02*
X156583745Y-133739143D01*
X156309023Y-134195185D02*
X156387482Y-133198268D01*
X156767261Y-133228157D01*
X156858469Y-133283102D01*
X156902205Y-133334310D01*
X156942205Y-133432990D01*
X156930996Y-133575407D01*
X156876052Y-133666615D01*
X156824844Y-133710351D01*
X156726163Y-133750351D01*
X156346384Y-133720462D01*
X157859122Y-133314088D02*
X157384399Y-133276727D01*
X157299566Y-133747713D01*
X157350774Y-133703977D01*
X157449455Y-133663977D01*
X157686817Y-133682658D01*
X157778025Y-133737602D01*
X157821761Y-133788811D01*
X157861761Y-133887492D01*
X157843080Y-134124853D01*
X157788136Y-134216061D01*
X157736927Y-134259797D01*
X157638247Y-134299797D01*
X157400885Y-134281117D01*
X157309676Y-134226172D01*
X157265940Y-134174964D01*
X156329705Y-138184886D02*
X156061378Y-137669260D01*
X155763165Y-138110299D02*
X155893691Y-137118854D01*
X156271385Y-137168579D01*
X156359593Y-137228221D01*
X156400589Y-137281648D01*
X156435369Y-137382287D01*
X156416723Y-137523922D01*
X156357080Y-137612130D01*
X156303653Y-137653126D01*
X156203014Y-137687906D01*
X155825320Y-137638182D01*
X157266533Y-137635802D02*
X157179515Y-138296765D01*
X157080198Y-137227031D02*
X156750907Y-137904128D01*
X157364659Y-137984930D01*
X155575013Y-142095615D02*
X155334040Y-141566653D01*
X155013153Y-141991481D02*
X155195388Y-141008226D01*
X155569962Y-141077649D01*
X155654927Y-141141826D01*
X155693071Y-141197326D01*
X155722537Y-141299647D01*
X155696503Y-141440112D01*
X155632326Y-141525077D01*
X155576827Y-141563221D01*
X155474505Y-141592687D01*
X155099931Y-141523264D01*
X156085000Y-141173106D02*
X156693682Y-141285918D01*
X156296506Y-141599746D01*
X156436972Y-141625780D01*
X156521938Y-141689957D01*
X156560081Y-141745456D01*
X156589547Y-141847778D01*
X156546158Y-142081887D01*
X156481980Y-142166852D01*
X156426481Y-142204996D01*
X156324160Y-142234462D01*
X156043229Y-142182394D01*
X155958264Y-142118217D01*
X155920120Y-142062717D01*
X154616685Y-145961487D02*
X154403725Y-145420638D01*
X154061044Y-145828090D02*
X154294490Y-144855720D01*
X154664917Y-144944652D01*
X154746407Y-145013188D01*
X154781594Y-145070607D01*
X154805664Y-145174330D01*
X154772315Y-145313240D01*
X154703779Y-145394730D01*
X154646359Y-145429917D01*
X154542636Y-145453988D01*
X154172209Y-145365056D01*
X155198324Y-145170655D02*
X155255743Y-145135469D01*
X155359466Y-145111398D01*
X155590984Y-145166981D01*
X155672474Y-145235517D01*
X155707661Y-145292936D01*
X155731731Y-145396659D01*
X155709498Y-145489266D01*
X155629846Y-145617059D01*
X154940808Y-146039302D01*
X155542751Y-146183816D01*
X153457345Y-149771906D02*
X153272984Y-149220653D01*
X152909448Y-149609612D02*
X153193463Y-148650792D01*
X153558728Y-148758988D01*
X153636520Y-148831695D01*
X153668653Y-148890878D01*
X153687262Y-148995719D01*
X153646689Y-149132693D01*
X153573982Y-149210484D01*
X153514799Y-149242618D01*
X153409959Y-149261227D01*
X153044693Y-149153030D01*
X154370507Y-150042397D02*
X153822610Y-149880102D01*
X154096558Y-149961250D02*
X154380573Y-149002430D01*
X154248683Y-149112355D01*
X154130318Y-149176622D01*
X154025478Y-149195231D01*
X160269937Y-100683424D02*
X159813356Y-100818669D01*
X159529341Y-99859850D01*
X160440774Y-100086513D02*
X160760381Y-99991841D01*
X161046125Y-100453507D02*
X160589544Y-100588752D01*
X160305528Y-99629932D01*
X160762110Y-99494687D01*
X161457047Y-100331786D02*
X161173032Y-99372966D01*
X161401322Y-99305344D01*
X161551822Y-99310428D01*
X161670187Y-99374695D01*
X161742894Y-99452486D01*
X161842650Y-99621594D01*
X161883224Y-99758569D01*
X161891664Y-99954726D01*
X161873055Y-100059566D01*
X161808788Y-100177931D01*
X161685338Y-100264163D01*
X161457047Y-100331786D01*
X162918106Y-99899001D02*
X162370209Y-100061295D01*
X162644157Y-99980148D02*
X162360142Y-99021328D01*
X162309399Y-99185351D01*
X162245132Y-99303717D01*
X162167341Y-99376424D01*
X163026404Y-98923301D02*
X163058538Y-98864118D01*
X163136330Y-98791411D01*
X163364621Y-98723788D01*
X163469461Y-98742397D01*
X163528644Y-98774531D01*
X163601351Y-98852322D01*
X163628400Y-98943638D01*
X163623316Y-99094137D01*
X163237713Y-99804329D01*
X163831268Y-99628510D01*
X167910017Y-100220607D02*
X167590409Y-100315279D01*
X167739179Y-100817518D02*
X167455164Y-99858698D01*
X167911745Y-99723453D01*
X168561025Y-100574076D02*
X168277010Y-99615257D01*
X168642274Y-99507060D02*
X169565503Y-100276536D01*
X169281488Y-99317717D02*
X168926289Y-100465880D01*
X164949845Y-104291883D02*
X164486811Y-104403047D01*
X164253366Y-103430677D01*
X165151687Y-103704730D02*
X165475811Y-103626915D01*
X165737002Y-104102903D02*
X165273968Y-104214068D01*
X165040522Y-103241698D01*
X165503556Y-103130533D01*
X166153731Y-104002855D02*
X165920286Y-103030485D01*
X166151802Y-102974903D01*
X166301829Y-102987857D01*
X166416669Y-103058230D01*
X166485205Y-103139721D01*
X166575974Y-103313817D01*
X166609324Y-103452728D01*
X166607486Y-103649058D01*
X166583416Y-103752781D01*
X166513042Y-103867620D01*
X166385248Y-103947273D01*
X166153731Y-104002855D01*
X167635438Y-103647129D02*
X167079798Y-103780526D01*
X167357617Y-103713828D02*
X167124172Y-102741458D01*
X167064915Y-102902600D01*
X166994541Y-103017440D01*
X166913051Y-103085976D01*
X168561505Y-103424800D02*
X168005864Y-103558197D01*
X168283684Y-103491499D02*
X168050239Y-102519129D01*
X167990981Y-102680271D01*
X167920608Y-102795111D01*
X167839118Y-102863647D01*
X168862113Y-105195942D02*
X168628668Y-104223572D01*
X168999095Y-104134640D01*
X169102818Y-104158711D01*
X169160238Y-104193898D01*
X169228774Y-104275388D01*
X169262123Y-104414298D01*
X169238053Y-104518021D01*
X169202866Y-104575440D01*
X169121376Y-104643977D01*
X168750949Y-104732908D01*
X169508431Y-104012360D02*
X169973393Y-104929147D01*
X169991860Y-104190131D01*
X170343820Y-104840216D01*
X170341891Y-103812264D01*
X171501403Y-104562305D02*
X171066115Y-104177086D01*
X170945763Y-104695702D02*
X170712318Y-103723332D01*
X171082745Y-103634400D01*
X171186468Y-103658471D01*
X171243888Y-103693658D01*
X171312424Y-103775148D01*
X171345773Y-103914058D01*
X171321703Y-104017781D01*
X171286516Y-104075200D01*
X171205026Y-104143737D01*
X170834598Y-104232668D01*
X165950713Y-108685515D02*
X165482496Y-108772294D01*
X165300261Y-107789039D01*
X166183008Y-108109731D02*
X166510760Y-108048986D01*
X166746682Y-108537991D02*
X166278465Y-108624770D01*
X166096229Y-107641515D01*
X166564446Y-107554736D01*
X167168076Y-108459890D02*
X166985841Y-107476635D01*
X167219949Y-107433246D01*
X167369093Y-107454034D01*
X167480092Y-107530321D01*
X167544269Y-107615286D01*
X167625802Y-107793895D01*
X167651836Y-107934361D01*
X167639726Y-108130325D01*
X167610260Y-108232646D01*
X167533972Y-108343645D01*
X167402184Y-108416501D01*
X167168076Y-108459890D01*
X168666370Y-108182198D02*
X168104510Y-108286332D01*
X168385439Y-108234265D02*
X168203204Y-107251010D01*
X168135594Y-107408831D01*
X168059307Y-107519830D01*
X167974341Y-107584007D01*
X169092815Y-107086130D02*
X169186460Y-107068774D01*
X169288781Y-107098240D01*
X169344280Y-107136384D01*
X169408458Y-107221349D01*
X169489991Y-107399958D01*
X169533380Y-107634067D01*
X169521270Y-107830031D01*
X169491804Y-107932353D01*
X169453661Y-107987852D01*
X169368695Y-108052029D01*
X169275051Y-108069385D01*
X169172730Y-108039919D01*
X169117230Y-108001776D01*
X169053053Y-107916810D01*
X168971520Y-107738202D01*
X168928130Y-107504093D01*
X168940240Y-107308128D01*
X168969706Y-107205807D01*
X169007850Y-107150308D01*
X169092815Y-107086130D01*
X170322116Y-109744174D02*
X169853899Y-109830953D01*
X169671663Y-108847698D01*
X170654918Y-108665462D02*
X170842205Y-108630751D01*
X170944526Y-108660217D01*
X171055525Y-108736504D01*
X171137059Y-108915113D01*
X171197804Y-109242865D01*
X171185694Y-109438829D01*
X171109406Y-109549828D01*
X171024441Y-109614006D01*
X170837153Y-109648717D01*
X170734832Y-109619251D01*
X170623833Y-109542964D01*
X170542300Y-109364355D01*
X170481555Y-109036603D01*
X170493665Y-108840639D01*
X170569953Y-108729640D01*
X170654918Y-108665462D01*
X172021425Y-108460625D02*
X171919103Y-108431159D01*
X171778639Y-108457193D01*
X171646851Y-108530049D01*
X171570563Y-108641047D01*
X171541097Y-108743369D01*
X171528987Y-108939333D01*
X171555021Y-109079799D01*
X171636554Y-109258407D01*
X171700731Y-109343373D01*
X171811730Y-109419660D01*
X171960874Y-109440448D01*
X172054517Y-109423092D01*
X172186304Y-109350237D01*
X172224448Y-109294738D01*
X172163703Y-108966986D01*
X171976417Y-109001698D01*
X166881466Y-113151536D02*
X166409349Y-113213691D01*
X166278823Y-112222246D01*
X167143577Y-112588698D02*
X167474059Y-112545190D01*
X167684065Y-113045872D02*
X167211947Y-113108027D01*
X167081421Y-112116582D01*
X167553538Y-112054427D01*
X168108969Y-112989932D02*
X167978443Y-111998487D01*
X168214501Y-111967409D01*
X168362352Y-111995974D01*
X168469207Y-112077967D01*
X168528849Y-112166174D01*
X168600923Y-112348805D01*
X168619570Y-112490441D01*
X168597220Y-112685503D01*
X168562440Y-112786142D01*
X168480447Y-112892996D01*
X168345027Y-112958854D01*
X168108969Y-112989932D01*
X169147626Y-112853190D02*
X169336472Y-112828328D01*
X169424681Y-112768685D01*
X169465677Y-112715258D01*
X169541453Y-112561192D01*
X169563803Y-112366130D01*
X169514079Y-111988436D01*
X169454436Y-111900229D01*
X169401009Y-111859233D01*
X169300370Y-111824452D01*
X169111523Y-111849314D01*
X169023315Y-111908957D01*
X168982319Y-111962384D01*
X168947538Y-112063023D01*
X168978616Y-112299081D01*
X169038259Y-112387289D01*
X169091686Y-112428286D01*
X169192325Y-112463066D01*
X169381172Y-112438204D01*
X169469380Y-112378561D01*
X169510376Y-112325133D01*
X169545156Y-112224494D01*
X170566045Y-114480347D02*
X170435519Y-113488902D01*
X170671577Y-113457824D01*
X170819429Y-113486389D01*
X170926283Y-113568381D01*
X170985926Y-113656589D01*
X171057999Y-113839220D01*
X171076646Y-113980856D01*
X171054297Y-114175918D01*
X171019516Y-114276556D01*
X170937524Y-114383411D01*
X170802104Y-114449269D01*
X170566045Y-114480347D01*
X171489119Y-113830492D02*
X171819602Y-113786983D01*
X172029607Y-114287665D02*
X171557490Y-114349820D01*
X171426964Y-113358376D01*
X171899081Y-113296220D01*
X172370007Y-113954671D02*
X172842124Y-113892516D01*
X172312877Y-114250372D02*
X172512832Y-113215418D01*
X172973841Y-114163354D01*
X173304322Y-114119846D02*
X173173796Y-113128401D01*
X173409854Y-113097323D01*
X173557705Y-113125888D01*
X173664559Y-113207880D01*
X173724202Y-113296088D01*
X173796276Y-113478719D01*
X173814923Y-113620355D01*
X173792573Y-113815417D01*
X173757792Y-113916056D01*
X173675800Y-114022910D01*
X173540380Y-114088768D01*
X173304322Y-114119846D01*
X167422458Y-117648810D02*
X166947735Y-117686171D01*
X166869276Y-116689254D01*
X167713666Y-117100462D02*
X168045972Y-117074309D01*
X168229487Y-117585295D02*
X167754763Y-117622657D01*
X167676304Y-116625740D01*
X168151027Y-116588378D01*
X168656736Y-117551670D02*
X168578277Y-116554753D01*
X168815638Y-116536072D01*
X168961792Y-116572336D01*
X169064209Y-116659808D01*
X169119153Y-116751016D01*
X169181570Y-116937169D01*
X169192779Y-117079586D01*
X169160251Y-117273211D01*
X169120251Y-117371892D01*
X169032779Y-117474309D01*
X168894097Y-117532989D01*
X168656736Y-117551670D01*
X169751237Y-116892335D02*
X169652556Y-116852335D01*
X169601348Y-116808599D01*
X169546403Y-116717391D01*
X169542667Y-116669919D01*
X169582667Y-116571238D01*
X169626403Y-116520030D01*
X169717611Y-116465085D01*
X169907501Y-116450141D01*
X170006182Y-116490140D01*
X170057390Y-116533877D01*
X170112335Y-116625085D01*
X170116071Y-116672557D01*
X170076071Y-116771238D01*
X170032335Y-116822446D01*
X169941126Y-116877390D01*
X169751237Y-116892335D01*
X169660028Y-116947280D01*
X169616292Y-116998488D01*
X169576292Y-117097169D01*
X169591237Y-117287058D01*
X169646181Y-117378267D01*
X169697390Y-117422003D01*
X169796070Y-117462003D01*
X169985960Y-117447058D01*
X170077168Y-117392113D01*
X170120905Y-117340905D01*
X170160904Y-117242224D01*
X170145960Y-117052336D01*
X170091015Y-116961126D01*
X170039807Y-116917390D01*
X169941126Y-116877390D01*
X171578738Y-119030084D02*
X171535002Y-119081293D01*
X171396321Y-119139973D01*
X171301377Y-119147445D01*
X171155223Y-119111182D01*
X171052807Y-119023710D01*
X170997862Y-118932501D01*
X170935445Y-118746349D01*
X170924237Y-118603931D01*
X170956764Y-118410306D01*
X170996764Y-118311626D01*
X171084236Y-118209209D01*
X171222918Y-118150528D01*
X171317862Y-118143056D01*
X171464015Y-118179320D01*
X171515223Y-118223056D01*
X172013460Y-119091403D02*
X171935001Y-118094486D01*
X171972363Y-118569208D02*
X172542030Y-118524374D01*
X172583128Y-119046570D02*
X172504669Y-118049652D01*
X173505322Y-118018665D02*
X173406641Y-117978665D01*
X173264225Y-117989874D01*
X173125543Y-118048555D01*
X173038071Y-118150971D01*
X172998071Y-118249652D01*
X172965544Y-118443277D01*
X172976752Y-118585694D01*
X173039169Y-118771847D01*
X173094113Y-118863055D01*
X173196530Y-118950527D01*
X173342684Y-118986791D01*
X173437628Y-118979319D01*
X173576309Y-118920638D01*
X173620045Y-118869430D01*
X173593892Y-118537124D01*
X173404003Y-118552069D01*
X167727339Y-122168233D02*
X167251312Y-122180698D01*
X167225135Y-121181041D01*
X168046846Y-121635877D02*
X168380066Y-121627151D01*
X168536586Y-122147042D02*
X168060558Y-122159508D01*
X168034381Y-121159850D01*
X168510409Y-121147385D01*
X168965010Y-122135824D02*
X168938833Y-121136166D01*
X169176847Y-121129934D01*
X169320902Y-121173797D01*
X169418601Y-121266509D01*
X169468696Y-121360468D01*
X169521285Y-121549632D01*
X169525025Y-121692441D01*
X169482408Y-121884099D01*
X169437298Y-121980550D01*
X169344586Y-122078249D01*
X169203024Y-122129591D01*
X168965010Y-122135824D01*
X169843285Y-121112482D02*
X170509724Y-121095031D01*
X170107476Y-122105907D01*
X171578862Y-123403759D02*
X171245642Y-123412484D01*
X171259354Y-123936115D02*
X171233177Y-122936457D01*
X171709205Y-122923992D01*
X172090026Y-122914020D02*
X172111217Y-123723267D01*
X172161313Y-123817225D01*
X172210162Y-123863582D01*
X172306614Y-123908691D01*
X172497026Y-123903705D01*
X172590985Y-123853609D01*
X172637341Y-123804760D01*
X172682451Y-123708308D01*
X172661260Y-122899062D01*
X173639491Y-123873789D02*
X173163463Y-123886254D01*
X173137286Y-122886596D01*
X174448738Y-123852598D02*
X173972710Y-123865063D01*
X173946533Y-122865406D01*
X167795276Y-126697418D02*
X167319248Y-126684953D01*
X167345425Y-125685295D01*
X168142206Y-126182513D02*
X168475426Y-126191239D01*
X168604522Y-126718609D02*
X168128494Y-126706143D01*
X168154671Y-125706486D01*
X168630699Y-125718951D01*
X169032946Y-126729827D02*
X169059123Y-125730170D01*
X169297137Y-125736403D01*
X169438699Y-125787745D01*
X169531411Y-125885443D01*
X169576521Y-125981895D01*
X169619138Y-126173552D01*
X169615398Y-126316361D01*
X169562809Y-126505526D01*
X169512714Y-126599484D01*
X169415015Y-126692197D01*
X169270960Y-126736060D01*
X169032946Y-126729827D01*
X170487206Y-125767566D02*
X170296794Y-125762580D01*
X170200342Y-125807689D01*
X170151493Y-125854045D01*
X170052548Y-125994360D01*
X169999959Y-126183525D01*
X169989987Y-126564347D01*
X170035097Y-126660799D01*
X170081453Y-126709648D01*
X170175412Y-126759744D01*
X170365823Y-126764730D01*
X170462275Y-126719620D01*
X170511124Y-126673264D01*
X170561220Y-126579305D01*
X170567453Y-126341292D01*
X170522343Y-126244839D01*
X170475987Y-126195990D01*
X170382028Y-126145894D01*
X170191616Y-126140908D01*
X170095165Y-126186018D01*
X170046315Y-126232374D01*
X169996220Y-126326334D01*
X171756524Y-127615983D02*
X171280496Y-127603517D01*
X171220429Y-128078298D01*
X171269278Y-128031941D01*
X171365730Y-127986832D01*
X171603744Y-127993064D01*
X171697703Y-128043160D01*
X171744059Y-128092009D01*
X171789169Y-128188462D01*
X171782936Y-128426476D01*
X171732840Y-128520435D01*
X171683991Y-128566791D01*
X171587539Y-128611900D01*
X171349525Y-128605668D01*
X171255566Y-128555572D01*
X171209210Y-128506723D01*
X172089743Y-127624708D02*
X172396785Y-128633091D01*
X172756182Y-127642160D01*
X167626077Y-131223952D02*
X167151354Y-131186591D01*
X167229813Y-130189673D01*
X167999480Y-130727910D02*
X168331787Y-130754063D01*
X168433106Y-131287467D02*
X167958383Y-131250105D01*
X168036842Y-130253188D01*
X168511565Y-130290549D01*
X168860356Y-131321092D02*
X168938815Y-130324175D01*
X169176176Y-130342855D01*
X169314857Y-130401536D01*
X169402329Y-130503953D01*
X169442329Y-130602633D01*
X169474857Y-130796258D01*
X169463648Y-130938676D01*
X169401232Y-131124828D01*
X169346287Y-131216037D01*
X169243870Y-131303509D01*
X169097717Y-131339773D01*
X168860356Y-131321092D01*
X170410455Y-130439995D02*
X169935732Y-130402634D01*
X169850898Y-130873620D01*
X169902107Y-130829883D01*
X170000787Y-130789884D01*
X170238149Y-130808564D01*
X170329358Y-130863509D01*
X170373094Y-130914717D01*
X170413094Y-131013399D01*
X170394413Y-131250760D01*
X170339468Y-131341968D01*
X170288260Y-131385704D01*
X170189579Y-131425704D01*
X169952217Y-131407023D01*
X169861009Y-131352079D01*
X169817273Y-131300870D01*
X171459365Y-133251434D02*
X171408157Y-133295170D01*
X171262004Y-133331434D01*
X171167059Y-133323962D01*
X171028378Y-133265281D01*
X170940906Y-133162864D01*
X170900906Y-133064184D01*
X170868378Y-132870559D01*
X170879587Y-132728141D01*
X170942004Y-132541989D01*
X170996948Y-132450780D01*
X171099365Y-132363308D01*
X171245518Y-132327044D01*
X171340463Y-132334517D01*
X171479143Y-132393197D01*
X171522879Y-132444406D01*
X172147490Y-132398031D02*
X172337380Y-132412976D01*
X172428588Y-132467920D01*
X172516061Y-132570337D01*
X172548588Y-132763962D01*
X172522435Y-133096268D01*
X172460018Y-133282421D01*
X172357602Y-133369893D01*
X172258921Y-133409893D01*
X172069031Y-133394948D01*
X171977823Y-133340004D01*
X171890351Y-133237587D01*
X171857823Y-133043962D01*
X171883976Y-132711656D01*
X171946393Y-132525503D01*
X172048810Y-132438031D01*
X172147490Y-132398031D01*
X172923532Y-133462199D02*
X173001991Y-132465282D01*
X173493199Y-133507033D01*
X173571659Y-132510116D01*
X173967922Y-133544394D02*
X174046381Y-132547477D01*
X174537589Y-133589228D01*
X174616048Y-132592311D01*
X167220213Y-135735427D02*
X166748096Y-135673271D01*
X166878622Y-134681827D01*
X167619065Y-135259607D02*
X167949548Y-135303116D01*
X168022811Y-135841091D02*
X167550694Y-135778936D01*
X167681221Y-134787491D01*
X168153338Y-134849646D01*
X168447716Y-135897031D02*
X168578242Y-134905586D01*
X168814300Y-134936663D01*
X168949721Y-135002522D01*
X169031713Y-135109376D01*
X169066493Y-135210015D01*
X169088843Y-135405077D01*
X169070196Y-135546713D01*
X168998122Y-135729344D01*
X168938480Y-135817551D01*
X168831625Y-135899543D01*
X168683774Y-135928108D01*
X168447716Y-135897031D01*
X169951084Y-135422533D02*
X169864066Y-136083497D01*
X169764749Y-135013763D02*
X169435458Y-135690860D01*
X170049210Y-135771662D01*
X170475426Y-137993276D02*
X170605952Y-137001831D01*
X170983646Y-137051555D01*
X171071854Y-137111198D01*
X171112850Y-137164625D01*
X171147631Y-137265264D01*
X171128984Y-137406899D01*
X171069341Y-137495107D01*
X171015914Y-137536103D01*
X170915276Y-137570883D01*
X170537582Y-137521159D01*
X171502974Y-137119926D02*
X171608506Y-138142449D01*
X171890586Y-137459136D01*
X171986200Y-138192173D01*
X172352784Y-137231806D01*
X173166491Y-138347561D02*
X172898164Y-137831935D01*
X172599951Y-138272975D02*
X172730477Y-137281530D01*
X173108171Y-137331254D01*
X173196379Y-137390897D01*
X173237375Y-137444324D01*
X173272155Y-137544963D01*
X173253509Y-137686598D01*
X173193866Y-137774805D01*
X173140439Y-137815802D01*
X173039800Y-137850582D01*
X172662106Y-137800858D01*
X166578791Y-140219479D02*
X166110574Y-140132700D01*
X166292809Y-139149445D01*
X167001999Y-139765185D02*
X167329751Y-139825930D01*
X167374759Y-140367003D02*
X166906542Y-140280224D01*
X167088777Y-139296969D01*
X167556995Y-139383748D01*
X167796154Y-140445104D02*
X167978389Y-139461849D01*
X168212497Y-139505238D01*
X168344285Y-139578093D01*
X168420573Y-139689092D01*
X168450039Y-139791414D01*
X168462149Y-139987378D01*
X168436115Y-140127844D01*
X168354582Y-140306452D01*
X168290404Y-140391418D01*
X168179405Y-140467705D01*
X168030262Y-140488493D01*
X167796154Y-140445104D01*
X168868001Y-139626728D02*
X169476683Y-139739541D01*
X169079508Y-140053369D01*
X169219973Y-140079402D01*
X169304939Y-140143580D01*
X169343082Y-140199079D01*
X169372548Y-140301401D01*
X169329159Y-140535509D01*
X169264981Y-140620475D01*
X169209482Y-140658619D01*
X169107161Y-140688084D01*
X168826230Y-140636017D01*
X168741265Y-140571840D01*
X168703121Y-140516340D01*
X169785373Y-142629210D02*
X169917160Y-142702065D01*
X170151269Y-142745455D01*
X170253590Y-142715989D01*
X170309089Y-142677845D01*
X170373267Y-142592880D01*
X170390622Y-142499236D01*
X170361157Y-142396915D01*
X170323013Y-142341416D01*
X170238048Y-142277237D01*
X170059438Y-142195704D01*
X169974473Y-142131527D01*
X169936329Y-142076027D01*
X169906863Y-141973706D01*
X169924219Y-141880063D01*
X169988396Y-141795098D01*
X170043896Y-141756954D01*
X170146217Y-141727488D01*
X170380326Y-141770878D01*
X170512113Y-141843733D01*
X170759950Y-142858267D02*
X170942185Y-141875012D01*
X171916762Y-142104069D02*
X171831797Y-142039892D01*
X171691332Y-142013858D01*
X171542188Y-142034646D01*
X171431189Y-142110934D01*
X171367012Y-142195899D01*
X171285479Y-142374507D01*
X171259445Y-142514973D01*
X171271555Y-142710938D01*
X171301021Y-142813259D01*
X171377309Y-142924258D01*
X171509097Y-142997113D01*
X171602740Y-143014469D01*
X171751883Y-142993681D01*
X171807382Y-142955537D01*
X171868127Y-142627786D01*
X171680841Y-142593074D01*
X165703571Y-144663815D02*
X165240537Y-144552651D01*
X165473983Y-143580281D01*
X166149975Y-144232293D02*
X166474099Y-144310109D01*
X166490728Y-144852795D02*
X166027694Y-144741630D01*
X166261139Y-143769260D01*
X166724173Y-143880425D01*
X166907457Y-144952843D02*
X167140903Y-143980473D01*
X167372419Y-144036055D01*
X167500214Y-144115708D01*
X167570587Y-144230547D01*
X167594658Y-144334270D01*
X167596495Y-144530600D01*
X167563146Y-144669511D01*
X167472377Y-144843607D01*
X167403841Y-144925098D01*
X167289001Y-144995471D01*
X167138974Y-145008425D01*
X166907457Y-144952843D01*
X168044737Y-144295408D02*
X168102156Y-144260222D01*
X168205879Y-144236151D01*
X168437397Y-144291734D01*
X168518887Y-144360270D01*
X168554074Y-144417689D01*
X168578144Y-144521412D01*
X168555911Y-144614019D01*
X168476259Y-144741812D01*
X167787221Y-145164055D01*
X168389164Y-145308569D01*
X168931985Y-146355649D02*
X169487625Y-146489046D01*
X168976359Y-147394717D02*
X169209804Y-146422347D01*
X169719141Y-146544628D02*
X170133943Y-147672628D01*
X170367388Y-146700259D02*
X169485696Y-147516998D01*
X164596953Y-149056254D02*
X164140371Y-148921009D01*
X164424387Y-147962189D01*
X165065329Y-148648687D02*
X165384936Y-148743359D01*
X165373140Y-149286172D02*
X164916559Y-149150926D01*
X165200574Y-148192106D01*
X165657155Y-148327352D01*
X165784062Y-149407892D02*
X166068078Y-148449073D01*
X166296368Y-148516695D01*
X166419818Y-148602927D01*
X166484086Y-148721292D01*
X166502695Y-148826133D01*
X166494254Y-149022289D01*
X166453681Y-149159265D01*
X166353924Y-149328372D01*
X166281217Y-149406164D01*
X166162852Y-149470431D01*
X166012353Y-149475515D01*
X165784062Y-149407892D01*
X167245122Y-149840678D02*
X166697224Y-149678383D01*
X166971172Y-149759530D02*
X167255188Y-148800711D01*
X167123298Y-148910636D01*
X167004933Y-148974903D01*
X166900092Y-148993512D01*
X167961314Y-151922816D02*
X167776953Y-151371563D01*
X167413417Y-151760522D02*
X167697432Y-150801702D01*
X168062697Y-150909898D01*
X168140489Y-150982605D01*
X168172622Y-151041788D01*
X168191231Y-151146629D01*
X168150658Y-151283603D01*
X168077951Y-151361394D01*
X168018768Y-151393528D01*
X167913928Y-151412137D01*
X167548662Y-151303940D01*
X168564936Y-151058668D02*
X168920134Y-152206831D01*
X169204149Y-151248012D02*
X168280920Y-152017488D01*
X67052867Y-146086581D02*
X67052867Y-146800867D01*
X67005247Y-146943724D01*
X66910009Y-147038962D01*
X66767152Y-147086581D01*
X66671914Y-147086581D01*
X68052867Y-147086581D02*
X67481438Y-147086581D01*
X67767152Y-147086581D02*
X67767152Y-146086581D01*
X67671914Y-146229438D01*
X67576676Y-146324676D01*
X67481438Y-146372295D01*
M02*
